<svg version="1.1" id="Layer_1" xmlns="http://www.w3.org/2000/svg" xmlns:xlink="http://www.w3.org/1999/xlink" x="0px" y="0px"
	 width="100%" viewBox="0 0 3009 569" enable-background="new 0 0 3009 569" xml:space="preserve">
<path fill="#82bc0000" opacity="1.000000" stroke="none" 
	d="
M3010.000000,366.999939 
	C3010.000000,434.657654 3010.000000,502.315308 3010.000000,570.000000 
	C2088.631836,570.000000 1167.263550,570.000000 245.679688,569.680420 
	C255.372391,568.012634 264.340576,564.449829 272.459808,558.006226 
	C281.892517,552.675781 290.970764,547.391113 300.399506,542.041565 
	C304.591614,539.760437 308.476929,537.616150 312.265228,535.312317 
	C318.982086,531.227539 325.639984,527.045776 332.707611,522.877563 
	C344.410278,516.271118 355.727905,509.691833 367.339447,502.963379 
	C368.765015,502.154053 369.896667,501.493835 371.274109,500.807495 
	C371.815033,500.603180 372.019562,500.351379 372.481689,499.985596 
	C379.552399,495.907959 386.274933,491.870728 393.334503,487.758698 
	C396.224182,486.221680 398.804688,484.805603 401.324249,483.288361 
	C408.574585,478.922424 415.800323,474.515625 423.391418,470.055389 
	C437.286621,462.094879 451.105011,454.639496 464.292267,446.198120 
	C479.428253,436.509277 486.929138,422.085541 486.972809,404.069702 
	C487.063232,366.757874 487.195709,329.444183 486.908539,292.134338 
	C486.784668,276.039398 479.491760,262.975952 466.379028,253.907150 
	C456.225342,246.884827 445.175110,241.162064 434.554291,234.810028 
	C431.245636,232.831192 428.037598,230.684006 424.382507,228.358795 
	C425.669373,227.162170 426.170746,226.492523 426.836700,226.107361 
	C435.982666,220.817490 445.311829,215.823486 454.262634,210.223953 
	C461.220856,205.870987 468.775299,201.741852 474.187073,195.802383 
	C484.545776,184.433746 489.089844,170.637390 487.117554,154.817993 
	C485.320038,140.400558 479.342499,128.421906 467.631134,120.042152 
	C458.537598,113.535515 448.602081,108.189308 438.943756,102.491806 
	C419.610596,91.087036 400.243591,79.738716 380.827606,68.475601 
	C367.272156,60.612167 353.612122,52.929104 339.693726,44.989059 
	C337.206787,43.441586 335.068939,41.993809 332.835358,40.712830 
	C323.585358,35.407742 314.306458,30.153091 304.836853,24.606844 
	C293.133118,17.878626 281.630737,11.423480 270.012207,4.753877 
	C269.689362,4.237519 269.404968,4.112937 268.781921,4.131020 
	C268.346985,4.119771 268.173035,4.143178 267.711609,4.001075 
	C266.949371,2.890376 266.474701,1.945188 266.000000,0.999999 
	C1180.546997,1.000000 2095.093994,1.000000 3010.000000,1.000000 
	C3010.000000,94.367935 3010.000000,187.736343 3009.670410,281.417175 
	C3008.560303,280.304932 3007.567139,278.955719 3007.030762,277.444550 
	C2996.557373,247.938873 2977.228516,226.153183 2949.494873,211.877762 
	C2935.157227,204.497772 2919.835205,200.523132 2903.723633,198.832977 
	C2881.840088,196.537262 2860.396973,198.156937 2839.684814,205.326584 
	C2818.236328,212.751160 2799.966064,225.052765 2785.427979,242.918716 
	C2767.988281,264.350281 2759.652588,289.060028 2758.198242,316.160492 
	C2757.643799,326.487885 2758.676514,337.025330 2760.112549,347.309784 
	C2763.537354,371.841614 2774.189209,393.188416 2790.941650,411.332001 
	C2802.279541,423.611298 2816.093750,432.494232 2831.419678,439.188416 
	C2846.107422,445.603943 2861.548828,449.013062 2877.357666,449.764252 
	C2888.527588,450.295105 2899.896729,449.401825 2911.006592,447.889862 
	C2940.792480,443.836121 2965.988281,430.409180 2985.534912,407.598816 
	C2992.395996,399.591949 2997.150391,389.755524 3002.674805,380.638336 
	C3005.345703,376.230927 3007.572266,371.554565 3010.000000,366.999939 
M809.945374,140.508148 
	C803.422241,136.998978 797.105164,133.015930 790.335938,130.072922 
	C772.743164,122.424225 754.164551,120.669098 735.102905,120.855965 
	C712.296082,121.079521 690.998230,126.025513 671.446411,137.873718 
	C653.742554,148.602097 641.374878,163.809647 633.898010,183.072830 
	C626.910706,201.074707 626.303101,219.693619 629.057983,238.468094 
	C632.893921,264.609711 647.138611,282.982788 671.156860,294.197327 
	C689.135925,302.592041 708.301819,306.202881 727.504395,310.086456 
	C743.588684,313.339417 759.730469,316.623260 775.465210,321.204254 
	C792.176697,326.069641 801.766724,340.447510 799.925110,355.856598 
	C797.717102,374.331573 787.462891,386.685486 770.103821,393.026367 
	C752.026367,399.629669 733.397217,399.733002 714.914307,395.680389 
	C703.760010,393.234650 693.715210,388.004700 686.068237,378.749054 
	C681.126282,372.767456 679.037109,365.822418 677.038818,358.695404 
	C675.880188,354.563354 673.469604,352.023132 668.986084,352.014832 
	C655.656311,351.990051 642.325989,351.931824 628.997131,352.043732 
	C623.862854,352.086884 621.001160,355.054230 621.123169,360.789734 
	C621.213196,365.019470 622.168091,369.268219 623.068420,373.437073 
	C627.521057,394.054230 637.899597,411.274841 654.225891,424.480804 
	C675.553894,441.732513 700.974670,448.334290 727.719849,449.855560 
	C751.670288,451.217926 775.259277,448.539001 797.606201,438.960236 
	C818.260925,430.106873 834.915344,416.750397 845.337463,396.337128 
	C850.883850,385.473633 853.953735,374.080261 855.268372,361.931549 
	C857.175110,344.310577 855.555237,327.303436 848.472290,311.041229 
	C839.775879,291.074707 823.218811,279.672943 803.781494,272.159027 
	C782.648071,263.989471 760.192566,261.057129 738.047913,256.976776 
	C724.111694,254.408936 710.184570,251.690979 697.751709,244.321121 
	C690.002014,239.727295 684.273438,233.051651 683.224915,224.190994 
	C680.861206,204.214661 688.554626,188.146347 706.853210,179.166199 
	C723.469543,171.011597 741.166260,170.037552 758.968445,174.560211 
	C777.593201,179.291870 790.761108,189.987839 795.148315,209.703827 
	C796.116882,214.056686 799.194214,216.949615 804.027527,216.973709 
	C816.357239,217.035172 828.688232,217.073792 841.017090,216.953476 
	C845.900879,216.905807 848.966309,213.688705 848.937378,208.712204 
	C848.918396,205.433945 848.624023,202.101944 847.972351,198.891525 
	C843.063110,174.703751 830.658447,155.321915 809.945374,140.508148 
M1703.000000,175.500000 
	C1702.999756,154.172058 1703.016968,132.844086 1702.989868,111.516174 
	C1702.980225,103.885254 1699.067993,100.030327 1691.371582,100.007889 
	C1681.374146,99.978752 1671.376465,99.973892 1661.379028,100.010170 
	C1654.215820,100.036163 1650.009766,104.273003 1650.009033,111.506912 
	C1649.997314,218.146957 1649.997070,324.787018 1650.008789,431.427063 
	C1650.009521,438.962128 1654.264771,443.734955 1661.694458,443.926147 
	C1671.518799,444.178894 1681.366821,444.290100 1691.181274,443.890076 
	C1698.291504,443.600281 1703.205688,439.379150 1703.138672,431.712189 
	C1702.825562,395.890533 1702.875610,360.063873 1703.091919,324.240784 
	C1703.142700,315.846954 1703.627319,307.326416 1705.159424,299.096313 
	C1709.000977,278.460602 1719.593506,262.142090 1739.057373,253.158310 
	C1751.506470,247.412247 1764.814331,246.124390 1778.690063,247.825043 
	C1801.783081,250.655396 1820.164429,263.907135 1828.221924,286.158386 
	C1832.465454,297.876678 1833.708252,309.996399 1833.848267,322.123199 
	C1834.269531,358.609253 1834.207275,395.105438 1833.819458,431.592224 
	C1833.744751,438.609283 1839.274170,444.398895 1846.542236,444.086609 
	C1855.190796,443.715057 1863.867432,444.009033 1872.531982,443.997253 
	C1882.606201,443.983582 1886.993774,439.602295 1886.996460,429.520660 
	C1887.005249,396.695526 1887.292114,363.866577 1886.864990,331.047028 
	C1886.678345,316.698425 1885.896362,302.241882 1883.839600,288.058411 
	C1880.035400,261.825439 1869.128174,239.052658 1848.255493,221.678406 
	C1824.424194,201.841415 1796.448730,195.779510 1766.616577,198.331467 
	C1744.983521,200.182037 1726.135132,209.444733 1711.889771,226.605682 
	C1709.320801,229.700531 1706.742432,232.787689 1704.168335,235.878387 
	C1703.778931,235.793823 1703.389404,235.709244 1703.000000,235.624680 
	C1703.000000,215.916458 1703.000000,196.208221 1703.000000,175.500000 
M1966.513794,226.989700 
	C1964.251221,228.917908 1961.822754,230.683792 1959.753296,232.800781 
	C1946.754272,246.098846 1937.044922,261.506317 1930.935059,279.071899 
	C1922.856201,302.298859 1921.244141,326.247437 1925.187378,350.325500 
	C1930.081909,380.211365 1943.549805,405.619110 1967.935669,424.388855 
	C1995.670288,445.735901 2027.284180,453.682037 2061.614258,448.720367 
	C2090.992188,444.474457 2113.998047,429.601379 2128.575928,403.001770 
	C2129.065918,402.107971 2130.172363,401.552124 2132.000000,399.960480 
	C2132.000000,411.751862 2132.344971,422.068878 2131.891357,432.350616 
	C2131.523682,440.680206 2136.989014,443.740997 2142.922363,443.924072 
	C2151.580566,444.191254 2160.256836,444.151337 2168.918213,443.939941 
	C2175.016113,443.791077 2180.190430,440.482819 2180.125244,432.514771 
	C2179.835938,397.184784 2179.711182,361.847748 2180.114502,326.519989 
	C2180.336426,307.062866 2177.397949,288.348572 2169.941406,270.436310 
	C2159.704346,245.844162 2143.146484,226.750458 2119.635986,213.883911 
	C2104.087158,205.374374 2087.502930,200.622543 2069.849609,198.852905 
	C2054.229980,197.287079 2038.710327,197.379440 2023.380005,200.433441 
	C2002.582886,204.576569 1983.500122,212.813004 1966.513794,226.989700 
M1090.476318,248.961777 
	C1085.634399,257.912354 1079.912476,266.507172 1076.122192,275.882843 
	C1066.307617,300.160431 1065.690796,325.553925 1070.141235,350.978821 
	C1075.078979,379.188538 1089.007324,402.740112 1110.848389,421.120209 
	C1132.793945,439.588318 1159.049072,447.825073 1187.263184,449.880554 
	C1201.986328,450.953094 1216.687866,449.592834 1231.077637,445.983551 
	C1273.975708,435.223694 1303.635376,409.395782 1318.546143,367.633606 
	C1326.722900,344.732239 1327.121826,320.918518 1322.900513,297.159790 
	C1317.775757,268.316406 1303.655640,244.286346 1281.042969,225.799561 
	C1260.317383,208.855576 1235.838379,200.181946 1209.328003,198.197739 
	C1193.002075,196.975815 1176.590210,197.723602 1160.519653,201.996399 
	C1132.016846,209.574631 1108.170166,224.001770 1090.476318,248.961777 
M1356.131104,290.814789 
	C1351.977905,309.180634 1351.298218,327.792328 1354.176636,346.281860 
	C1359.131714,378.111359 1374.204224,404.481323 1399.866211,424.199921 
	C1422.319702,441.453156 1448.379272,448.986542 1476.353149,449.846832 
	C1486.047485,450.144989 1495.875000,449.239441 1505.505005,447.899872 
	C1531.008789,444.352264 1553.500977,433.935547 1572.233765,416.159637 
	C1586.359985,402.755005 1596.292969,386.560089 1602.104248,367.906311 
	C1604.428345,360.446289 1600.585327,355.050903 1592.784302,355.013611 
	C1582.288330,354.963440 1571.761841,355.482819 1561.306519,354.830505 
	C1554.331177,354.395325 1550.826294,357.348114 1547.868774,363.109650 
	C1539.200073,379.997925 1524.965820,390.740875 1507.354492,396.631348 
	C1491.090576,402.071136 1474.502441,402.264801 1457.818115,397.175507 
	C1439.147583,391.480347 1424.990601,380.402832 1415.797119,363.332001 
	C1405.767334,344.708740 1403.510010,324.704987 1408.222046,304.272614 
	C1412.462158,285.886749 1421.780884,270.188324 1437.956055,259.750824 
	C1454.284668,249.214508 1472.236206,245.202316 1491.783447,247.867172 
	C1517.229736,251.336243 1536.652100,263.204407 1548.710449,286.286102 
	C1551.022705,290.712219 1554.427246,293.199127 1559.826782,293.073975 
	C1570.650391,292.823181 1581.483887,293.021820 1592.313110,292.992249 
	C1600.956543,292.968628 1605.174194,287.316132 1601.986816,279.113403 
	C1598.897339,271.162933 1595.530640,263.206482 1591.254883,255.852005 
	C1578.277100,233.529861 1559.322144,217.839539 1535.535522,208.039932 
	C1509.956421,197.501984 1483.416870,195.505157 1456.295654,199.979385 
	C1427.589478,204.715103 1403.004272,217.057770 1383.372559,239.003159 
	C1370.090088,253.850876 1361.427856,270.919403 1356.131104,290.814789 
M2417.999756,369.498749 
	C2417.679199,365.719055 2417.396973,361.935669 2417.031738,358.160278 
	C2415.111328,338.301758 2404.151611,324.771423 2387.090576,315.562439 
	C2367.938477,305.224915 2346.665771,303.259155 2325.709229,299.949799 
	C2315.009521,298.260101 2304.249023,296.583252 2293.793701,293.841583 
	C2286.460205,291.918488 2279.292480,288.353394 2277.056641,279.948303 
	C2274.287354,269.538391 2278.614502,259.390167 2288.011230,252.992111 
	C2294.741943,248.409256 2302.348389,246.947571 2310.272705,245.675354 
	C2326.289307,243.103943 2352.695068,248.467010 2358.867920,267.399902 
	C2360.231689,271.582184 2363.904297,273.118225 2368.404785,273.049225 
	C2378.733887,272.890808 2389.109863,272.419189 2399.386230,273.171631 
	C2408.680176,273.852081 2412.414795,265.595520 2410.727051,258.665833 
	C2406.336426,240.641312 2396.615234,226.247421 2381.268555,215.566132 
	C2365.486816,204.581955 2347.703613,199.528244 2328.932373,198.167740 
	C2313.570312,197.054337 2298.125732,197.754684 2283.125977,202.010727 
	C2259.393799,208.744614 2240.012207,221.265381 2229.364990,244.416779 
	C2223.134521,257.964081 2221.102295,272.242737 2222.843018,287.292877 
	C2224.784180,304.078949 2231.965576,317.494202 2245.624756,327.216919 
	C2263.280029,339.784302 2284.096436,342.752777 2304.789551,346.020294 
	C2318.745361,348.223969 2332.924316,349.695374 2346.522949,353.305084 
	C2364.012695,357.947754 2369.317139,372.056946 2359.390381,387.271637 
	C2354.614502,394.592041 2347.119385,397.774811 2339.312988,399.836945 
	C2329.608398,402.400543 2319.698486,403.378815 2309.501221,402.118469 
	C2293.232178,400.107574 2278.577393,396.111542 2271.931885,378.820953 
	C2270.310303,374.601227 2267.209473,372.879700 2262.621826,372.942322 
	C2250.125977,373.112976 2237.626709,372.990997 2225.128662,373.004517 
	C2218.744141,373.011444 2217.237793,374.421600 2218.064209,380.646606 
	C2220.590820,399.676758 2229.411133,415.496460 2244.232910,427.467102 
	C2263.740723,443.222412 2286.982910,449.223694 2311.504639,449.777039 
	C2323.811768,450.054779 2336.285645,448.728638 2348.480713,446.824310 
	C2365.733398,444.130157 2381.292236,436.883728 2394.310791,425.082672 
	C2410.365234,410.529541 2417.883057,392.045959 2417.999756,369.498749 
M935.455566,415.018341 
	C944.822937,430.166290 959.638306,437.106720 976.052246,440.860992 
	C996.952148,445.641296 1018.324768,443.878815 1039.529297,443.903381 
	C1045.808594,443.910675 1048.989136,440.045502 1048.997070,433.760376 
	C1049.007324,425.595062 1049.029541,417.429596 1048.989136,409.264496 
	C1048.956665,402.729462 1046.193115,400.141907 1039.534058,399.983643 
	C1028.087646,399.711609 1016.570129,400.031311 1005.215881,398.835541 
	C987.523926,396.972382 976.186890,386.503235 976.089478,368.133331 
	C975.828674,318.976166 975.997742,269.816742 976.012024,220.658203 
	C976.012512,218.896057 976.182373,217.133942 976.292603,215.000275 
	C978.632202,215.000275 980.441345,215.000290 982.250549,215.000259 
	C998.581177,215.000000 1014.911804,215.014664 1031.242432,214.992844 
	C1038.902466,214.982605 1042.844604,211.219284 1042.966675,203.558823 
	C1043.096680,195.395569 1043.050903,187.228210 1042.983398,179.063461 
	C1042.914429,170.717133 1039.154541,167.011826 1030.865234,167.004547 
	C1014.534607,166.990189 998.203979,167.007294 981.873352,166.988968 
	C980.093201,166.986969 978.313171,166.837921 976.000122,166.732880 
	C976.000122,164.385818 976.000183,162.425247 976.000122,160.464676 
	C975.999695,143.134216 976.014709,125.803726 975.990601,108.473297 
	C975.982117,102.387352 972.647034,99.027740 966.608032,99.009903 
	C955.943176,98.978409 945.278137,98.980843 934.613281,99.007706 
	C927.369568,99.025955 924.016296,102.400299 924.007263,109.693657 
	C923.986023,126.857460 924.006836,144.021301 923.989319,161.185104 
	C923.987488,162.960220 923.841919,164.735199 923.741272,167.001053 
	C913.998657,167.001053 904.704102,166.973587 895.409912,167.009979 
	C888.302246,167.037796 884.241821,170.711060 884.063538,177.790009 
	C883.841248,186.616241 883.832214,195.457108 884.068298,204.282639 
	C884.256531,211.319946 888.354858,214.960281 895.482727,214.991547 
	C903.147949,215.025192 910.813538,214.982544 918.478821,215.013962 
	C920.229980,215.021149 921.980530,215.195557 924.000000,215.307953 
	C924.000000,218.076508 924.000000,220.231995 924.000000,222.387466 
	C924.000000,261.381012 923.913086,300.374878 924.045593,339.367950 
	C924.094055,353.647736 924.413147,367.937347 925.072693,382.201019 
	C925.605103,393.716614 928.969055,404.539612 935.455566,415.018341 
M2598.245361,400.000153 
	C2586.133301,399.666443 2573.977295,399.864655 2561.919922,398.869232 
	C2545.499023,397.513641 2533.878906,384.976105 2533.938721,368.084656 
	C2534.111572,319.252655 2534.000000,270.419647 2534.000000,221.587051 
	C2534.000000,219.505981 2534.000000,217.424896 2534.000000,215.000107 
	C2536.857666,215.000107 2538.840576,215.000183 2540.823486,215.000107 
	C2558.489990,214.999496 2576.156738,214.919144 2593.822266,215.053650 
	C2598.297119,215.087738 2600.123047,213.422882 2600.053955,208.889328 
	C2599.883789,197.725418 2600.021240,186.557129 2599.989746,175.390717 
	C2599.972900,169.436142 2598.589355,168.021851 2592.707031,168.011856 
	C2575.207275,167.982117 2557.707764,168.000275 2540.208008,167.999741 
	C2538.282227,167.999680 2536.356445,167.999725 2534.000000,167.999725 
	C2534.000000,165.240738 2534.000244,163.269073 2534.000000,161.297409 
	C2533.999756,143.297684 2534.017090,125.297920 2533.987793,107.298233 
	C2533.978271,101.411728 2532.565186,100.025589 2526.614746,100.010544 
	C2514.281494,99.979370 2501.948486,99.994881 2489.615234,100.002495 
	C2482.818848,100.006691 2482.014160,100.812927 2482.006836,107.840492 
	C2481.987793,125.840202 2482.000244,143.839951 2482.000000,161.839691 
	C2482.000000,163.760757 2482.000000,165.681824 2482.000000,168.001434 
	C2470.536377,168.001434 2459.889893,168.157745 2449.251709,167.929459 
	C2444.573242,167.829086 2442.190430,170.068604 2442.103027,174.256516 
	C2441.864014,185.751266 2441.858154,197.257889 2442.113037,208.751953 
	C2442.197021,212.547989 2444.184814,215.183640 2448.760498,215.052032 
	C2455.921143,214.846085 2463.092285,214.999252 2470.258789,214.999939 
	C2474.024414,215.000305 2477.789795,215.000000 2482.000000,215.000000 
	C2482.000000,217.898407 2482.000000,220.033752 2482.000000,222.169098 
	C2482.000000,270.001709 2481.903809,317.834717 2482.090576,365.666595 
	C2482.123291,374.060150 2482.656250,382.572784 2484.140625,390.817413 
	C2488.994141,417.771149 2503.922119,432.877960 2529.668701,439.851166 
	C2553.044434,446.182220 2577.137695,443.734406 2600.973145,443.869324 
	C2604.823242,443.891144 2607.165039,441.511475 2607.064697,437.020569 
	C2606.848633,427.358917 2607.011230,417.688995 2606.995361,408.022522 
	C2606.984863,401.581055 2605.583008,400.162598 2598.245361,400.000153 
M2703.180176,204.000488 
	C2691.687744,204.001221 2680.194824,203.959183 2668.702637,204.021133 
	C2663.141357,204.051117 2660.017334,206.877350 2660.015869,211.864426 
	C2659.995605,286.315552 2659.993164,360.766693 2660.019531,435.217804 
	C2660.021729,441.131256 2662.939697,443.957001 2668.941650,443.983337 
	C2680.600342,444.034485 2692.260010,444.031128 2703.918701,443.985352 
	C2710.207764,443.960663 2712.994873,441.168213 2712.995361,435.015198 
	C2713.001465,361.063751 2713.001465,287.112274 2712.996582,213.160812 
	C2712.996094,206.811142 2710.696289,204.467041 2703.180176,204.000488 
M2651.409668,139.863495 
	C2652.314209,143.343765 2652.733887,147.045319 2654.204346,150.267441 
	C2662.231201,167.858505 2680.194336,175.118469 2699.362549,169.368820 
	C2713.033447,165.268219 2726.490967,147.807098 2722.004150,127.735107 
	C2716.266846,102.067902 2688.967773,91.388229 2667.913574,103.847321 
	C2654.883545,111.557938 2650.441162,124.294617 2651.409668,139.863495 
z"/>
<path fill="#000000" opacity="1.000000" stroke="none" 
	d="
M3010.000000,366.562439 
	C3007.572266,371.554565 3005.345703,376.230927 3002.674805,380.638336 
	C2997.150391,389.755524 2992.395996,399.591949 2985.534912,407.598816 
	C2965.988281,430.409180 2940.792480,443.836121 2911.006592,447.889862 
	C2899.896729,449.401825 2888.527588,450.295105 2877.357666,449.764252 
	C2861.548828,449.013062 2846.107422,445.603943 2831.419678,439.188416 
	C2816.093750,432.494232 2802.279541,423.611298 2790.941650,411.332001 
	C2774.189209,393.188416 2763.537354,371.841614 2760.112549,347.309784 
	C2758.676514,337.025330 2757.643799,326.487885 2758.198242,316.160492 
	C2759.652588,289.060028 2767.988281,264.350281 2785.427979,242.918716 
	C2799.966064,225.052765 2818.236328,212.751160 2839.684814,205.326584 
	C2860.396973,198.156937 2881.840088,196.537262 2903.723633,198.832977 
	C2919.835205,200.523132 2935.157227,204.497772 2949.494873,211.877762 
	C2977.228516,226.153183 2996.557373,247.938873 3007.030762,277.444550 
	C3007.567139,278.955719 3008.560303,280.304932 3009.670410,281.864807 
	C3010.000000,283.388885 3010.000000,284.777802 3009.679688,286.780701 
	C3009.103760,291.944702 3006.206299,293.035675 3002.250488,293.017426 
	C2990.424316,292.962830 2978.569824,292.511017 2966.781494,293.181122 
	C2959.586914,293.590088 2956.085205,290.579773 2953.114502,284.605194 
	C2947.062012,272.431671 2937.560791,263.437317 2925.652832,256.873322 
	C2907.455566,246.842133 2888.097900,244.586578 2868.157471,249.220535 
	C2847.048584,254.125977 2830.803223,265.870300 2820.670410,285.598389 
	C2812.174561,302.140411 2810.555420,319.485870 2812.913818,337.594574 
	C2814.938965,353.143280 2821.043213,366.894806 2831.786621,378.111816 
	C2850.366455,397.510895 2873.936279,403.529694 2899.718018,399.703613 
	C2924.867188,395.971405 2944.158936,382.867645 2955.299561,359.267090 
	C2956.741943,356.211029 2958.704590,354.873474 2962.240723,354.925446 
	C2975.230225,355.116364 2988.228027,355.175201 3001.214600,354.901337 
	C3005.512939,354.810669 3008.597412,355.653992 3010.000000,360.000000 
	C3010.000000,362.041656 3010.000000,364.083344 3010.000000,366.562439 
z"/>
<path fill="#82bc0000" opacity="1.000000" stroke="none" 
	d="
M3010.000000,359.531342 
	C3008.597412,355.653992 3005.512939,354.810669 3001.214600,354.901337 
	C2988.228027,355.175201 2975.230225,355.116364 2962.240723,354.925446 
	C2958.704590,354.873474 2956.741943,356.211029 2955.299561,359.267090 
	C2944.158936,382.867645 2924.867188,395.971405 2899.718018,399.703613 
	C2873.936279,403.529694 2850.366455,397.510895 2831.786621,378.111816 
	C2821.043213,366.894806 2814.938965,353.143280 2812.913818,337.594574 
	C2810.555420,319.485870 2812.174561,302.140411 2820.670410,285.598389 
	C2830.803223,265.870300 2847.048584,254.125977 2868.157471,249.220535 
	C2888.097900,244.586578 2907.455566,246.842133 2925.652832,256.873322 
	C2937.560791,263.437317 2947.062012,272.431671 2953.114502,284.605194 
	C2956.085205,290.579773 2959.586914,293.590088 2966.781494,293.181122 
	C2978.569824,292.511017 2990.424316,292.962830 3002.250488,293.017426 
	C3006.206299,293.035675 3009.103760,291.944702 3009.679688,287.197388 
	C3010.000000,311.020905 3010.000000,335.041779 3010.000000,359.531342 
z"/>
<path fill="#82bc0000" opacity="1.000000" stroke="none" 
	d="
M1.000000,158.000000 
	C1.000000,105.724670 1.000000,53.449348 1.000000,1.000000 
	C80.020813,1.000000 159.041748,1.000000 238.525055,1.220773 
	C238.987427,1.441547 238.957977,1.882291 238.559433,1.924245 
	C237.043198,2.176890 235.793365,2.134163 234.828278,2.637462 
	C225.175217,7.671609 215.569016,12.795630 205.638367,18.055641 
	C195.868027,23.775896 186.408905,29.334820 176.599518,34.959270 
	C168.832932,39.405701 161.416626,43.786602 153.665131,48.241043 
	C147.541687,51.835091 141.753418,55.355606 135.611115,58.944901 
	C126.821281,63.973579 118.385468,68.933479 109.599060,73.958420 
	C99.799690,79.663139 90.350906,85.302818 80.551254,90.991699 
	C78.214516,92.146080 76.187538,93.184036 74.250206,94.368607 
	C67.466507,98.516411 60.713726,102.714783 53.593010,106.956467 
	C46.157581,111.068130 39.078339,115.117271 31.668489,119.246155 
	C22.822943,124.146591 14.982856,129.748276 9.341700,138.440399 
	C6.416588,145.156784 3.708294,151.578400 1.000000,158.000000 
z"/>
<path fill="#82bc0000" opacity="1.000000" stroke="none" 
	d="
M231.000000,570.000000 
	C154.421677,570.000000 77.843361,570.000000 1.000000,570.000000 
	C1.000000,520.312744 1.000000,470.625031 1.317844,420.673828 
	C3.906739,430.020172 7.391421,439.148621 15.226546,445.558594 
	C21.666527,450.827118 28.536428,455.672760 35.647346,459.996002 
	C48.248539,467.657135 61.177315,474.779449 74.165131,482.404449 
	C88.240417,490.732330 102.119591,498.782959 116.308853,506.999878 
	C123.064850,510.815247 129.510757,514.464355 136.124634,518.413696 
	C143.620514,523.023254 150.948425,527.332581 158.630432,531.815186 
	C170.622223,538.677612 182.259903,545.366760 194.100281,552.338013 
	C206.125107,559.279541 217.262924,567.383911 231.000000,570.000000 
z"/>
<path fill="#A694F5" opacity="1.000000" stroke="none" 
	d="
M73.969025,482.127228 
	C61.177315,474.779449 48.248539,467.657135 35.647346,459.996002 
	C28.536428,455.672760 21.666527,450.827118 15.226546,445.558594 
	C7.391421,439.148621 3.906739,430.020172 1.317844,420.205170 
	C1.000000,413.312347 1.000000,406.624725 1.317908,399.263489 
	C3.728864,388.863770 8.133687,380.399078 15.176246,373.298889 
	C24.270435,364.130219 36.055634,359.195496 46.971542,353.327484 
	C47.408901,357.233032 47.577652,360.745239 48.310463,364.135529 
	C56.814049,403.476746 65.402824,442.799561 73.969025,482.127228 
z"/>
<path fill="#899EF7" opacity="1.000000" stroke="none" 
	d="
M231.444168,570.000000 
	C217.262924,567.383911 206.125107,559.279541 194.328369,552.053955 
	C194.561081,548.455322 195.465515,545.277466 194.867706,542.413147 
	C189.064346,514.606323 182.910202,486.872620 177.156326,459.055969 
	C176.468597,455.731110 177.568085,452.036560 178.127213,448.676880 
	C193.289993,457.521088 208.164734,466.201782 222.882050,475.182495 
	C222.677826,478.393127 222.084564,481.418793 222.669449,484.196381 
	C228.007080,509.544159 233.621231,534.833740 238.941147,560.185181 
	C239.599564,563.322754 239.010818,566.721985 239.000000,570.000000 
	C236.629440,570.000000 234.258896,570.000000 231.444168,570.000000 
z"/>
<path fill="#A296F5" opacity="1.000000" stroke="none" 
	d="
M1.000000,158.468658 
	C3.708294,151.578400 6.416588,145.156784 9.494579,138.871063 
	C10.099441,139.803802 10.387843,140.589218 10.562175,141.399170 
	C22.000341,194.542023 33.485050,247.674942 44.813416,300.841217 
	C47.163811,311.872070 48.931046,323.027252 50.654152,333.962585 
	C42.615379,329.363403 34.889496,324.926819 27.379036,320.117615 
	C27.727915,316.833038 28.426077,313.813232 27.894310,311.028259 
	C25.894592,300.555420 23.520252,290.153442 21.238308,279.735382 
	C15.961495,255.644470 10.737960,231.541122 5.249448,207.498398 
	C4.636971,204.815384 2.454426,202.490799 1.000003,200.000000 
	C1.000000,186.312439 1.000000,172.624878 1.000000,158.468658 
z"/>
<path fill="#6CA8F9" opacity="1.000000" stroke="none" 
	d="
M238.957977,1.882291 
	C238.957977,1.882291 238.987427,1.441547 238.993713,1.220773 
	C247.687561,1.000000 256.375122,1.000000 265.531342,0.999999 
	C266.474701,1.945188 266.949371,2.890376 267.714050,4.433805 
	C268.462280,8.820152 268.633209,12.669423 269.424591,16.386606 
	C275.276642,43.874226 281.316254,71.322083 287.100037,98.823830 
	C287.750092,101.914841 287.172760,105.263985 286.877258,108.328529 
	C284.305298,106.888344 281.983948,105.674141 279.742828,104.326523 
	C272.466522,99.951111 265.219574,95.526855 257.839355,90.772751 
	C256.557312,86.618332 255.136078,82.870277 254.280258,78.997284 
	C249.331024,56.600262 244.460678,34.185295 239.715668,11.744251 
	C239.039536,8.546495 239.190048,5.173944 238.957977,1.882291 
z"/>
<path fill="#82A0F7" opacity="1.000000" stroke="none" 
	d="
M239.428467,570.000000 
	C239.010818,566.721985 239.599564,563.322754 238.941147,560.185181 
	C233.621231,534.833740 228.007080,509.544159 222.669449,484.196381 
	C222.084564,481.418793 222.677826,478.393127 223.194336,475.343964 
	C225.822830,476.366943 228.217712,477.235260 230.094681,478.746735 
	C235.084305,482.764740 239.871735,484.382324 245.361877,479.524475 
	C247.199966,477.898102 249.743698,477.069244 252.095444,476.223572 
	C253.326157,480.038208 254.696640,483.445099 255.482224,486.981873 
	C260.228485,508.350006 264.808044,529.755127 269.544281,551.125549 
	C270.072021,553.506592 271.236267,555.746521 272.105316,558.051941 
	C264.340576,564.449829 255.372391,568.012634 245.232056,569.680420 
	C243.285645,570.000000 241.571289,570.000000 239.428467,570.000000 
z"/>
<path fill="#82bc0000" opacity="1.000000" stroke="none" 
	d="
M27.163620,320.490234 
	C34.889496,324.926819 42.615379,329.363403 50.853531,334.240112 
	C55.464092,337.031891 59.562389,339.383575 64.286057,342.094147 
	C58.005661,346.004059 52.485310,349.440796 46.964958,352.877533 
	C36.055634,359.195496 24.270435,364.130219 15.176246,373.298889 
	C8.133687,380.399078 3.728864,388.863770 1.317908,398.794952 
	C1.000000,360.979095 1.000000,322.958221 1.322105,284.683594 
	C4.602605,300.376282 13.063360,312.428741 27.163620,320.490234 
z"/>
<path fill="#A694F5" opacity="1.000000" stroke="none" 
	d="
M27.379040,320.117615 
	C13.063360,312.428741 4.602605,300.376282 1.322105,284.214935 
	C1.000000,256.312439 1.000000,228.624878 1.000003,200.468658 
	C2.454426,202.490799 4.636971,204.815384 5.249448,207.498398 
	C10.737960,231.541122 15.961495,255.644470 21.238308,279.735382 
	C23.520252,290.153442 25.894592,300.555420 27.894310,311.028259 
	C28.426077,313.813232 27.727915,316.833038 27.379040,320.117615 
z"/>
<path fill="#000000" opacity="1.000000" stroke="none" 
	d="
M810.216553,140.749664 
	C830.658447,155.321915 843.063110,174.703751 847.972351,198.891525 
	C848.624023,202.101944 848.918396,205.433945 848.937378,208.712204 
	C848.966309,213.688705 845.900879,216.905807 841.017090,216.953476 
	C828.688232,217.073792 816.357239,217.035172 804.027527,216.973709 
	C799.194214,216.949615 796.116882,214.056686 795.148315,209.703827 
	C790.761108,189.987839 777.593201,179.291870 758.968445,174.560211 
	C741.166260,170.037552 723.469543,171.011597 706.853210,179.166199 
	C688.554626,188.146347 680.861206,204.214661 683.224915,224.190994 
	C684.273438,233.051651 690.002014,239.727295 697.751709,244.321121 
	C710.184570,251.690979 724.111694,254.408936 738.047913,256.976776 
	C760.192566,261.057129 782.648071,263.989471 803.781494,272.159027 
	C823.218811,279.672943 839.775879,291.074707 848.472290,311.041229 
	C855.555237,327.303436 857.175110,344.310577 855.268372,361.931549 
	C853.953735,374.080261 850.883850,385.473633 845.337463,396.337128 
	C834.915344,416.750397 818.260925,430.106873 797.606201,438.960236 
	C775.259277,448.539001 751.670288,451.217926 727.719849,449.855560 
	C700.974670,448.334290 675.553894,441.732513 654.225891,424.480804 
	C637.899597,411.274841 627.521057,394.054230 623.068420,373.437073 
	C622.168091,369.268219 621.213196,365.019470 621.123169,360.789734 
	C621.001160,355.054230 623.862854,352.086884 628.997131,352.043732 
	C642.325989,351.931824 655.656311,351.990051 668.986084,352.014832 
	C673.469604,352.023132 675.880188,354.563354 677.038818,358.695404 
	C679.037109,365.822418 681.126282,372.767456 686.068237,378.749054 
	C693.715210,388.004700 703.760010,393.234650 714.914307,395.680389 
	C733.397217,399.733002 752.026367,399.629669 770.103821,393.026367 
	C787.462891,386.685486 797.717102,374.331573 799.925110,355.856598 
	C801.766724,340.447510 792.176697,326.069641 775.465210,321.204254 
	C759.730469,316.623260 743.588684,313.339417 727.504395,310.086456 
	C708.301819,306.202881 689.135925,302.592041 671.156860,294.197327 
	C647.138611,282.982788 632.893921,264.609711 629.057983,238.468094 
	C626.303101,219.693619 626.910706,201.074707 633.898010,183.072830 
	C641.374878,163.809647 653.742554,148.602097 671.446411,137.873718 
	C690.998230,126.025513 712.296082,121.079521 735.102905,120.855965 
	C754.164551,120.669098 772.743164,122.424225 790.335938,130.072922 
	C797.105164,133.015930 803.422241,136.998978 810.216553,140.749664 
z"/>
<path fill="#000000" opacity="1.000000" stroke="none" 
	d="
M1703.000000,176.000000 
	C1703.000000,196.208221 1703.000000,215.916458 1703.000000,235.624680 
	C1703.389404,235.709244 1703.778931,235.793823 1704.168335,235.878387 
	C1706.742432,232.787689 1709.320801,229.700531 1711.889771,226.605682 
	C1726.135132,209.444733 1744.983521,200.182037 1766.616577,198.331467 
	C1796.448730,195.779510 1824.424194,201.841415 1848.255493,221.678406 
	C1869.128174,239.052658 1880.035400,261.825439 1883.839600,288.058411 
	C1885.896362,302.241882 1886.678345,316.698425 1886.864990,331.047028 
	C1887.292114,363.866577 1887.005249,396.695526 1886.996460,429.520660 
	C1886.993774,439.602295 1882.606201,443.983582 1872.531982,443.997253 
	C1863.867432,444.009033 1855.190796,443.715057 1846.542236,444.086609 
	C1839.274170,444.398895 1833.744751,438.609283 1833.819458,431.592224 
	C1834.207275,395.105438 1834.269531,358.609253 1833.848267,322.123199 
	C1833.708252,309.996399 1832.465454,297.876678 1828.221924,286.158386 
	C1820.164429,263.907135 1801.783081,250.655396 1778.690063,247.825043 
	C1764.814331,246.124390 1751.506470,247.412247 1739.057373,253.158310 
	C1719.593506,262.142090 1709.000977,278.460602 1705.159424,299.096313 
	C1703.627319,307.326416 1703.142700,315.846954 1703.091919,324.240784 
	C1702.875610,360.063873 1702.825562,395.890533 1703.138672,431.712189 
	C1703.205688,439.379150 1698.291504,443.600281 1691.181274,443.890076 
	C1681.366821,444.290100 1671.518799,444.178894 1661.694458,443.926147 
	C1654.264771,443.734955 1650.009521,438.962128 1650.008789,431.427063 
	C1649.997070,324.787018 1649.997314,218.146957 1650.009033,111.506912 
	C1650.009766,104.273003 1654.215820,100.036163 1661.379028,100.010170 
	C1671.376465,99.973892 1681.374146,99.978752 1691.371582,100.007889 
	C1699.067993,100.030327 1702.980225,103.885254 1702.989868,111.516174 
	C1703.016968,132.844086 1702.999756,154.172058 1703.000000,176.000000 
z"/>
<path fill="#000000" opacity="1.000000" stroke="none" 
	d="
M1966.766235,226.736298 
	C1983.500122,212.813004 2002.582886,204.576569 2023.380005,200.433441 
	C2038.710327,197.379440 2054.229980,197.287079 2069.849609,198.852905 
	C2087.502930,200.622543 2104.087158,205.374374 2119.635986,213.883911 
	C2143.146484,226.750458 2159.704346,245.844162 2169.941406,270.436310 
	C2177.397949,288.348572 2180.336426,307.062866 2180.114502,326.519989 
	C2179.711182,361.847748 2179.835938,397.184784 2180.125244,432.514771 
	C2180.190430,440.482819 2175.016113,443.791077 2168.918213,443.939941 
	C2160.256836,444.151337 2151.580566,444.191254 2142.922363,443.924072 
	C2136.989014,443.740997 2131.523682,440.680206 2131.891357,432.350616 
	C2132.344971,422.068878 2132.000000,411.751862 2132.000000,399.960480 
	C2130.172363,401.552124 2129.065918,402.107971 2128.575928,403.001770 
	C2113.998047,429.601379 2090.992188,444.474457 2061.614258,448.720367 
	C2027.284180,453.682037 1995.670288,445.735901 1967.935669,424.388855 
	C1943.549805,405.619110 1930.081909,380.211365 1925.187378,350.325500 
	C1921.244141,326.247437 1922.856201,302.298859 1930.935059,279.071899 
	C1937.044922,261.506317 1946.754272,246.098846 1959.753296,232.800781 
	C1961.822754,230.683792 1964.251221,228.917908 1966.766235,226.736298 
M2082.578369,252.877914 
	C2069.402832,247.955383 2056.014893,245.999084 2041.847900,247.852081 
	C2012.976562,251.628357 1993.089722,266.961517 1982.379517,293.637909 
	C1975.840820,309.923889 1975.128540,327.171173 1979.281738,344.259003 
	C1983.421021,361.290497 1992.090088,375.718994 2006.498047,386.165985 
	C2025.518677,399.957642 2046.787842,403.415588 2069.477783,398.886505 
	C2085.151855,395.757874 2098.968262,388.542633 2109.111816,376.135864 
	C2127.010010,354.244110 2130.784912,328.896271 2124.377197,301.936829 
	C2118.917969,278.967773 2105.057129,262.613556 2082.578369,252.877914 
z"/>
<path fill="#5BAEFA" opacity="1.000000" stroke="none" 
	d="
M339.998779,45.165474 
	C353.612122,52.929104 367.272156,60.612167 380.827606,68.475601 
	C400.243591,79.738716 419.610596,91.087036 438.943756,102.491806 
	C448.602081,108.189308 458.537598,113.535515 467.631134,120.042152 
	C479.342499,128.421906 485.320038,140.400558 487.117554,154.817993 
	C489.089844,170.637390 484.545776,184.433746 474.187073,195.802383 
	C468.775299,201.741852 461.220856,205.870987 454.262634,210.223953 
	C445.311829,215.823486 435.982666,220.817490 426.836700,226.107361 
	C426.170746,226.492523 425.669373,227.162170 424.382507,228.358795 
	C428.037598,230.684006 431.245636,232.831192 434.554291,234.810028 
	C445.175110,241.162064 456.225342,246.884827 466.379028,253.907150 
	C479.491760,262.975952 486.784668,276.039398 486.908539,292.134338 
	C487.195709,329.444183 487.063232,366.757874 486.972809,404.069702 
	C486.929138,422.085541 479.428253,436.509277 464.292267,446.198120 
	C451.105011,454.639496 437.286621,462.094879 423.515167,469.691223 
	C423.704742,466.148773 425.025452,462.716949 424.404236,459.682709 
	C419.797577,437.182709 414.901520,414.739624 409.772308,392.352936 
	C409.299438,390.288910 406.567932,388.742401 405.085114,386.583740 
	C405.484985,385.764465 405.858765,385.317444 405.859924,384.869476 
	C405.920776,361.540710 405.989349,338.211700 405.873779,314.883606 
	C405.867584,313.634308 404.562256,311.929199 403.388428,311.223267 
	C396.031494,306.798920 388.540161,302.598145 381.522705,298.253296 
	C387.986908,297.383209 386.581299,293.239899 385.772552,289.492218 
	C377.915497,253.082626 370.097809,216.664062 361.995605,180.308960 
	C361.391174,177.596710 358.680176,175.353943 357.118591,172.595306 
	C363.450165,168.621399 369.611603,164.945129 376.243134,160.988373 
	C370.167114,157.157211 364.526001,153.600250 359.110504,149.767487 
	C359.547180,146.781479 360.401123,143.937424 359.868927,141.382019 
	C355.019958,118.098633 349.861206,94.879967 344.944794,71.610321 
	C343.091492,62.838608 341.635742,53.982895 339.998779,45.165474 
z"/>
<path fill="#000000" opacity="1.000000" stroke="none" 
	d="
M1090.681152,248.660431 
	C1108.170166,224.001770 1132.016846,209.574631 1160.519653,201.996399 
	C1176.590210,197.723602 1193.002075,196.975815 1209.328003,198.197739 
	C1235.838379,200.181946 1260.317383,208.855576 1281.042969,225.799561 
	C1303.655640,244.286346 1317.775757,268.316406 1322.900513,297.159790 
	C1327.121826,320.918518 1326.722900,344.732239 1318.546143,367.633606 
	C1303.635376,409.395782 1273.975708,435.223694 1231.077637,445.983551 
	C1216.687866,449.592834 1201.986328,450.953094 1187.263184,449.880554 
	C1159.049072,447.825073 1132.793945,439.588318 1110.848389,421.120209 
	C1089.007324,402.740112 1075.078979,379.188538 1070.141235,350.978821 
	C1065.690796,325.553925 1066.307617,300.160431 1076.122192,275.882843 
	C1079.912476,266.507172 1085.634399,257.912354 1090.681152,248.660431 
M1209.921631,399.553650 
	C1214.237793,398.559753 1218.716187,398.009491 1222.844238,396.500732 
	C1252.119507,385.800873 1267.322144,363.822815 1270.769165,333.738251 
	C1272.851929,315.561310 1269.946289,297.794281 1260.295166,281.624725 
	C1253.039429,269.468292 1243.107666,260.092041 1230.337280,254.343536 
	C1216.147583,247.956146 1201.199585,245.488220 1185.460571,247.882156 
	C1167.391357,250.630524 1151.942627,257.605347 1139.722778,271.635742 
	C1127.059326,286.175598 1121.925903,303.315979 1121.065308,322.031830 
	C1120.536621,333.535431 1122.744873,344.768646 1127.064087,355.388763 
	C1135.586914,376.345520 1150.648682,390.364441 1172.454224,397.078400 
	C1184.505127,400.788910 1196.675171,401.601532 1209.921631,399.553650 
z"/>
<path fill="#000000" opacity="1.000000" stroke="none" 
	d="
M1356.299561,290.430450 
	C1361.427856,270.919403 1370.090088,253.850876 1383.372559,239.003159 
	C1403.004272,217.057770 1427.589478,204.715103 1456.295654,199.979385 
	C1483.416870,195.505157 1509.956421,197.501984 1535.535522,208.039932 
	C1559.322144,217.839539 1578.277100,233.529861 1591.254883,255.852005 
	C1595.530640,263.206482 1598.897339,271.162933 1601.986816,279.113403 
	C1605.174194,287.316132 1600.956543,292.968628 1592.313110,292.992249 
	C1581.483887,293.021820 1570.650391,292.823181 1559.826782,293.073975 
	C1554.427246,293.199127 1551.022705,290.712219 1548.710449,286.286102 
	C1536.652100,263.204407 1517.229736,251.336243 1491.783447,247.867172 
	C1472.236206,245.202316 1454.284668,249.214508 1437.956055,259.750824 
	C1421.780884,270.188324 1412.462158,285.886749 1408.222046,304.272614 
	C1403.510010,324.704987 1405.767334,344.708740 1415.797119,363.332001 
	C1424.990601,380.402832 1439.147583,391.480347 1457.818115,397.175507 
	C1474.502441,402.264801 1491.090576,402.071136 1507.354492,396.631348 
	C1524.965820,390.740875 1539.200073,379.997925 1547.868774,363.109650 
	C1550.826294,357.348114 1554.331177,354.395325 1561.306519,354.830505 
	C1571.761841,355.482819 1582.288330,354.963440 1592.784302,355.013611 
	C1600.585327,355.050903 1604.428345,360.446289 1602.104248,367.906311 
	C1596.292969,386.560089 1586.359985,402.755005 1572.233765,416.159637 
	C1553.500977,433.935547 1531.008789,444.352264 1505.505005,447.899872 
	C1495.875000,449.239441 1486.047485,450.144989 1476.353149,449.846832 
	C1448.379272,448.986542 1422.319702,441.453156 1399.866211,424.199921 
	C1374.204224,404.481323 1359.131714,378.111359 1354.176636,346.281860 
	C1351.298218,327.792328 1351.977905,309.180634 1356.299561,290.430450 
z"/>
<path fill="#000000" opacity="1.000000" stroke="none" 
	d="
M2418.000000,369.982086 
	C2417.883057,392.045959 2410.365234,410.529541 2394.310791,425.082672 
	C2381.292236,436.883728 2365.733398,444.130157 2348.480713,446.824310 
	C2336.285645,448.728638 2323.811768,450.054779 2311.504639,449.777039 
	C2286.982910,449.223694 2263.740723,443.222412 2244.232910,427.467102 
	C2229.411133,415.496460 2220.590820,399.676758 2218.064209,380.646606 
	C2217.237793,374.421600 2218.744141,373.011444 2225.128662,373.004517 
	C2237.626709,372.990997 2250.125977,373.112976 2262.621826,372.942322 
	C2267.209473,372.879700 2270.310303,374.601227 2271.931885,378.820953 
	C2278.577393,396.111542 2293.232178,400.107574 2309.501221,402.118469 
	C2319.698486,403.378815 2329.608398,402.400543 2339.312988,399.836945 
	C2347.119385,397.774811 2354.614502,394.592041 2359.390381,387.271637 
	C2369.317139,372.056946 2364.012695,357.947754 2346.522949,353.305084 
	C2332.924316,349.695374 2318.745361,348.223969 2304.789551,346.020294 
	C2284.096436,342.752777 2263.280029,339.784302 2245.624756,327.216919 
	C2231.965576,317.494202 2224.784180,304.078949 2222.843018,287.292877 
	C2221.102295,272.242737 2223.134521,257.964081 2229.364990,244.416779 
	C2240.012207,221.265381 2259.393799,208.744614 2283.125977,202.010727 
	C2298.125732,197.754684 2313.570312,197.054337 2328.932373,198.167740 
	C2347.703613,199.528244 2365.486816,204.581955 2381.268555,215.566132 
	C2396.615234,226.247421 2406.336426,240.641312 2410.727051,258.665833 
	C2412.414795,265.595520 2408.680176,273.852081 2399.386230,273.171631 
	C2389.109863,272.419189 2378.733887,272.890808 2368.404785,273.049225 
	C2363.904297,273.118225 2360.231689,271.582184 2358.867920,267.399902 
	C2352.695068,248.467010 2326.289307,243.103943 2310.272705,245.675354 
	C2302.348389,246.947571 2294.741943,248.409256 2288.011230,252.992111 
	C2278.614502,259.390167 2274.287354,269.538391 2277.056641,279.948303 
	C2279.292480,288.353394 2286.460205,291.918488 2293.793701,293.841583 
	C2304.249023,296.583252 2315.009521,298.260101 2325.709229,299.949799 
	C2346.665771,303.259155 2367.938477,305.224915 2387.090576,315.562439 
	C2404.151611,324.771423 2415.111328,338.301758 2417.031738,358.160278 
	C2417.396973,361.935669 2417.679199,365.719055 2418.000000,369.982086 
z"/>
<path fill="#000000" opacity="1.000000" stroke="none" 
	d="
M935.214966,414.741211 
	C928.969055,404.539612 925.605103,393.716614 925.072693,382.201019 
	C924.413147,367.937347 924.094055,353.647736 924.045593,339.367950 
	C923.913086,300.374878 924.000000,261.381012 924.000000,222.387466 
	C924.000000,220.231995 924.000000,218.076508 924.000000,215.307953 
	C921.980530,215.195557 920.229980,215.021149 918.478821,215.013962 
	C910.813538,214.982544 903.147949,215.025192 895.482727,214.991547 
	C888.354858,214.960281 884.256531,211.319946 884.068298,204.282639 
	C883.832214,195.457108 883.841248,186.616241 884.063538,177.790009 
	C884.241821,170.711060 888.302246,167.037796 895.409912,167.009979 
	C904.704102,166.973587 913.998657,167.001053 923.741272,167.001053 
	C923.841919,164.735199 923.987488,162.960220 923.989319,161.185104 
	C924.006836,144.021301 923.986023,126.857460 924.007263,109.693657 
	C924.016296,102.400299 927.369568,99.025955 934.613281,99.007706 
	C945.278137,98.980843 955.943176,98.978409 966.608032,99.009903 
	C972.647034,99.027740 975.982117,102.387352 975.990601,108.473297 
	C976.014709,125.803726 975.999695,143.134216 976.000122,160.464676 
	C976.000183,162.425247 976.000122,164.385818 976.000122,166.732880 
	C978.313171,166.837921 980.093201,166.986969 981.873352,166.988968 
	C998.203979,167.007294 1014.534607,166.990189 1030.865234,167.004547 
	C1039.154541,167.011826 1042.914429,170.717133 1042.983398,179.063461 
	C1043.050903,187.228210 1043.096680,195.395569 1042.966675,203.558823 
	C1042.844604,211.219284 1038.902466,214.982605 1031.242432,214.992844 
	C1014.911804,215.014664 998.581177,215.000000 982.250549,215.000259 
	C980.441345,215.000290 978.632202,215.000275 976.292603,215.000275 
	C976.182373,217.133942 976.012512,218.896057 976.012024,220.658203 
	C975.997742,269.816742 975.828674,318.976166 976.089478,368.133331 
	C976.186890,386.503235 987.523926,396.972382 1005.215881,398.835541 
	C1016.570129,400.031311 1028.087646,399.711609 1039.534058,399.983643 
	C1046.193115,400.141907 1048.956665,402.729462 1048.989136,409.264496 
	C1049.029541,417.429596 1049.007324,425.595062 1048.997070,433.760376 
	C1048.989136,440.045502 1045.808594,443.910675 1039.529297,443.903381 
	C1018.324768,443.878815 996.952148,445.641296 976.052246,440.860992 
	C959.638306,437.106720 944.822937,430.166290 935.214966,414.741211 
z"/>
<path fill="#000000" opacity="1.000000" stroke="none" 
	d="
M2598.709961,400.000366 
	C2605.583008,400.162598 2606.984863,401.581055 2606.995361,408.022522 
	C2607.011230,417.688995 2606.848633,427.358917 2607.064697,437.020569 
	C2607.165039,441.511475 2604.823242,443.891144 2600.973145,443.869324 
	C2577.137695,443.734406 2553.044434,446.182220 2529.668701,439.851166 
	C2503.922119,432.877960 2488.994141,417.771149 2484.140625,390.817413 
	C2482.656250,382.572784 2482.123291,374.060150 2482.090576,365.666595 
	C2481.903809,317.834717 2482.000000,270.001709 2482.000000,222.169098 
	C2482.000000,220.033752 2482.000000,217.898407 2482.000000,215.000000 
	C2477.789795,215.000000 2474.024414,215.000305 2470.258789,214.999939 
	C2463.092285,214.999252 2455.921143,214.846085 2448.760498,215.052032 
	C2444.184814,215.183640 2442.197021,212.547989 2442.113037,208.751953 
	C2441.858154,197.257889 2441.864014,185.751266 2442.103027,174.256516 
	C2442.190430,170.068604 2444.573242,167.829086 2449.251709,167.929459 
	C2459.889893,168.157745 2470.536377,168.001434 2482.000000,168.001434 
	C2482.000000,165.681824 2482.000000,163.760757 2482.000000,161.839691 
	C2482.000244,143.839951 2481.987793,125.840202 2482.006836,107.840492 
	C2482.014160,100.812927 2482.818848,100.006691 2489.615234,100.002495 
	C2501.948486,99.994881 2514.281494,99.979370 2526.614746,100.010544 
	C2532.565186,100.025589 2533.978271,101.411728 2533.987793,107.298233 
	C2534.017090,125.297920 2533.999756,143.297684 2534.000000,161.297409 
	C2534.000244,163.269073 2534.000000,165.240738 2534.000000,167.999725 
	C2536.356445,167.999725 2538.282227,167.999680 2540.208008,167.999741 
	C2557.707764,168.000275 2575.207275,167.982117 2592.707031,168.011856 
	C2598.589355,168.021851 2599.972900,169.436142 2599.989746,175.390717 
	C2600.021240,186.557129 2599.883789,197.725418 2600.053955,208.889328 
	C2600.123047,213.422882 2598.297119,215.087738 2593.822266,215.053650 
	C2576.156738,214.919144 2558.489990,214.999496 2540.823486,215.000107 
	C2538.840576,215.000183 2536.857666,215.000107 2534.000000,215.000107 
	C2534.000000,217.424896 2534.000000,219.505981 2534.000000,221.587051 
	C2534.000000,270.419647 2534.111572,319.252655 2533.938721,368.084656 
	C2533.878906,384.976105 2545.499023,397.513641 2561.919922,398.869232 
	C2573.977295,399.864655 2586.133301,399.666443 2598.709961,400.000366 
z"/>
<path fill="#000000" opacity="1.000000" stroke="none" 
	d="
M2703.637451,204.001114 
	C2710.696289,204.467041 2712.996094,206.811142 2712.996582,213.160812 
	C2713.001465,287.112274 2713.001465,361.063751 2712.995361,435.015198 
	C2712.994873,441.168213 2710.207764,443.960663 2703.918701,443.985352 
	C2692.260010,444.031128 2680.600342,444.034485 2668.941650,443.983337 
	C2662.939697,443.957001 2660.021729,441.131256 2660.019531,435.217804 
	C2659.993164,360.766693 2659.995605,286.315552 2660.015869,211.864426 
	C2660.017334,206.877350 2663.141357,204.051117 2668.702637,204.021133 
	C2680.194824,203.959183 2691.687744,204.001221 2703.637451,204.001114 
z"/>
<path fill="#000000" opacity="1.000000" stroke="none" 
	d="
M2651.263672,139.443146 
	C2650.441162,124.294617 2654.883545,111.557938 2667.913574,103.847321 
	C2688.967773,91.388229 2716.266846,102.067902 2722.004150,127.735107 
	C2726.490967,147.807098 2713.033447,165.268219 2699.362549,169.368820 
	C2680.194336,175.118469 2662.231201,167.858505 2654.204346,150.267441 
	C2652.733887,147.045319 2652.314209,143.343765 2651.263672,139.443146 
z"/>
<path fill="#68A9F9" opacity="1.000000" stroke="none" 
	d="
M287.164612,108.493423 
	C287.172760,105.263985 287.750092,101.914841 287.100037,98.823830 
	C281.316254,71.322083 275.276642,43.874226 269.424591,16.386606 
	C268.633209,12.669423 268.462280,8.820152 268.001587,4.599315 
	C268.173035,4.143178 268.346985,4.119771 268.958679,4.270374 
	C269.635162,4.626352 269.879120,4.801004 270.128326,4.968338 
	C281.630737,11.423480 293.133118,17.878626 304.928741,24.985756 
	C311.385773,53.781193 317.587006,81.916534 323.687927,110.073624 
	C325.272339,117.385986 326.543213,124.766289 327.607178,132.046906 
	C313.892365,124.150108 300.528473,116.321770 287.164612,108.493423 
z"/>
<path fill="#6EA7F9" opacity="1.000000" stroke="none" 
	d="
M367.045532,503.112488 
	C355.727905,509.691833 344.410278,516.271118 332.667786,522.376099 
	C331.865112,518.771484 331.720764,515.591980 331.071899,512.518982 
	C326.677917,491.709381 322.249359,470.906342 317.641022,450.143555 
	C316.863983,446.642548 315.162445,443.346771 314.093445,439.675171 
	C326.534607,432.318176 338.770386,425.242188 351.027954,418.575745 
	C351.523163,421.939789 351.865631,424.922333 352.491028,427.844299 
	C357.157379,449.646515 361.944275,471.423218 366.513245,493.245636 
	C367.180389,496.432037 366.891876,499.818573 367.045532,503.112488 
z"/>
<path fill="#77A4F8" opacity="1.000000" stroke="none" 
	d="
M313.888031,439.956177 
	C315.162445,443.346771 316.863983,446.642548 317.641022,450.143555 
	C322.249359,470.906342 326.677917,491.709381 331.071899,512.518982 
	C331.720764,515.591980 331.865112,518.771484 332.282745,522.403198 
	C325.639984,527.045776 318.982086,531.227539 312.265228,535.312317 
	C308.476929,537.616150 304.591614,539.760437 300.207703,541.738159 
	C298.493683,538.410583 296.925781,535.409668 296.214600,532.217957 
	C291.616669,511.582733 287.312286,490.881622 282.627563,470.266632 
	C281.852905,466.857727 279.682465,463.765991 278.460022,460.324219 
	C290.471375,453.399231 302.179688,446.677704 313.888031,439.956177 
z"/>
<path fill="#62ABFA" opacity="1.000000" stroke="none" 
	d="
M327.958099,132.115387 
	C326.543213,124.766289 325.272339,117.385986 323.687927,110.073624 
	C317.587006,81.916534 311.385773,53.781193 305.130066,25.258827 
	C314.306458,30.153091 323.585358,35.407742 332.835358,40.712830 
	C335.068939,41.993809 337.206787,43.441586 339.693726,44.989059 
	C341.635742,53.982895 343.091492,62.838608 344.944794,71.610321 
	C349.861206,94.879967 355.019958,118.098633 359.868927,141.382019 
	C360.401123,143.937424 359.547180,146.781479 358.758362,149.724640 
	C348.106445,144.010208 338.032288,138.062805 327.958099,132.115387 
z"/>
<path fill="#63ABF9" opacity="1.000000" stroke="none" 
	d="
M404.885162,386.955597 
	C406.567932,388.742401 409.299438,390.288910 409.772308,392.352936 
	C414.901520,414.739624 419.797577,437.182709 424.404236,459.682709 
	C425.025452,462.716949 423.704742,466.148773 423.159485,469.760681 
	C415.800323,474.515625 408.574585,478.922424 401.324249,483.288361 
	C398.804688,484.805603 396.224182,486.221680 393.323486,487.343018 
	C392.731689,485.031677 392.637695,483.028961 392.221130,481.095795 
	C387.682465,460.032043 383.185822,438.958313 378.443604,417.940125 
	C377.436279,413.475525 375.483490,409.224243 374.170380,404.601807 
	C384.544678,398.537811 394.714935,392.746704 404.885162,386.955597 
z"/>
<path fill="#7FA2F8" opacity="1.000000" stroke="none" 
	d="
M278.157043,460.527679 
	C279.682465,463.765991 281.852905,466.857727 282.627563,470.266632 
	C287.312286,490.881622 291.616669,511.582733 296.214600,532.217957 
	C296.925781,535.409668 298.493683,538.410583 299.857178,541.803101 
	C290.970764,547.391113 281.892517,552.675781 272.459808,558.006226 
	C271.236267,555.746521 270.072021,553.506592 269.544281,551.125549 
	C264.808044,529.755127 260.228485,508.350006 255.482224,486.981873 
	C254.696640,483.445099 253.326157,480.038208 252.298920,475.949463 
	C260.966919,470.394318 269.561981,465.460999 278.157043,460.527679 
z"/>
<path fill="#68A9F9" opacity="1.000000" stroke="none" 
	d="
M373.966309,404.874695 
	C375.483490,409.224243 377.436279,413.475525 378.443604,417.940125 
	C383.185822,438.958313 387.682465,460.032043 392.221130,481.095795 
	C392.637695,483.028961 392.731689,485.031677 392.986511,487.417786 
	C386.274933,491.870728 379.552399,495.907959 372.294006,500.115448 
	C371.510071,500.461945 371.266815,500.644592 371.028320,500.833618 
	C369.896667,501.493835 368.765015,502.154053 367.339447,502.963379 
	C366.891876,499.818573 367.180389,496.432037 366.513245,493.245636 
	C361.944275,471.423218 357.157379,449.646515 352.491028,427.844299 
	C351.865631,424.922333 351.523163,421.939789 351.336304,418.408020 
	C359.070679,413.512024 366.518494,409.193359 373.966309,404.874695 
z"/>
<path fill="#6CA8F9" opacity="1.000000" stroke="none" 
	d="
M270.012207,4.753881 
	C269.879120,4.801004 269.635162,4.626352 269.219666,4.305029 
	C269.404968,4.112937 269.689362,4.237519 270.012207,4.753881 
z"/>
<path fill="#6EA7F9" opacity="1.000000" stroke="none" 
	d="
M371.274139,500.807495 
	C371.266815,500.644592 371.510071,500.461945 371.945862,500.155884 
	C372.019562,500.351379 371.815033,500.603180 371.274139,500.807495 
z"/>
<path fill="#9E97F6" opacity="1.000000" stroke="none" 
	d="
M46.971542,353.327484 
	C52.485310,349.440796 58.005661,346.004059 64.286057,342.094147 
	C59.562389,339.383575 55.464092,337.031891 51.166420,334.402649 
	C48.931046,323.027252 47.163811,311.872070 44.813416,300.841217 
	C33.485050,247.674942 22.000341,194.542023 10.562175,141.399170 
	C10.387843,140.589218 10.099441,139.803802 9.711396,138.576279 
	C14.982856,129.748276 22.822943,124.146591 31.733105,119.627678 
	C40.597668,159.012894 49.081116,198.093262 57.533226,237.180405 
	C72.394913,305.908875 87.222816,374.644684 102.096703,443.370514 
	C106.677483,464.536377 111.361839,485.679871 115.998764,506.833588 
	C102.119591,498.782959 88.240417,490.732330 74.165131,482.404449 
	C65.402824,442.799561 56.814049,403.476746 48.310463,364.135529 
	C47.577652,360.745239 47.408901,357.233032 46.971542,353.327484 
z"/>
<path fill="#9899F6" opacity="1.000000" stroke="none" 
	d="
M116.308861,506.999878 
	C111.361839,485.679871 106.677483,464.536377 102.096703,443.370514 
	C87.222816,374.644684 72.394913,305.908875 57.533226,237.180405 
	C49.081116,198.093262 40.597668,159.012894 32.063713,119.547943 
	C39.078339,115.117271 46.157581,111.068130 53.779369,107.269257 
	C55.279251,110.163696 56.549561,112.739304 57.146175,115.462502 
	C64.163765,147.493851 71.031006,179.558212 78.106178,211.576691 
	C78.755714,214.516174 80.563484,217.199692 81.890366,220.467606 
	C81.964424,231.024841 82.229576,241.124969 81.887192,251.204468 
	C81.731232,255.795715 82.566856,259.196075 86.893089,261.221375 
	C86.537804,264.031342 85.836739,266.694489 86.349068,269.099152 
	C95.594315,312.492340 104.966591,355.858521 114.399193,399.211456 
	C114.913193,401.573883 116.192551,403.769806 116.917343,406.324188 
	C115.130486,407.580109 113.541931,408.555054 111.667534,409.705444 
	C114.923241,411.730255 117.523949,413.347717 119.839600,415.132874 
	C118.990639,417.064392 117.980774,418.826447 117.973946,420.592346 
	C117.965118,422.880463 118.714607,425.180603 119.208511,427.460205 
	C124.960121,454.006836 130.827057,480.529327 136.362671,507.120850 
	C137.088165,510.605835 136.133270,514.440613 135.956665,518.113403 
	C129.510757,514.464355 123.064850,510.815247 116.308861,506.999878 
z"/>
<path fill="#72A6F8" opacity="1.000000" stroke="none" 
	d="
M238.559433,1.924245 
	C239.190048,5.173944 239.039536,8.546495 239.715668,11.744251 
	C244.460678,34.185295 249.331024,56.600262 254.280258,78.997284 
	C255.136078,82.870277 256.557312,86.618332 257.486206,90.705231 
	C252.723602,87.732811 248.388107,86.651047 243.195358,90.282875 
	C237.465485,94.290359 231.169083,97.487823 224.974991,100.663223 
	C219.924118,76.883392 215.092194,53.462364 210.042023,30.088495 
	C209.142120,25.923468 207.336838,21.954056 205.949615,17.894316 
	C215.569016,12.795630 225.175217,7.671609 234.828278,2.637462 
	C235.793365,2.134163 237.043198,2.176890 238.559433,1.924245 
z"/>
<path fill="#939BF6" opacity="1.000000" stroke="none" 
	d="
M81.833420,220.002075 
	C80.563484,217.199692 78.755714,214.516174 78.106178,211.576691 
	C71.031006,179.558212 64.163765,147.493851 57.146175,115.462502 
	C56.549561,112.739304 55.279251,110.163696 54.135559,107.206741 
	C60.713726,102.714783 67.466507,98.516411 74.250206,94.368607 
	C76.187538,93.184036 78.214516,92.146080 80.757629,91.291580 
	C82.359123,94.670776 83.695702,97.735031 84.399689,100.938316 
	C88.636795,120.217911 92.660446,139.544495 96.917351,158.819595 
	C97.985252,163.655014 99.646187,168.359451 100.835167,173.398407 
	C95.541748,176.724014 90.566582,180.004776 85.303841,182.730255 
	C82.650192,184.104553 81.928299,185.735794 81.948982,188.515656 
	C82.027054,199.010269 81.889961,209.506470 81.833420,220.002075 
z"/>
<path fill="#8D9DF7" opacity="1.000000" stroke="none" 
	d="
M101.034569,173.124084 
	C99.646187,168.359451 97.985252,163.655014 96.917351,158.819595 
	C92.660446,139.544495 88.636795,120.217911 84.399689,100.938316 
	C83.695702,97.735031 82.359123,94.670776 81.108505,91.242386 
	C90.350906,85.302818 99.799690,79.663139 109.722061,74.332428 
	C115.456772,98.887611 120.772598,123.122208 125.921768,147.392166 
	C126.721199,151.160172 128.304245,153.881226 131.834198,155.397949 
	C128.537827,157.491638 125.464218,159.350800 122.341278,161.123001 
	C115.251930,165.146072 108.138313,169.126389 101.034569,173.124084 
z"/>
<path fill="#79A4F8" opacity="1.000000" stroke="none" 
	d="
M205.638367,18.055645 
	C207.336838,21.954056 209.142120,25.923468 210.042023,30.088495 
	C215.092194,53.462364 219.924118,76.883392 224.767181,100.945755 
	C222.567551,102.793419 220.427826,103.977570 218.295563,105.174988 
	C211.207123,109.155655 204.121338,113.141075 196.970245,116.720139 
	C191.690186,91.922386 186.556076,67.511040 181.151489,43.159721 
	C180.502914,40.237495 178.386093,37.641140 176.949799,34.893745 
	C186.408905,29.334820 195.868027,23.775896 205.638367,18.055645 
z"/>
<path fill="#7FA2F8" opacity="1.000000" stroke="none" 
	d="
M176.599518,34.959267 
	C178.386093,37.641140 180.502914,40.237495 181.151489,43.159721 
	C186.556076,67.511040 191.690186,91.922386 196.768738,116.993126 
	C188.419464,122.391312 180.207413,127.111984 171.990417,131.408447 
	C169.281494,117.287407 166.781494,103.546257 163.816833,89.906105 
	C160.781708,75.941711 157.291397,62.076263 154.000320,48.167503 
	C161.416626,43.786602 168.832932,39.405701 176.599518,34.959267 
z"/>
<path fill="#889FF7" opacity="1.000000" stroke="none" 
	d="
M132.034576,155.123932 
	C128.304245,153.881226 126.721199,151.160172 125.921768,147.392166 
	C120.772598,123.122208 115.456772,98.887611 110.072647,74.267395 
	C118.385468,68.933479 126.821281,63.973579 135.490768,59.299515 
	C135.504211,62.993206 134.526199,66.555984 135.186081,69.783920 
	C139.648926,91.614311 144.384003,113.390472 149.246811,135.135925 
	C149.873810,137.939758 151.743103,140.465775 152.832230,143.396118 
	C145.763214,147.489151 138.898895,151.306549 132.034576,155.123932 
z"/>
<path fill="#84A0F7" opacity="1.000000" stroke="none" 
	d="
M153.036942,143.120483 
	C151.743103,140.465775 149.873810,137.939758 149.246811,135.135925 
	C144.384003,113.390472 139.648926,91.614311 135.186081,69.783920 
	C134.526199,66.555984 135.504211,62.993206 135.844788,59.230736 
	C141.753418,55.355606 147.541687,51.835091 153.665131,48.241039 
	C157.291397,62.076263 160.781708,75.941711 163.816833,89.906105 
	C166.781494,103.546257 169.281494,117.287407 171.687759,131.582611 
	C165.272354,135.827499 159.154648,139.473999 153.036942,143.120483 
z"/>
<path fill="#919BF6" opacity="1.000000" stroke="none" 
	d="
M177.839172,448.513367 
	C177.568085,452.036560 176.468597,455.731110 177.156326,459.055969 
	C182.910202,486.872620 189.064346,514.606323 194.867706,542.413147 
	C195.465515,545.277466 194.561081,548.455322 194.125656,551.771790 
	C182.259903,545.366760 170.622223,538.677612 159.041199,531.659424 
	C163.126984,529.861084 162.127243,526.801208 161.496155,523.828003 
	C154.657455,491.608521 147.827927,459.387146 141.331635,427.249542 
	C153.724640,434.392975 165.781906,441.453156 177.839172,448.513367 
z"/>
<path fill="#959AF6" opacity="1.000000" stroke="none" 
	d="
M140.995895,427.166290 
	C147.827927,459.387146 154.657455,491.608521 161.496155,523.828003 
	C162.127243,526.801208 163.126984,529.861084 158.687103,531.486145 
	C150.948425,527.332581 143.620514,523.023254 136.124634,518.413696 
	C136.133270,514.440613 137.088165,510.605835 136.362671,507.120850 
	C130.827057,480.529327 124.960121,454.006836 119.208511,427.460205 
	C118.714607,425.180603 117.965118,422.880463 117.973946,420.592346 
	C117.980774,418.826447 118.990639,417.064392 120.147491,415.287323 
	C127.492256,419.238098 134.244080,423.202209 140.995895,427.166290 
z"/>
<path fill="#82bc0000" opacity="1.000000" stroke="none" 
	d="
M141.331635,427.249542 
	C134.244080,423.202209 127.492256,419.238098 120.432549,415.119568 
	C117.523949,413.347717 114.923241,411.730255 111.667534,409.705444 
	C113.541931,408.555054 115.130486,407.580109 117.225662,406.169434 
	C121.502197,403.527435 125.272125,401.321167 129.392639,399.048187 
	C133.495132,396.598297 137.247009,394.215088 141.354797,391.862854 
	C148.153381,387.969391 154.596069,384.044983 161.396973,380.053833 
	C171.538971,374.341248 181.322769,368.695374 191.459656,363.005554 
	C199.554962,358.346954 207.297165,353.732269 215.393723,349.051270 
	C227.182434,342.358185 238.616806,335.731415 250.362823,328.944153 
	C257.821594,324.536469 264.968719,320.289337 272.465759,315.997131 
	C284.560364,309.004150 296.305023,302.056213 308.400879,295.042053 
	C315.537231,291.000397 322.322388,287.024933 329.415039,282.893951 
	C331.811646,281.498230 333.838318,280.133118 336.005554,279.049164 
	C338.792603,277.655182 341.421326,275.219147 345.150330,277.378021 
	C357.267456,284.543610 369.180389,291.433472 381.093292,298.323364 
	C388.540161,302.598145 396.031494,306.798920 403.388428,311.223267 
	C404.562256,311.929199 405.867584,313.634308 405.873779,314.883606 
	C405.989349,338.211700 405.920776,361.540710 405.859924,384.869476 
	C405.858765,385.317444 405.484985,385.764465 405.085114,386.583740 
	C394.714935,392.746704 384.544678,398.537811 374.170380,404.601807 
	C366.518494,409.193359 359.070679,413.512024 351.314514,417.998444 
	C338.770386,425.242188 326.534607,432.318176 314.093445,439.675171 
	C302.179688,446.677704 290.471375,453.399231 278.460022,460.324219 
	C269.561981,465.460999 260.966919,470.394318 252.168396,475.601746 
	C249.743698,477.069244 247.199966,477.898102 245.361877,479.524475 
	C239.871735,484.382324 235.084305,482.764740 230.094681,478.746735 
	C228.217712,477.235260 225.822830,476.366943 223.351776,475.043945 
	C208.164734,466.201782 193.289993,457.521088 178.127213,448.676880 
	C165.781906,441.453156 153.724640,434.392975 141.331635,427.249542 
z"/>
<path fill="#82bc0000" opacity="1.000000" stroke="none" 
	d="
M152.832230,143.396118 
	C159.154648,139.473999 165.272354,135.827499 171.692719,132.006836 
	C180.207413,127.111984 188.419464,122.391312 196.833038,117.397659 
	C204.121338,113.141075 211.207123,109.155655 218.295563,105.174988 
	C220.427826,103.977570 222.567551,102.793419 224.911652,101.320663 
	C231.169083,97.487823 237.465485,94.290359 243.195358,90.282875 
	C248.388107,86.651047 252.723602,87.732811 257.608154,91.053879 
	C265.219574,95.526855 272.466522,99.951111 279.742828,104.326523 
	C281.983948,105.674141 284.305298,106.888344 286.877258,108.328537 
	C300.528473,116.321770 313.892365,124.150108 327.607178,132.046906 
	C338.032288,138.062805 348.106445,144.010208 358.532776,150.000458 
	C364.526001,153.600250 370.167114,157.157211 376.243134,160.988373 
	C369.611603,164.945129 363.450165,168.621399 356.764496,172.657974 
	C346.548309,178.514328 336.856323,184.010391 326.908020,189.708038 
	C321.087860,193.233734 315.523956,196.557800 309.606018,199.949005 
	C301.483521,204.642502 293.715057,209.268875 285.590942,213.957825 
	C273.806763,220.644974 262.378235,227.269577 250.638428,234.055557 
	C243.550903,238.200104 236.774704,242.183273 229.663498,246.240906 
	C218.202301,252.841965 207.076111,259.368530 195.638367,266.056030 
	C187.205460,271.104279 179.084106,275.991638 170.606873,280.947235 
	C164.234879,284.429443 158.185135,287.785919 152.216156,291.280334 
	C148.987488,293.170471 145.932129,295.518707 141.836533,292.602356 
	C133.768723,287.845032 125.900932,283.362152 117.831505,278.603638 
	C111.752510,274.941132 105.875153,271.554260 99.648697,268.084045 
	C95.237091,265.651855 91.174591,263.303070 87.112091,260.954285 
	C82.566856,259.196075 81.731232,255.795715 81.887192,251.204468 
	C82.229576,241.124969 81.964424,231.024841 81.890366,220.467606 
	C81.889961,209.506470 82.027054,199.010269 81.948982,188.515656 
	C81.928299,185.735794 82.650192,184.104553 85.303841,182.730255 
	C90.566582,180.004776 95.541748,176.724014 100.835167,173.398407 
	C108.138313,169.126389 115.251930,165.146072 122.341278,161.123001 
	C125.464218,159.350800 128.537827,157.491638 131.834198,155.397949 
	C138.898895,151.306549 145.763214,147.489151 152.832230,143.396118 
z"/>
<path fill="#82bc0000" opacity="1.000000" stroke="none" 
	d="
M2082.951904,252.988129 
	C2105.057129,262.613556 2118.917969,278.967773 2124.377197,301.936829 
	C2130.784912,328.896271 2127.010010,354.244110 2109.111816,376.135864 
	C2098.968262,388.542633 2085.151855,395.757874 2069.477783,398.886505 
	C2046.787842,403.415588 2025.518677,399.957642 2006.498047,386.165985 
	C1992.090088,375.718994 1983.421021,361.290497 1979.281738,344.259003 
	C1975.128540,327.171173 1975.840820,309.923889 1982.379517,293.637909 
	C1993.089722,266.961517 2012.976562,251.628357 2041.847900,247.852081 
	C2056.014893,245.999084 2069.402832,247.955383 2082.951904,252.988129 
z"/>
<path fill="#63ABF9" opacity="1.000000" stroke="none" 
	d="
M327.164368,189.506439 
	C336.856323,184.010391 346.548309,178.514328 356.594360,172.955597 
	C358.680176,175.353943 361.391174,177.596710 361.995605,180.308960 
	C370.097809,216.664062 377.915497,253.082626 385.772552,289.492218 
	C386.581299,293.239899 387.986908,297.383209 381.522705,298.253296 
	C369.180389,291.433472 357.267456,284.543610 345.319336,277.073608 
	C345.426514,273.926971 346.131561,271.242981 345.624023,268.812164 
	C340.742401,245.431747 335.709778,222.082245 330.566498,198.757843 
	C329.865448,195.578552 328.319244,192.585648 327.164368,189.506439 
z"/>
<path fill="#82bc0000" opacity="1.000000" stroke="none" 
	d="
M1209.505615,399.712921 
	C1196.675171,401.601532 1184.505127,400.788910 1172.454224,397.078400 
	C1150.648682,390.364441 1135.586914,376.345520 1127.064087,355.388763 
	C1122.744873,344.768646 1120.536621,333.535431 1121.065308,322.031830 
	C1121.925903,303.315979 1127.059326,286.175598 1139.722778,271.635742 
	C1151.942627,257.605347 1167.391357,250.630524 1185.460571,247.882156 
	C1201.199585,245.488220 1216.147583,247.956146 1230.337280,254.343536 
	C1243.107666,260.092041 1253.039429,269.468292 1260.295166,281.624725 
	C1269.946289,297.794281 1272.851929,315.561310 1270.769165,333.738251 
	C1267.322144,363.822815 1252.119507,385.800873 1222.844238,396.500732 
	C1218.716187,398.009491 1214.237793,398.559753 1209.505615,399.712921 
z"/>
<path fill="#959AF6" opacity="1.000000" stroke="none" 
	d="
M86.893089,261.221375 
	C91.174591,263.303070 95.237091,265.651855 99.737312,268.426880 
	C101.524483,272.759705 103.271049,276.578278 104.159988,280.587036 
	C110.744461,310.280182 117.233627,339.995117 123.582870,369.739471 
	C125.661247,379.476074 127.236626,389.320038 129.042053,399.114899 
	C125.272125,401.321167 121.502197,403.527435 117.423965,405.888458 
	C116.192551,403.769806 114.913193,401.573883 114.399193,399.211456 
	C104.966591,355.858521 95.594315,312.492340 86.349068,269.099152 
	C85.836739,266.694489 86.537804,264.031342 86.893089,261.221375 
z"/>
<path fill="#72A6F8" opacity="1.000000" stroke="none" 
	d="
M250.949707,233.894165 
	C262.378235,227.269577 273.806763,220.644974 285.777557,214.270447 
	C287.276733,217.160690 288.539032,219.733109 289.142090,222.451782 
	C293.893799,243.872406 298.406769,265.346832 303.313263,286.731293 
	C304.000854,289.728119 306.427856,292.325806 308.049683,295.108246 
	C296.305023,302.056213 284.560364,309.004150 272.204773,315.756287 
	C270.678467,313.292389 269.423370,311.099701 268.900543,308.744476 
	C264.009338,286.711060 259.301422,264.636871 254.373978,242.611725 
	C253.700470,239.601181 252.113663,236.794983 250.949707,233.894165 
z"/>
<path fill="#7FA2F8" opacity="1.000000" stroke="none" 
	d="
M195.949921,265.895081 
	C207.076111,259.368530 218.202301,252.841965 229.626572,246.632294 
	C229.942566,249.917953 229.460342,252.991730 230.057922,255.838837 
	C234.634293,277.642548 239.470551,299.391571 244.093826,321.185669 
	C244.880142,324.892303 246.398651,327.715668 250.051178,329.104675 
	C238.616806,335.731415 227.182434,342.358185 215.328522,348.645996 
	C210.160416,326.057098 205.493759,303.789093 200.603531,281.570312 
	C199.434982,276.261017 197.521042,271.115784 195.949921,265.895081 
z"/>
<path fill="#8B9EF7" opacity="1.000000" stroke="none" 
	d="
M142.036560,292.876862 
	C145.932129,295.518707 148.987488,293.170471 152.216156,291.280334 
	C158.185135,287.785919 164.234879,284.429443 170.649033,281.363983 
	C176.377792,306.813751 181.642044,331.929688 187.154770,356.990936 
	C187.639297,359.193634 189.750763,361.038452 191.106567,363.049500 
	C181.322769,368.695374 171.538971,374.341248 161.284302,379.688782 
	C157.004227,362.741150 153.074539,346.118164 149.426041,329.433746 
	C146.770508,317.290161 144.486313,305.065430 142.036560,292.876862 
z"/>
<path fill="#84A0F7" opacity="1.000000" stroke="none" 
	d="
M191.459656,363.005554 
	C189.750763,361.038452 187.639297,359.193634 187.154770,356.990936 
	C181.642044,331.929688 176.377792,306.813751 171.004929,281.295715 
	C179.084106,275.991638 187.205460,271.104279 195.638367,266.056030 
	C197.521042,271.115784 199.434982,276.261017 200.603531,281.570312 
	C205.493759,303.789093 210.160416,326.057098 214.974182,348.712341 
	C207.297165,353.732269 199.554962,358.346954 191.459656,363.005554 
z"/>
<path fill="#79A4F8" opacity="1.000000" stroke="none" 
	d="
M250.362823,328.944153 
	C246.398651,327.715668 244.880142,324.892303 244.093826,321.185669 
	C239.470551,299.391571 234.634293,277.642548 230.057922,255.838837 
	C229.460342,252.991730 229.942566,249.917953 229.961578,246.557800 
	C236.774704,242.183273 243.550903,238.200104 250.638412,234.055542 
	C252.113663,236.794983 253.700470,239.601181 254.373978,242.611725 
	C259.301422,264.636871 264.009338,286.711060 268.900543,308.744476 
	C269.423370,311.099701 270.678467,313.292389 271.854858,315.801331 
	C264.968719,320.289337 257.821594,324.536469 250.362823,328.944153 
z"/>
<path fill="#6CA8F9" opacity="1.000000" stroke="none" 
	d="
M308.400879,295.042053 
	C306.427856,292.325806 304.000854,289.728119 303.313263,286.731293 
	C298.406769,265.346832 293.893799,243.872406 289.142090,222.451782 
	C288.539032,219.733109 287.276733,217.160690 286.133240,214.207886 
	C293.715057,209.268875 301.483521,204.642502 309.718506,200.313248 
	C313.278107,213.682465 316.442932,226.738129 319.444977,239.831100 
	C322.743988,254.219315 325.893127,268.641907 329.107574,283.049500 
	C322.322388,287.024933 315.537231,291.000397 308.400879,295.042053 
z"/>
<path fill="#919BF6" opacity="1.000000" stroke="none" 
	d="
M141.836533,292.602356 
	C144.486313,305.065430 146.770508,317.290161 149.426041,329.433746 
	C153.074539,346.118164 157.004227,362.741150 160.926102,379.755493 
	C154.596069,384.044983 148.153381,387.969391 141.445435,391.481323 
	C141.131042,387.609253 141.605225,384.045746 140.942184,380.708099 
	C138.086319,366.332031 135.040237,351.989655 131.793961,337.696198 
	C127.334648,318.061584 122.631699,298.482300 118.033150,278.879303 
	C125.900932,283.362152 133.768723,287.845032 141.836533,292.602356 
z"/>
<path fill="#939BF6" opacity="1.000000" stroke="none" 
	d="
M117.831505,278.603638 
	C122.631699,298.482300 127.334648,318.061584 131.793961,337.696198 
	C135.040237,351.989655 138.086319,366.332031 140.942184,380.708099 
	C141.605225,384.045746 141.131042,387.609253 141.089508,391.450378 
	C137.247009,394.215088 133.495132,396.598297 129.392639,399.048187 
	C127.236626,389.320038 125.661247,379.476074 123.582870,369.739471 
	C117.233627,339.995117 110.744461,310.280182 104.159988,280.587036 
	C103.271049,276.578278 101.524483,272.759705 100.086418,268.510254 
	C105.875153,271.554260 111.752510,274.941132 117.831505,278.603638 
z"/>
<path fill="#68A9F9" opacity="1.000000" stroke="none" 
	d="
M329.415039,282.893951 
	C325.893127,268.641907 322.743988,254.219315 319.444977,239.831100 
	C316.442932,226.738129 313.278107,213.682465 310.072571,200.246124 
	C315.523956,196.557800 321.087860,193.233734 326.908051,189.708054 
	C328.319244,192.585648 329.865448,195.578552 330.566498,198.757843 
	C335.709778,222.082245 340.742401,245.431747 345.624023,268.812164 
	C346.131561,271.242981 345.426514,273.926971 345.115082,276.797913 
	C341.421326,275.219147 338.792603,277.655182 336.005554,279.049164 
	C333.838318,280.133118 331.811646,281.498230 329.415039,282.893951 
z"/>
</svg>