<svg version="1.1" id="Layer_1" xmlns="http://www.w3.org/2000/svg" xmlns:xlink="http://www.w3.org/1999/xlink" x="0px" y="0px"
	 width="100%" viewBox="0 0 3009 569" enable-background="new 0 0 3009 569" xml:space="preserve">
<path fill="#82bc0000" opacity="1.000000" stroke="none" 
	d="
M3010.000000,364.000000 
	C3010.000000,432.657532 3010.000000,501.315063 3010.000000,570.000000 
	C2088.965088,570.000000 1167.930176,570.000000 246.672195,569.682251 
	C262.409302,566.918213 274.818878,557.178589 288.333313,549.058350 
	C289.095551,548.706726 289.568848,548.411682 290.360016,548.054749 
	C291.486115,547.347107 292.294342,546.701294 293.457245,546.009277 
	C310.892914,536.009949 327.973938,526.056763 345.366089,515.942505 
	C359.451172,507.798676 373.225189,499.815857 387.328613,491.751160 
	C399.783295,484.488403 411.908569,477.307556 424.384155,470.055115 
	C432.584839,465.429688 440.479767,460.950500 448.272278,456.299744 
	C455.213074,452.157318 462.581909,448.491913 468.806366,443.438934 
	C482.075775,432.666962 487.995117,418.104675 487.998413,401.092529 
	C488.004761,368.260376 488.040833,335.428131 487.956787,302.596191 
	C487.944092,297.645508 487.636566,292.657532 486.971283,287.753815 
	C484.986145,273.121582 478.292236,261.022949 465.750397,253.031158 
	C452.277100,244.445816 438.316528,236.625076 424.262085,228.288910 
	C425.146484,227.713776 425.794312,227.262970 426.469513,226.857788 
	C440.053375,218.705948 454.139252,211.277512 467.120850,202.259293 
	C492.648346,184.525620 495.462433,145.945007 473.172241,124.970490 
	C466.533936,118.724022 458.407959,113.913254 450.535309,109.152931 
	C432.024567,97.960068 413.275818,87.159485 394.585266,76.265526 
	C374.896545,64.789803 355.181519,53.358829 335.442047,41.970657 
	C326.017456,36.533409 316.509613,31.240448 306.870941,25.584801 
	C291.290039,16.893396 277.318909,5.727964 260.000000,1.000000 
	C1176.547119,1.000000 2093.094238,1.000000 3010.000000,1.000000 
	C3010.000000,95.034607 3010.000000,189.069672 3009.649414,283.405762 
	C3005.644531,275.059296 3002.579346,266.101227 2998.217041,257.826965 
	C2988.079102,238.597687 2972.705566,224.359451 2953.739014,213.971603 
	C2927.525146,199.614349 2899.443115,195.731750 2870.001709,198.928329 
	C2852.288086,200.851593 2835.682617,205.811371 2820.045654,214.405426 
	C2798.878418,226.038940 2782.951172,242.683762 2772.061523,264.078674 
	C2765.604736,276.765015 2761.836914,290.301147 2759.803711,304.500153 
	C2757.703857,319.166473 2757.954834,333.735840 2760.273682,348.145020 
	C2762.655273,362.945831 2767.959473,376.938141 2775.467529,390.073273 
	C2782.452148,402.292358 2791.687012,412.664764 2802.328369,421.497589 
	C2817.685791,434.244995 2835.544922,442.409271 2855.152344,446.608124 
	C2872.551270,450.334045 2890.140625,451.325470 2907.691406,448.819519 
	C2924.658203,446.396942 2940.867188,441.327850 2955.938477,432.663849 
	C2974.948975,421.735260 2989.557861,406.706757 2999.738770,387.455933 
	C3003.717529,379.932556 3006.611816,371.835693 3010.000000,364.000000 
M641.980530,167.529037 
	C627.898376,190.874588 624.988098,216.130478 630.110474,242.386169 
	C635.422302,269.612640 652.572632,286.892822 677.832458,297.088104 
	C695.793701,304.337585 714.746826,307.280853 733.546143,311.061279 
	C746.919556,313.750580 760.338867,316.446136 773.437073,320.190674 
	C782.815247,322.871704 791.360352,327.976379 796.354309,336.923401 
	C805.629150,353.540070 797.997742,379.086761 779.320374,388.946991 
	C758.979065,399.685577 737.356384,400.476624 715.635437,395.617828 
	C696.043396,391.235199 681.527771,380.489716 677.790466,358.931396 
	C677.104004,354.971497 673.856445,352.038544 669.238159,352.020477 
	C655.739746,351.967590 642.240845,351.964783 628.742554,352.023285 
	C624.381348,352.042206 621.826416,354.442474 622.083435,358.771515 
	C622.392212,363.973175 623.004333,369.199463 624.018494,374.309204 
	C628.354919,396.158722 639.900391,413.645905 657.622986,426.789612 
	C678.625732,442.365967 703.054565,448.387665 728.675598,449.895020 
	C742.848572,450.728821 757.009033,449.743286 771.034180,447.044556 
	C798.298645,441.798370 821.762329,430.090424 838.886047,407.559570 
	C849.121460,394.092010 854.546143,378.568176 855.799194,361.904846 
	C856.552063,351.893036 855.863831,341.679047 854.849670,331.654419 
	C853.828918,321.564148 850.385498,312.020691 844.866760,303.380737 
	C833.301514,285.274780 815.915527,274.778168 795.992920,269.344574 
	C775.322510,263.707062 753.947632,260.704865 733.044067,255.848053 
	C722.028381,253.288620 710.981323,250.104462 700.639648,245.611420 
	C689.731934,240.872437 683.428894,231.573486 683.058228,219.313629 
	C682.408020,197.807327 694.966370,182.866745 714.659363,176.128738 
	C726.017334,172.242569 737.831970,171.155334 750.006531,172.850677 
	C763.167908,174.683426 775.093384,178.654327 784.631042,188.189606 
	C790.674744,194.231827 793.968689,201.848877 795.931274,210.045639 
	C797.113892,214.984924 800.080627,217.092514 805.118042,217.039200 
	C816.782166,216.915741 828.448669,217.029434 840.113953,216.988464 
	C846.764038,216.965103 851.241760,211.686890 849.923706,205.200760 
	C846.861511,190.131775 842.343140,175.690903 833.066772,163.009384 
	C821.466919,147.151566 806.393127,136.081146 788.242798,128.989487 
	C771.798340,122.564323 754.694824,120.828369 737.114563,120.847527 
	C715.377808,120.871216 694.932983,125.122162 675.818420,135.600632 
	C661.971741,143.191360 650.940125,153.702606 641.980530,167.529037 
M1833.357422,211.065918 
	C1827.832764,208.686783 1822.422363,205.982910 1816.761841,203.989471 
	C1799.745972,197.996887 1782.259155,196.676041 1764.367065,198.919907 
	C1752.193359,200.446594 1740.998413,204.209503 1730.561157,210.711716 
	C1719.962280,217.314606 1711.693848,226.164856 1704.000000,237.096893 
	C1704.000000,234.277328 1704.000000,232.502655 1704.000000,230.727966 
	C1704.000000,191.566849 1704.012939,152.405746 1703.990234,113.244637 
	C1703.984985,104.129341 1699.826416,100.000748 1690.836670,100.000160 
	C1680.838135,99.999512 1670.837646,100.114464 1660.841797,99.950867 
	C1655.993896,99.871521 1653.013184,102.351501 1651.358398,106.400940 
	C1650.398804,108.749252 1650.054199,111.498192 1650.052734,114.067223 
	C1649.991089,219.052307 1649.999878,324.037445 1650.000000,429.022552 
	C1650.000000,429.855774 1649.951782,430.692627 1650.011841,431.521606 
	C1650.583008,439.428833 1655.447021,443.973053 1663.404175,443.994476 
	C1672.236328,444.018280 1681.068359,444.005707 1689.900513,443.998444 
	C1699.385132,443.990662 1703.996094,439.406830 1703.997559,429.960358 
	C1704.003296,393.132233 1703.809204,356.302429 1704.137451,319.477234 
	C1704.217163,310.529358 1705.124756,301.384766 1707.212769,292.706207 
	C1710.414917,279.396362 1717.314087,267.970398 1728.693970,259.699402 
	C1746.313110,246.893616 1765.903076,244.564499 1786.615601,249.082504 
	C1801.779663,252.390274 1813.809326,260.353394 1822.380493,273.652740 
	C1830.171143,285.741058 1833.637695,299.156860 1833.819092,313.057617 
	C1834.334717,352.545288 1833.994019,392.044067 1834.005493,431.538452 
	C1834.007690,439.115051 1838.484741,443.845428 1846.084717,443.963013 
	C1855.747681,444.112488 1865.425415,444.276825 1875.076538,443.906433 
	C1882.103027,443.636780 1887.233643,439.538635 1887.155762,431.510345 
	C1886.800659,394.852295 1887.050659,358.188782 1886.955078,321.527557 
	C1886.937012,314.596344 1886.424805,307.661194 1885.989990,300.737305 
	C1884.754517,281.064911 1879.529053,262.580322 1869.244873,245.658096 
	C1860.465454,231.211685 1848.895142,219.619553 1833.357422,211.065918 
M2172.627930,443.808014 
	C2179.410889,441.351959 2181.205566,436.302460 2181.100586,429.452698 
	C2180.809570,410.467438 2181.129639,391.473633 2180.964600,372.485321 
	C2180.788330,352.229767 2180.410400,331.974976 2179.973389,311.723022 
	C2179.692871,298.709473 2176.395508,286.262268 2171.926514,274.149445 
	C2164.243408,253.325363 2151.535889,235.927307 2133.897949,222.601410 
	C2114.043701,207.601181 2091.023193,200.050629 2066.416748,198.173874 
	C2049.645752,196.894730 2032.789917,197.828232 2016.334717,202.047485 
	C1997.770020,206.807632 1980.742310,214.924973 1966.241577,227.449463 
	C1953.229614,238.687973 1942.957886,252.148880 1935.842896,268.092163 
	C1929.313477,282.723450 1925.168213,297.959808 1924.273926,313.731812 
	C1923.578125,326.006927 1924.479736,338.537048 1926.158936,350.749268 
	C1930.038208,378.960693 1942.913330,402.468689 1964.628174,421.269531 
	C1985.206787,439.086487 2009.351562,447.711792 2035.936523,449.851593 
	C2052.231445,451.163147 2068.372070,449.088715 2083.735840,442.959381 
	C2097.943848,437.290924 2110.507812,429.249725 2119.713379,416.741455 
	C2123.951416,410.983002 2127.830078,404.960052 2132.000000,398.869202 
	C2132.000000,410.051453 2131.994873,421.042664 2132.001709,432.033844 
	C2132.006348,439.610168 2136.226562,443.942169 2143.796631,443.984894 
	C2153.124512,444.037537 2162.453125,443.980011 2172.627930,443.808014 
M1248.352783,440.932587 
	C1274.106934,430.670532 1294.977783,414.289215 1308.836060,390.163940 
	C1325.307861,361.488525 1329.815918,330.229828 1323.705933,298.037323 
	C1318.330688,269.716797 1305.148560,245.322220 1282.266968,226.610794 
	C1260.751343,209.016373 1235.953125,200.138641 1208.727905,198.253967 
	C1196.642090,197.417343 1184.260254,198.532837 1172.197266,200.143585 
	C1140.879395,204.325455 1115.172974,218.973160 1095.018677,243.423843 
	C1078.100708,263.948059 1070.172485,287.934906 1068.158325,313.960419 
	C1067.168091,326.755859 1068.241455,339.565094 1070.830078,352.322968 
	C1076.700684,381.256805 1090.918213,405.071320 1113.936279,423.221588 
	C1136.432861,440.960663 1162.732910,448.946136 1191.176514,449.915466 
	C1198.087402,450.150970 1205.032837,449.303955 1211.964722,449.008148 
	C1224.309204,448.481323 1236.111084,445.548004 1248.352783,440.932587 
M1513.433838,200.999435 
	C1507.150024,200.001343 1500.891602,198.383423 1494.577637,198.126022 
	C1478.250366,197.460419 1461.948853,197.866760 1445.956665,201.987198 
	C1410.470093,211.130524 1383.436890,231.310715 1366.621216,264.028870 
	C1354.558716,287.498688 1351.044800,312.634674 1353.844360,338.934601 
	C1355.720337,356.557037 1360.580322,372.996857 1369.103882,388.437256 
	C1380.712769,409.466980 1397.685913,424.994751 1418.853271,435.892822 
	C1435.428955,444.427032 1453.383057,448.753296 1471.880615,449.855255 
	C1490.330078,450.954346 1508.608276,449.145966 1526.354370,443.312561 
	C1546.708008,436.621948 1564.255249,425.681793 1578.709717,409.808777 
	C1589.651001,397.793732 1597.436768,383.865295 1602.540161,368.600922 
	C1604.727661,362.058563 1603.144165,354.481384 1592.608032,354.905518 
	C1581.959717,355.334106 1571.273926,355.226318 1560.617798,354.908875 
	C1554.899902,354.738556 1551.512085,356.982635 1548.917358,361.985779 
	C1542.096069,375.138214 1532.047607,385.292084 1518.788452,392.004791 
	C1501.707886,400.652191 1483.639526,402.847626 1464.976685,398.942474 
	C1439.388672,393.588196 1421.613892,378.651337 1412.009888,354.278473 
	C1406.258545,339.682556 1405.835205,324.552032 1407.964600,309.189728 
	C1409.922607,295.063049 1415.436768,282.372620 1424.826660,271.865723 
	C1443.827759,250.604034 1468.403931,243.916153 1495.785645,248.233673 
	C1519.955811,252.044785 1538.354370,265.040070 1549.652588,287.225983 
	C1551.623169,291.095856 1554.503418,293.117401 1559.056030,293.051544 
	C1570.052612,292.892426 1581.058594,292.785919 1592.050293,293.067352 
	C1600.933105,293.294769 1605.320801,287.300262 1602.260254,278.869385 
	C1599.613281,271.577637 1596.585571,264.310303 1592.759766,257.581635 
	C1581.438110,237.669647 1565.342285,222.335953 1544.888428,212.192932 
	C1535.220337,207.398544 1524.526245,204.673019 1513.433838,200.999435 
M2230.476074,243.023438 
	C2223.008545,258.273529 2221.524414,274.285828 2223.944580,290.935364 
	C2226.612793,309.291656 2236.336182,322.329193 2252.461426,331.181641 
	C2273.639160,342.807739 2297.177734,344.461182 2320.311279,348.079651 
	C2330.413086,349.659760 2340.728027,351.103058 2350.316406,354.426086 
	C2362.043457,358.490326 2365.913818,365.623840 2364.740723,375.634735 
	C2363.434082,386.786133 2355.911133,393.991364 2345.623291,397.928864 
	C2334.658447,402.125458 2323.313477,403.059479 2311.532471,402.146362 
	C2294.209717,400.803711 2279.470947,396.041412 2272.053223,378.483643 
	C2270.462158,374.717224 2267.731445,372.805542 2263.193115,372.901489 
	C2250.037109,373.179688 2236.869141,373.124207 2223.709717,372.932953 
	C2219.112549,372.866180 2217.298584,375.571594 2218.168213,379.049988 
	C2220.321533,387.661682 2222.234863,396.590759 2226.131348,404.457886 
	C2235.419434,423.211395 2251.306641,434.942230 2270.687012,441.964600 
	C2290.884521,449.283051 2311.663330,451.224884 2333.118652,449.186066 
	C2350.798096,447.506073 2367.434570,443.306000 2382.591309,434.031128 
	C2397.286865,425.038269 2407.872559,412.566345 2414.078857,396.318176 
	C2418.757324,384.070831 2418.656738,371.351044 2417.802246,358.762268 
	C2416.914795,345.687561 2411.186523,334.144745 2401.529053,325.189697 
	C2389.084473,313.650055 2373.614258,308.006866 2357.221436,305.078186 
	C2338.442871,301.723236 2319.495605,299.301239 2300.739502,295.837280 
	C2293.278564,294.459351 2285.469238,292.216827 2280.510498,285.829071 
	C2272.644531,275.695953 2276.972168,260.909515 2286.883789,254.111816 
	C2299.335938,245.571411 2313.269287,243.655731 2328.102295,245.916962 
	C2342.030029,248.040161 2353.437012,253.325073 2359.060303,267.276642 
	C2360.572754,271.029419 2363.765137,272.847656 2367.483398,272.917053 
	C2379.142090,273.134705 2390.808838,273.102783 2402.469482,272.948669 
	C2407.588623,272.881012 2412.821045,266.511078 2411.872559,261.632050 
	C2408.451172,244.037491 2399.558350,229.509354 2385.683594,218.427750 
	C2369.394775,205.418228 2350.046143,199.597702 2329.591309,198.162231 
	C2311.820312,196.915100 2294.085205,198.011246 2276.988525,204.030533 
	C2256.852051,211.119965 2240.493652,222.667221 2230.476074,243.023438 
M1050.000000,421.500183 
	C1050.000000,418.167542 1050.001343,414.834930 1049.999634,411.502289 
	C1049.995239,403.009705 1046.939453,400.244659 1038.343262,399.943451 
	C1025.488770,399.492981 1012.519287,399.558289 999.837219,397.740082 
	C987.532776,395.976013 976.824402,384.281494 976.902405,369.336456 
	C977.160767,319.849915 977.000000,270.361115 977.000000,220.873184 
	C977.000000,218.962280 977.000000,217.051361 977.000000,215.000000 
	C995.448975,215.000000 1013.110229,214.807358 1030.764160,215.082657 
	C1039.369629,215.216858 1043.673096,210.614243 1043.130981,203.033417 
	C1042.550171,194.910278 1043.001831,186.713440 1042.999634,178.548767 
	C1042.997192,170.072556 1039.930176,167.012146 1031.356812,167.004318 
	C1015.027466,166.989441 998.698181,167.000000 982.368835,166.999985 
	C980.625549,166.999985 978.882324,166.999985 977.000000,166.999985 
	C977.000000,147.714249 977.008484,129.222397 976.996216,110.730560 
	C976.990540,102.155647 973.894592,99.003151 965.538696,99.000679 
	C955.707764,98.997780 945.876831,98.999352 936.045898,99.000191 
	C927.249146,99.000946 924.036316,102.245804 924.008057,111.282043 
	C923.974182,122.112625 924.000000,132.943405 924.000000,143.774094 
	C924.000000,151.383911 924.000000,158.993729 924.000000,167.000351 
	C914.171936,167.000351 904.878113,166.943100 895.585327,167.018768 
	C888.375366,167.077469 885.014832,170.506653 885.003296,177.607193 
	C884.989502,186.105103 885.452332,194.634460 884.865356,203.091644 
	C884.339966,210.662033 888.760742,215.286163 896.794434,215.058060 
	C905.728760,214.804398 914.675842,214.999985 924.000000,214.999985 
	C924.000000,217.343719 924.000000,219.140854 924.000000,220.937973 
	C924.000000,269.092896 923.843750,317.248749 924.135803,365.401917 
	C924.192139,374.690094 925.357849,384.093628 927.138184,393.224304 
	C931.067139,413.374542 942.577209,427.841003 961.552490,436.152069 
	C973.875488,441.549408 986.989258,443.303345 1000.193542,443.877045 
	C1013.165894,444.440643 1026.182007,444.034882 1039.178711,443.986023 
	C1046.370728,443.959015 1049.928467,440.289612 1049.994507,432.992645 
	C1050.026245,429.493805 1050.000000,425.994415 1050.000000,421.500183 
M2558.447266,398.104248 
	C2542.799805,394.311462 2534.370850,384.917664 2534.186768,367.675293 
	C2533.656982,318.035950 2533.999023,268.387268 2534.007324,218.742279 
	C2534.007324,217.625259 2534.109863,216.508286 2534.183594,215.000000 
	C2536.318604,215.000000 2538.112793,215.000000 2539.906738,215.000000 
	C2557.898926,214.999969 2575.891113,215.009628 2593.883301,214.993423 
	C2598.665283,214.989120 2600.913818,212.992935 2600.962158,208.246841 
	C2601.075684,197.086212 2601.074707,185.922836 2600.962158,174.762192 
	C2600.914307,170.012207 2598.668701,168.010971 2593.892334,168.006653 
	C2575.733643,167.990280 2557.574707,168.000015 2539.416016,167.999985 
	C2537.668457,167.999985 2535.920654,167.999985 2534.000000,167.999985 
	C2534.000000,146.924377 2533.902344,126.607407 2534.071777,106.292664 
	C2534.111816,101.506134 2532.333008,99.852859 2527.625000,99.929604 
	C2514.967285,100.135948 2502.303955,99.993462 2489.642822,100.003021 
	C2484.006836,100.007278 2482.040039,101.950531 2482.012939,107.726105 
	C2481.966064,117.721519 2482.000000,127.717316 2482.000000,137.712952 
	C2482.000000,147.659653 2482.000000,157.606354 2482.000000,168.000107 
	C2471.064209,168.000107 2460.612549,167.981857 2450.160889,168.007248 
	C2444.308105,168.021469 2443.018799,169.349319 2443.005615,175.331467 
	C2442.984863,184.827271 2443.059570,194.323639 2442.985107,203.818893 
	C2442.893799,215.487701 2442.374023,215.118011 2453.980957,215.016373 
	C2463.237793,214.935303 2472.496094,215.000000 2482.000000,215.000000 
	C2482.000000,217.491989 2482.000000,219.305527 2482.000000,221.119064 
	C2482.000000,265.599640 2481.776611,310.082031 2482.137939,354.559692 
	C2482.244385,367.679718 2482.972656,380.970947 2485.279785,393.849792 
	C2487.850586,408.200226 2494.970215,420.384125 2507.433350,429.270355 
	C2522.835449,440.252319 2540.402832,442.964539 2558.416016,443.865051 
	C2572.042480,444.546265 2585.730713,444.008453 2599.391357,443.996216 
	C2605.874756,443.990417 2606.991455,442.825165 2606.997559,436.116699 
	C2607.006592,426.620850 2606.716797,417.113586 2607.099365,407.633148 
	C2607.354248,401.315796 2605.593018,400.090088 2599.328613,399.950500 
	C2585.925049,399.651886 2572.527588,399.079712 2558.447266,398.104248 
M2660.000000,402.500000 
	C2660.000000,412.658691 2659.994141,422.817413 2660.001953,432.976105 
	C2660.008301,441.471069 2662.578857,443.993927 2671.224365,443.998749 
	C2681.216553,444.004303 2691.222412,443.671844 2701.196777,444.094788 
	C2710.657227,444.495972 2714.047363,441.067291 2714.037842,431.375641 
	C2713.968018,359.432037 2714.000000,287.488342 2714.000000,215.544662 
	C2714.000000,214.545441 2714.052979,213.542633 2713.988037,212.547607 
	C2713.596680,206.564362 2710.933594,204.023682 2704.935547,204.008301 
	C2693.777588,203.979675 2682.619629,203.999741 2671.461670,204.000107 
	C2662.013184,204.000412 2660.000732,206.041519 2660.000732,215.645523 
	C2659.999512,277.597015 2660.000000,339.548492 2660.000000,402.500000 
M2653.386963,146.879868 
	C2656.020264,151.514908 2657.908691,156.842712 2661.440918,160.641891 
	C2668.983154,168.754028 2678.805420,171.791336 2689.958008,171.060699 
	C2702.890869,170.213486 2712.738037,164.529480 2718.910400,153.172272 
	C2726.823486,138.611649 2724.073486,116.708679 2708.054443,105.427376 
	C2693.689453,95.311020 2673.229980,96.916977 2661.336914,109.371498 
	C2651.478271,119.695877 2650.161133,132.582001 2653.386963,146.879868 
z"/>
<path fill="#FFFFFF" opacity="1.000000" stroke="none" 
	d="
M3010.000000,363.571533 
	C3006.611816,371.835693 3003.717529,379.932556 2999.738770,387.455933 
	C2989.557861,406.706757 2974.948975,421.735260 2955.938477,432.663849 
	C2940.867188,441.327850 2924.658203,446.396942 2907.691406,448.819519 
	C2890.140625,451.325470 2872.551270,450.334045 2855.152344,446.608124 
	C2835.544922,442.409271 2817.685791,434.244995 2802.328369,421.497589 
	C2791.687012,412.664764 2782.452148,402.292358 2775.467529,390.073273 
	C2767.959473,376.938141 2762.655273,362.945831 2760.273682,348.145020 
	C2757.954834,333.735840 2757.703857,319.166473 2759.803711,304.500153 
	C2761.836914,290.301147 2765.604736,276.765015 2772.061523,264.078674 
	C2782.951172,242.683762 2798.878418,226.038940 2820.045654,214.405426 
	C2835.682617,205.811371 2852.288086,200.851593 2870.001709,198.928329 
	C2899.443115,195.731750 2927.525146,199.614349 2953.739014,213.971603 
	C2972.705566,224.359451 2988.079102,238.597687 2998.217041,257.826965 
	C3002.579346,266.101227 3005.644531,275.059296 3009.649414,283.853394 
	C3010.000000,285.388885 3010.000000,286.777802 3009.653809,288.719360 
	C3008.321045,292.238281 3006.248779,293.089508 3003.193848,293.057190 
	C2990.364746,292.921539 2977.526855,292.762268 2964.706299,293.116974 
	C2959.576660,293.258881 2956.989502,291.232544 2954.885986,286.827209 
	C2948.087891,272.591980 2937.399658,261.851410 2923.211426,255.162506 
	C2908.627197,248.286713 2893.280518,245.523804 2876.938965,247.855774 
	C2858.072754,250.548019 2841.884033,257.687408 2829.779785,272.747711 
	C2810.589600,296.624023 2807.216309,323.767303 2816.709717,351.843262 
	C2827.751221,384.499207 2854.159180,399.688690 2885.556396,400.703552 
	C2895.121826,401.012756 2905.138184,398.869537 2914.356201,395.968811 
	C2932.166504,390.364380 2945.883301,378.983978 2954.301270,362.068298 
	C2956.933594,356.779022 2960.083252,354.594116 2966.129150,354.854034 
	C2977.771729,355.354584 2989.453125,355.127441 3001.113525,354.922333 
	C3004.612305,354.860779 3007.544922,355.499695 3010.000000,358.000000 
	C3010.000000,359.714355 3010.000000,361.428711 3010.000000,363.571533 
z"/>
<path fill="#82bc0000" opacity="1.000000" stroke="none" 
	d="
M3010.000000,357.531342 
	C3007.544922,355.499695 3004.612305,354.860779 3001.113525,354.922333 
	C2989.453125,355.127441 2977.771729,355.354584 2966.129150,354.854034 
	C2960.083252,354.594116 2956.933594,356.779022 2954.301270,362.068298 
	C2945.883301,378.983978 2932.166504,390.364380 2914.356201,395.968811 
	C2905.138184,398.869537 2895.121826,401.012756 2885.556396,400.703552 
	C2854.159180,399.688690 2827.751221,384.499207 2816.709717,351.843262 
	C2807.216309,323.767303 2810.589600,296.624023 2829.779785,272.747711 
	C2841.884033,257.687408 2858.072754,250.548019 2876.938965,247.855774 
	C2893.280518,245.523804 2908.627197,248.286713 2923.211426,255.162506 
	C2937.399658,261.851410 2948.087891,272.591980 2954.885986,286.827209 
	C2956.989502,291.232544 2959.576660,293.258881 2964.706299,293.116974 
	C2977.526855,292.762268 2990.364746,292.921539 3003.193848,293.057190 
	C3006.248779,293.089508 3008.321045,292.238281 3009.653809,289.136017 
	C3010.000000,311.687561 3010.000000,334.375122 3010.000000,357.531342 
z"/>
<path fill="#82bc0000" opacity="1.000000" stroke="none" 
	d="
M1.000000,162.000000 
	C1.000000,108.392075 1.000000,54.784145 1.000000,1.000000 
	C80.354141,1.000000 159.708405,1.000000 239.316467,1.312059 
	C233.699844,4.044129 227.829453,6.464140 221.608917,8.953133 
	C205.172272,18.403128 189.085739,27.784142 172.670349,37.246552 
	C171.379044,37.944187 170.434357,38.590431 169.451385,39.172043 
	C159.304337,45.176060 149.151093,51.169628 138.664368,57.238804 
	C132.538910,60.835739 126.748657,64.359978 120.604286,67.949844 
	C114.134392,71.657372 108.018616,75.299271 101.552017,78.990417 
	C93.455856,83.653893 85.710518,88.268112 77.612633,92.949203 
	C67.986328,98.502441 58.712570,103.988800 49.117943,109.612572 
	C43.864693,112.555664 38.932312,115.361336 33.669662,118.244804 
	C24.899937,123.504539 16.272160,128.459229 10.436530,137.366226 
	C7.916645,142.503891 5.436790,147.281357 3.466592,152.260498 
	C2.244578,155.348785 1.795836,158.743073 1.000000,162.000000 
z"/>
<path fill="#82bc0000" opacity="1.000000" stroke="none" 
	d="
M232.000000,570.000000 
	C155.088043,570.000000 78.176071,570.000000 1.000000,570.000000 
	C1.000000,519.646057 1.000000,469.291687 1.322712,418.681519 
	C3.363008,428.940887 7.969804,438.114655 15.315264,445.702393 
	C24.235071,454.916382 35.995827,459.941772 47.150665,466.391998 
	C53.898232,470.392029 60.450737,474.112885 67.307297,478.006439 
	C76.727272,483.492249 85.843193,488.805359 95.155685,494.396240 
	C103.889679,499.490631 112.427101,504.307281 121.049530,509.332886 
	C121.313881,509.804718 121.559441,509.967865 121.984917,510.248352 
	C122.304382,510.773224 122.589783,510.895935 123.273438,510.993469 
	C127.713310,513.473022 131.834549,515.792603 136.155106,518.389893 
	C141.555374,521.483154 146.756332,524.298706 152.123535,527.413818 
	C154.811081,529.244568 157.294327,530.843018 159.860931,532.294067 
	C166.855255,536.248474 173.884796,540.140564 181.099350,544.339111 
	C197.935135,553.607483 212.803864,566.126282 232.000000,570.000000 
z"/>
<path fill="#6CA8F9" opacity="1.000000" stroke="none" 
	d="
M221.959045,8.884150 
	C227.829453,6.464140 233.699844,4.044129 239.785126,1.312059 
	C246.354401,1.000000 252.708801,1.000000 259.531616,1.000000 
	C277.318909,5.727964 291.290039,16.893396 306.944214,25.962070 
	C309.445618,36.185978 311.759186,45.722889 313.954315,55.286991 
	C319.984222,81.558609 325.964386,107.841637 331.610352,134.052307 
	C308.294983,120.620659 285.270996,107.362450 262.409546,93.829674 
	C255.408096,89.685188 248.860550,84.731789 241.000931,91.909454 
	C240.790268,92.101845 240.362274,92.056244 239.994919,91.717590 
	C233.955826,63.837086 227.957443,36.360615 221.959045,8.884150 
z"/>
<path fill="#8C9DF7" opacity="1.000000" stroke="none" 
	d="
M232.375000,570.000000 
	C212.803864,566.126282 197.935135,553.607483 181.335617,544.088257 
	C181.536697,541.509521 182.190628,539.361145 181.788437,537.432983 
	C177.782791,518.229065 173.555923,499.071381 169.488068,479.880188 
	C166.594406,466.228455 163.848633,452.545380 161.393082,438.943329 
	C178.845245,448.966370 195.941162,458.922363 213.063324,469.254242 
	C214.792099,474.969543 216.870834,480.222290 218.125732,485.664948 
	C221.704758,501.187866 225.129669,516.751770 228.266907,532.369507 
	C230.775940,544.859863 232.774734,557.452637 235.000000,570.000000 
	C234.250000,570.000000 233.500000,570.000000 232.375000,570.000000 
z"/>
<path fill="#82A1F7" opacity="1.000000" stroke="none" 
	d="
M235.458069,570.000000 
	C232.774734,557.452637 230.775940,544.859863 228.266907,532.369507 
	C225.129669,516.751770 221.704758,501.187866 218.125732,485.664948 
	C216.870834,480.222290 214.792099,474.969543 213.414032,469.322876 
	C220.944122,473.298035 228.058929,477.748352 235.425949,481.732239 
	C237.054260,482.612793 239.967331,482.584015 241.619415,481.709442 
	C250.489227,477.014038 259.147522,471.919067 268.199463,467.116821 
	C270.146515,469.394257 272.711365,471.302307 273.253693,473.673004 
	C278.433228,496.315063 283.319580,519.025085 288.132019,541.749023 
	C288.628448,544.093018 288.098267,546.654419 288.044403,549.114929 
	C274.818878,557.178589 262.409302,566.918213 246.224564,569.682251 
	C242.638718,570.000000 239.277420,570.000000 235.458069,570.000000 
z"/>
<path fill="#A396F5" opacity="1.000000" stroke="none" 
	d="
M1.000000,162.468658 
	C1.795836,158.743073 2.244578,155.348785 3.466592,152.260498 
	C5.436790,147.281357 7.916645,142.503891 10.489931,137.853561 
	C12.532273,146.875916 14.133059,155.714539 16.021961,164.491150 
	C25.401505,208.072281 34.853851,251.637772 44.287624,295.207245 
	C47.169422,308.516724 50.073681,321.821320 52.655945,334.965485 
	C44.765751,330.482727 37.210957,326.120392 29.603149,321.852570 
	C18.604534,315.682526 10.036371,307.215057 5.265891,295.422028 
	C3.394743,290.796387 2.396034,285.817841 0.999999,281.000000 
	C1.000000,241.645767 1.000000,202.291550 1.000000,162.468658 
z"/>
<path fill="#A794F5" opacity="1.000000" stroke="none" 
	d="
M46.955605,466.112793 
	C35.995827,459.941772 24.235071,454.916382 15.315264,445.702393 
	C7.969804,438.114655 3.363008,428.940887 1.322712,418.212891 
	C1.000000,412.977905 1.000000,407.955811 1.324728,402.249817 
	C4.387990,385.403870 12.085117,372.663269 27.050749,365.271698 
	C33.870502,396.882874 40.638023,428.093018 47.260429,459.333893 
	C47.714462,461.475739 47.082512,463.847809 46.955605,466.112793 
z"/>
<path fill="#82bc0000" opacity="1.000000" stroke="none" 
	d="
M26.963909,364.877991 
	C12.085117,372.663269 4.387990,385.403870 1.324728,401.782959 
	C1.000000,361.979095 1.000000,321.958221 0.999999,281.468658 
	C2.396034,285.817841 3.394743,290.796387 5.265891,295.422028 
	C10.036371,307.215057 18.604534,315.682526 29.603149,321.852570 
	C37.210957,326.120392 44.765751,330.482727 52.855595,335.243713 
	C55.480850,336.853058 57.696537,337.873596 59.676487,339.236542 
	C61.265713,340.330536 62.569180,341.839630 63.661488,343.235413 
	C55.847416,347.853394 48.371304,352.400513 40.540237,356.991608 
	C35.778156,359.649719 31.371035,362.263855 26.963909,364.877991 
z"/>
<path fill="#FFFFFF" opacity="1.000000" stroke="none" 
	d="
M642.234253,167.258255 
	C650.940125,153.702606 661.971741,143.191360 675.818420,135.600632 
	C694.932983,125.122162 715.377808,120.871216 737.114563,120.847527 
	C754.694824,120.828369 771.798340,122.564323 788.242798,128.989487 
	C806.393127,136.081146 821.466919,147.151566 833.066772,163.009384 
	C842.343140,175.690903 846.861511,190.131775 849.923706,205.200760 
	C851.241760,211.686890 846.764038,216.965103 840.113953,216.988464 
	C828.448669,217.029434 816.782166,216.915741 805.118042,217.039200 
	C800.080627,217.092514 797.113892,214.984924 795.931274,210.045639 
	C793.968689,201.848877 790.674744,194.231827 784.631042,188.189606 
	C775.093384,178.654327 763.167908,174.683426 750.006531,172.850677 
	C737.831970,171.155334 726.017334,172.242569 714.659363,176.128738 
	C694.966370,182.866745 682.408020,197.807327 683.058228,219.313629 
	C683.428894,231.573486 689.731934,240.872437 700.639648,245.611420 
	C710.981323,250.104462 722.028381,253.288620 733.044067,255.848053 
	C753.947632,260.704865 775.322510,263.707062 795.992920,269.344574 
	C815.915527,274.778168 833.301514,285.274780 844.866760,303.380737 
	C850.385498,312.020691 853.828918,321.564148 854.849670,331.654419 
	C855.863831,341.679047 856.552063,351.893036 855.799194,361.904846 
	C854.546143,378.568176 849.121460,394.092010 838.886047,407.559570 
	C821.762329,430.090424 798.298645,441.798370 771.034180,447.044556 
	C757.009033,449.743286 742.848572,450.728821 728.675598,449.895020 
	C703.054565,448.387665 678.625732,442.365967 657.622986,426.789612 
	C639.900391,413.645905 628.354919,396.158722 624.018494,374.309204 
	C623.004333,369.199463 622.392212,363.973175 622.083435,358.771515 
	C621.826416,354.442474 624.381348,352.042206 628.742554,352.023285 
	C642.240845,351.964783 655.739746,351.967590 669.238159,352.020477 
	C673.856445,352.038544 677.104004,354.971497 677.790466,358.931396 
	C681.527771,380.489716 696.043396,391.235199 715.635437,395.617828 
	C737.356384,400.476624 758.979065,399.685577 779.320374,388.946991 
	C797.997742,379.086761 805.629150,353.540070 796.354309,336.923401 
	C791.360352,327.976379 782.815247,322.871704 773.437073,320.190674 
	C760.338867,316.446136 746.919556,313.750580 733.546143,311.061279 
	C714.746826,307.280853 695.793701,304.337585 677.832458,297.088104 
	C652.572632,286.892822 635.422302,269.612640 630.110474,242.386169 
	C624.988098,216.130478 627.898376,190.874588 642.234253,167.258255 
z"/>
<path fill="#5CADFA" opacity="1.000000" stroke="none" 
	d="
M331.964233,134.120148 
	C325.964386,107.841637 319.984222,81.558609 313.954315,55.286991 
	C311.759186,45.722889 309.445618,36.185978 307.112793,26.259394 
	C316.509613,31.240448 326.017456,36.533409 335.442047,41.970657 
	C355.181519,53.358829 374.896545,64.789803 394.585266,76.265526 
	C413.275818,87.159485 432.024567,97.960068 450.535309,109.152931 
	C458.407959,113.913254 466.533936,118.724022 473.172241,124.970490 
	C495.462433,145.945007 492.648346,184.525620 467.120850,202.259293 
	C454.139252,211.277512 440.053375,218.705948 426.469513,226.857788 
	C425.794312,227.262970 425.146484,227.713776 424.262085,228.288910 
	C438.316528,236.625076 452.277100,244.445816 465.750397,253.031158 
	C478.292236,261.022949 484.986145,273.121582 486.971283,287.753815 
	C487.636566,292.657532 487.944092,297.645508 487.956787,302.596191 
	C488.040833,335.428131 488.004761,368.260376 487.998413,401.092529 
	C487.995117,418.104675 482.075775,432.666962 468.806366,443.438934 
	C462.581909,448.491913 455.213074,452.157318 448.272278,456.299744 
	C440.479767,460.950500 432.584839,465.429688 424.377472,469.596802 
	C423.931549,466.886871 424.178436,464.492188 423.701843,462.251434 
	C418.792969,439.171875 413.833862,416.102234 408.666626,393.079651 
	C408.170380,390.868622 406.176056,388.993805 405.077881,386.591034 
	C405.519104,384.282227 405.964050,382.345764 405.968750,380.408264 
	C406.019165,359.657288 405.785522,338.902283 406.157715,318.157837 
	C406.245636,313.257507 404.128998,311.163574 400.431854,309.080322 
	C391.853241,304.246307 383.438110,299.122192 374.964111,293.677429 
	C374.796417,291.422424 374.798920,289.567688 374.419586,287.794617 
	C368.220947,258.820892 361.863251,229.880600 355.808319,200.877060 
	C354.087982,192.636551 353.217468,184.218643 352.158508,175.608490 
	C360.251923,170.681534 368.144012,166.028198 376.765045,160.945053 
	C361.271057,151.667877 346.617645,142.894012 331.964233,134.120148 
z"/>
<path fill="#FFFFFF" opacity="1.000000" stroke="none" 
	d="
M1833.671631,211.275574 
	C1848.895142,219.619553 1860.465454,231.211685 1869.244873,245.658096 
	C1879.529053,262.580322 1884.754517,281.064911 1885.989990,300.737305 
	C1886.424805,307.661194 1886.937012,314.596344 1886.955078,321.527557 
	C1887.050659,358.188782 1886.800659,394.852295 1887.155762,431.510345 
	C1887.233643,439.538635 1882.103027,443.636780 1875.076538,443.906433 
	C1865.425415,444.276825 1855.747681,444.112488 1846.084717,443.963013 
	C1838.484741,443.845428 1834.007690,439.115051 1834.005493,431.538452 
	C1833.994019,392.044067 1834.334717,352.545288 1833.819092,313.057617 
	C1833.637695,299.156860 1830.171143,285.741058 1822.380493,273.652740 
	C1813.809326,260.353394 1801.779663,252.390274 1786.615601,249.082504 
	C1765.903076,244.564499 1746.313110,246.893616 1728.693970,259.699402 
	C1717.314087,267.970398 1710.414917,279.396362 1707.212769,292.706207 
	C1705.124756,301.384766 1704.217163,310.529358 1704.137451,319.477234 
	C1703.809204,356.302429 1704.003296,393.132233 1703.997559,429.960358 
	C1703.996094,439.406830 1699.385132,443.990662 1689.900513,443.998444 
	C1681.068359,444.005707 1672.236328,444.018280 1663.404175,443.994476 
	C1655.447021,443.973053 1650.583008,439.428833 1650.011841,431.521606 
	C1649.951782,430.692627 1650.000000,429.855774 1650.000000,429.022552 
	C1649.999878,324.037445 1649.991089,219.052307 1650.052734,114.067223 
	C1650.054199,111.498192 1650.398804,108.749252 1651.358398,106.400940 
	C1653.013184,102.351501 1655.993896,99.871521 1660.841797,99.950867 
	C1670.837646,100.114464 1680.838135,99.999512 1690.836670,100.000160 
	C1699.826416,100.000748 1703.984985,104.129341 1703.990234,113.244637 
	C1704.012939,152.405746 1704.000000,191.566849 1704.000000,230.727966 
	C1704.000000,232.502655 1704.000000,234.277328 1704.000000,237.096893 
	C1711.693848,226.164856 1719.962280,217.314606 1730.561157,210.711716 
	C1740.998413,204.209503 1752.193359,200.446594 1764.367065,198.919907 
	C1782.259155,196.676041 1799.745972,197.996887 1816.761841,203.989471 
	C1822.422363,205.982910 1827.832764,208.686783 1833.671631,211.275574 
z"/>
<path fill="#FFFFFF" opacity="1.000000" stroke="none" 
	d="
M2172.204590,443.889069 
	C2162.453125,443.980011 2153.124512,444.037537 2143.796631,443.984894 
	C2136.226562,443.942169 2132.006348,439.610168 2132.001709,432.033844 
	C2131.994873,421.042664 2132.000000,410.051453 2132.000000,398.869202 
	C2127.830078,404.960052 2123.951416,410.983002 2119.713379,416.741455 
	C2110.507812,429.249725 2097.943848,437.290924 2083.735840,442.959381 
	C2068.372070,449.088715 2052.231445,451.163147 2035.936523,449.851593 
	C2009.351562,447.711792 1985.206787,439.086487 1964.628174,421.269531 
	C1942.913330,402.468689 1930.038208,378.960693 1926.158936,350.749268 
	C1924.479736,338.537048 1923.578125,326.006927 1924.273926,313.731812 
	C1925.168213,297.959808 1929.313477,282.723450 1935.842896,268.092163 
	C1942.957886,252.148880 1953.229614,238.687973 1966.241577,227.449463 
	C1980.742310,214.924973 1997.770020,206.807632 2016.334717,202.047485 
	C2032.789917,197.828232 2049.645752,196.894730 2066.416748,198.173874 
	C2091.023193,200.050629 2114.043701,207.601181 2133.897949,222.601410 
	C2151.535889,235.927307 2164.243408,253.325363 2171.926514,274.149445 
	C2176.395508,286.262268 2179.692871,298.709473 2179.973389,311.723022 
	C2180.410400,331.974976 2180.788330,352.229767 2180.964600,372.485321 
	C2181.129639,391.473633 2180.809570,410.467438 2181.100586,429.452698 
	C2181.205566,436.302460 2179.410889,441.351959 2172.204590,443.889069 
M1986.927490,362.606720 
	C1990.411621,371.047211 1996.194702,377.943390 2003.151367,383.437500 
	C2022.412720,398.648804 2044.340942,403.640594 2068.515137,399.045105 
	C2092.377197,394.508881 2109.599365,381.350006 2120.035889,359.523926 
	C2128.295410,342.251221 2129.802002,323.905609 2125.821777,305.454529 
	C2120.979004,283.005310 2109.151855,265.201385 2087.775391,254.981201 
	C2068.482666,245.757431 2048.594238,244.631271 2028.185303,250.913147 
	C2009.175415,256.764374 1995.074707,268.672455 1986.110718,286.178558 
	C1979.597412,298.899200 1977.168091,312.637238 1977.805054,327.146667 
	C1978.347534,339.502319 1980.871094,351.049011 1986.927490,362.606720 
z"/>
<path fill="#FFFFFF" opacity="1.000000" stroke="none" 
	d="
M1247.963623,441.006226 
	C1236.111084,445.548004 1224.309204,448.481323 1211.964722,449.008148 
	C1205.032837,449.303955 1198.087402,450.150970 1191.176514,449.915466 
	C1162.732910,448.946136 1136.432861,440.960663 1113.936279,423.221588 
	C1090.918213,405.071320 1076.700684,381.256805 1070.830078,352.322968 
	C1068.241455,339.565094 1067.168091,326.755859 1068.158325,313.960419 
	C1070.172485,287.934906 1078.100708,263.948059 1095.018677,243.423843 
	C1115.172974,218.973160 1140.879395,204.325455 1172.197266,200.143585 
	C1184.260254,198.532837 1196.642090,197.417343 1208.727905,198.253967 
	C1235.953125,200.138641 1260.751343,209.016373 1282.266968,226.610794 
	C1305.148560,245.322220 1318.330688,269.716797 1323.705933,298.037323 
	C1329.815918,330.229828 1325.307861,361.488525 1308.836060,390.163940 
	C1294.977783,414.289215 1274.106934,430.670532 1247.963623,441.006226 
M1199.310669,400.998138 
	C1204.163574,400.330475 1209.066284,399.911499 1213.860840,398.952271 
	C1235.166748,394.689636 1251.389893,382.968475 1261.857544,364.092896 
	C1272.078491,345.661987 1274.440430,325.629639 1269.839844,305.165222 
	C1264.884766,283.124084 1253.280518,265.462006 1232.459961,255.240616 
	C1215.975220,247.147690 1198.654663,245.144882 1180.468018,248.873734 
	C1161.253662,252.813248 1145.929443,262.186554 1134.889893,278.449982 
	C1121.864624,297.638672 1119.599731,319.008484 1123.227539,341.124603 
	C1125.531616,355.170074 1131.916992,367.740204 1141.765137,378.208588 
	C1157.084473,394.492889 1176.755859,400.244934 1199.310669,400.998138 
z"/>
<path fill="#FFFFFF" opacity="1.000000" stroke="none" 
	d="
M1513.865479,201.004791 
	C1524.526245,204.673019 1535.220337,207.398544 1544.888428,212.192932 
	C1565.342285,222.335953 1581.438110,237.669647 1592.759766,257.581635 
	C1596.585571,264.310303 1599.613281,271.577637 1602.260254,278.869385 
	C1605.320801,287.300262 1600.933105,293.294769 1592.050293,293.067352 
	C1581.058594,292.785919 1570.052612,292.892426 1559.056030,293.051544 
	C1554.503418,293.117401 1551.623169,291.095856 1549.652588,287.225983 
	C1538.354370,265.040070 1519.955811,252.044785 1495.785645,248.233673 
	C1468.403931,243.916153 1443.827759,250.604034 1424.826660,271.865723 
	C1415.436768,282.372620 1409.922607,295.063049 1407.964600,309.189728 
	C1405.835205,324.552032 1406.258545,339.682556 1412.009888,354.278473 
	C1421.613892,378.651337 1439.388672,393.588196 1464.976685,398.942474 
	C1483.639526,402.847626 1501.707886,400.652191 1518.788452,392.004791 
	C1532.047607,385.292084 1542.096069,375.138214 1548.917358,361.985779 
	C1551.512085,356.982635 1554.899902,354.738556 1560.617798,354.908875 
	C1571.273926,355.226318 1581.959717,355.334106 1592.608032,354.905518 
	C1603.144165,354.481384 1604.727661,362.058563 1602.540161,368.600922 
	C1597.436768,383.865295 1589.651001,397.793732 1578.709717,409.808777 
	C1564.255249,425.681793 1546.708008,436.621948 1526.354370,443.312561 
	C1508.608276,449.145966 1490.330078,450.954346 1471.880615,449.855255 
	C1453.383057,448.753296 1435.428955,444.427032 1418.853271,435.892822 
	C1397.685913,424.994751 1380.712769,409.466980 1369.103882,388.437256 
	C1360.580322,372.996857 1355.720337,356.557037 1353.844360,338.934601 
	C1351.044800,312.634674 1354.558716,287.498688 1366.621216,264.028870 
	C1383.436890,231.310715 1410.470093,211.130524 1445.956665,201.987198 
	C1461.948853,197.866760 1478.250366,197.460419 1494.577637,198.126022 
	C1500.891602,198.383423 1507.150024,200.001343 1513.865479,201.004791 
z"/>
<path fill="#FFFFFF" opacity="1.000000" stroke="none" 
	d="
M2230.700684,242.714050 
	C2240.493652,222.667221 2256.852051,211.119965 2276.988525,204.030533 
	C2294.085205,198.011246 2311.820312,196.915100 2329.591309,198.162231 
	C2350.046143,199.597702 2369.394775,205.418228 2385.683594,218.427750 
	C2399.558350,229.509354 2408.451172,244.037491 2411.872559,261.632050 
	C2412.821045,266.511078 2407.588623,272.881012 2402.469482,272.948669 
	C2390.808838,273.102783 2379.142090,273.134705 2367.483398,272.917053 
	C2363.765137,272.847656 2360.572754,271.029419 2359.060303,267.276642 
	C2353.437012,253.325073 2342.030029,248.040161 2328.102295,245.916962 
	C2313.269287,243.655731 2299.335938,245.571411 2286.883789,254.111816 
	C2276.972168,260.909515 2272.644531,275.695953 2280.510498,285.829071 
	C2285.469238,292.216827 2293.278564,294.459351 2300.739502,295.837280 
	C2319.495605,299.301239 2338.442871,301.723236 2357.221436,305.078186 
	C2373.614258,308.006866 2389.084473,313.650055 2401.529053,325.189697 
	C2411.186523,334.144745 2416.914795,345.687561 2417.802246,358.762268 
	C2418.656738,371.351044 2418.757324,384.070831 2414.078857,396.318176 
	C2407.872559,412.566345 2397.286865,425.038269 2382.591309,434.031128 
	C2367.434570,443.306000 2350.798096,447.506073 2333.118652,449.186066 
	C2311.663330,451.224884 2290.884521,449.283051 2270.687012,441.964600 
	C2251.306641,434.942230 2235.419434,423.211395 2226.131348,404.457886 
	C2222.234863,396.590759 2220.321533,387.661682 2218.168213,379.049988 
	C2217.298584,375.571594 2219.112549,372.866180 2223.709717,372.932953 
	C2236.869141,373.124207 2250.037109,373.179688 2263.193115,372.901489 
	C2267.731445,372.805542 2270.462158,374.717224 2272.053223,378.483643 
	C2279.470947,396.041412 2294.209717,400.803711 2311.532471,402.146362 
	C2323.313477,403.059479 2334.658447,402.125458 2345.623291,397.928864 
	C2355.911133,393.991364 2363.434082,386.786133 2364.740723,375.634735 
	C2365.913818,365.623840 2362.043457,358.490326 2350.316406,354.426086 
	C2340.728027,351.103058 2330.413086,349.659760 2320.311279,348.079651 
	C2297.177734,344.461182 2273.639160,342.807739 2252.461426,331.181641 
	C2236.336182,322.329193 2226.612793,309.291656 2223.944580,290.935364 
	C2221.524414,274.285828 2223.008545,258.273529 2230.700684,242.714050 
z"/>
<path fill="#FFFFFF" opacity="1.000000" stroke="none" 
	d="
M1050.000000,421.997742 
	C1050.000000,425.994415 1050.026245,429.493805 1049.994507,432.992645 
	C1049.928467,440.289612 1046.370728,443.959015 1039.178711,443.986023 
	C1026.182007,444.034882 1013.165894,444.440643 1000.193542,443.877045 
	C986.989258,443.303345 973.875488,441.549408 961.552490,436.152069 
	C942.577209,427.841003 931.067139,413.374542 927.138184,393.224304 
	C925.357849,384.093628 924.192139,374.690094 924.135803,365.401917 
	C923.843750,317.248749 924.000000,269.092896 924.000000,220.937973 
	C924.000000,219.140854 924.000000,217.343719 924.000000,214.999985 
	C914.675842,214.999985 905.728760,214.804398 896.794434,215.058060 
	C888.760742,215.286163 884.339966,210.662033 884.865356,203.091644 
	C885.452332,194.634460 884.989502,186.105103 885.003296,177.607193 
	C885.014832,170.506653 888.375366,167.077469 895.585327,167.018768 
	C904.878113,166.943100 914.171936,167.000351 924.000000,167.000351 
	C924.000000,158.993729 924.000000,151.383911 924.000000,143.774094 
	C924.000000,132.943405 923.974182,122.112625 924.008057,111.282043 
	C924.036316,102.245804 927.249146,99.000946 936.045898,99.000191 
	C945.876831,98.999352 955.707764,98.997780 965.538696,99.000679 
	C973.894592,99.003151 976.990540,102.155647 976.996216,110.730560 
	C977.008484,129.222397 977.000000,147.714249 977.000000,166.999985 
	C978.882324,166.999985 980.625549,166.999985 982.368835,166.999985 
	C998.698181,167.000000 1015.027466,166.989441 1031.356812,167.004318 
	C1039.930176,167.012146 1042.997192,170.072556 1042.999634,178.548767 
	C1043.001831,186.713440 1042.550171,194.910278 1043.130981,203.033417 
	C1043.673096,210.614243 1039.369629,215.216858 1030.764160,215.082657 
	C1013.110229,214.807358 995.448975,215.000000 977.000000,215.000000 
	C977.000000,217.051361 977.000000,218.962280 977.000000,220.873184 
	C977.000000,270.361115 977.160767,319.849915 976.902405,369.336456 
	C976.824402,384.281494 987.532776,395.976013 999.837219,397.740082 
	C1012.519287,399.558289 1025.488770,399.492981 1038.343262,399.943451 
	C1046.939453,400.244659 1049.995239,403.009705 1049.999634,411.502289 
	C1050.001343,414.834930 1050.000000,418.167542 1050.000000,421.997742 
z"/>
<path fill="#FFFFFF" opacity="1.000000" stroke="none" 
	d="
M2558.787598,398.361908 
	C2572.527588,399.079712 2585.925049,399.651886 2599.328613,399.950500 
	C2605.593018,400.090088 2607.354248,401.315796 2607.099365,407.633148 
	C2606.716797,417.113586 2607.006592,426.620850 2606.997559,436.116699 
	C2606.991455,442.825165 2605.874756,443.990417 2599.391357,443.996216 
	C2585.730713,444.008453 2572.042480,444.546265 2558.416016,443.865051 
	C2540.402832,442.964539 2522.835449,440.252319 2507.433350,429.270355 
	C2494.970215,420.384125 2487.850586,408.200226 2485.279785,393.849792 
	C2482.972656,380.970947 2482.244385,367.679718 2482.137939,354.559692 
	C2481.776611,310.082031 2482.000000,265.599640 2482.000000,221.119064 
	C2482.000000,219.305527 2482.000000,217.491989 2482.000000,215.000000 
	C2472.496094,215.000000 2463.237793,214.935303 2453.980957,215.016373 
	C2442.374023,215.118011 2442.893799,215.487701 2442.985107,203.818893 
	C2443.059570,194.323639 2442.984863,184.827271 2443.005615,175.331467 
	C2443.018799,169.349319 2444.308105,168.021469 2450.160889,168.007248 
	C2460.612549,167.981857 2471.064209,168.000107 2482.000000,168.000107 
	C2482.000000,157.606354 2482.000000,147.659653 2482.000000,137.712952 
	C2482.000000,127.717316 2481.966064,117.721519 2482.012939,107.726105 
	C2482.040039,101.950531 2484.006836,100.007278 2489.642822,100.003021 
	C2502.303955,99.993462 2514.967285,100.135948 2527.625000,99.929604 
	C2532.333008,99.852859 2534.111816,101.506134 2534.071777,106.292664 
	C2533.902344,126.607407 2534.000000,146.924377 2534.000000,167.999985 
	C2535.920654,167.999985 2537.668457,167.999985 2539.416016,167.999985 
	C2557.574707,168.000015 2575.733643,167.990280 2593.892334,168.006653 
	C2598.668701,168.010971 2600.914307,170.012207 2600.962158,174.762192 
	C2601.074707,185.922836 2601.075684,197.086212 2600.962158,208.246841 
	C2600.913818,212.992935 2598.665283,214.989120 2593.883301,214.993423 
	C2575.891113,215.009628 2557.898926,214.999969 2539.906738,215.000000 
	C2538.112793,215.000000 2536.318604,215.000000 2534.183594,215.000000 
	C2534.109863,216.508286 2534.007324,217.625259 2534.007324,218.742279 
	C2533.999023,268.387268 2533.656982,318.035950 2534.186768,367.675293 
	C2534.370850,384.917664 2542.799805,394.311462 2558.787598,398.361908 
z"/>
<path fill="#FFFFFF" opacity="1.000000" stroke="none" 
	d="
M2660.000000,402.000000 
	C2660.000000,339.548492 2659.999512,277.597015 2660.000732,215.645523 
	C2660.000732,206.041519 2662.013184,204.000412 2671.461670,204.000107 
	C2682.619629,203.999741 2693.777588,203.979675 2704.935547,204.008301 
	C2710.933594,204.023682 2713.596680,206.564362 2713.988037,212.547607 
	C2714.052979,213.542633 2714.000000,214.545441 2714.000000,215.544662 
	C2714.000000,287.488342 2713.968018,359.432037 2714.037842,431.375641 
	C2714.047363,441.067291 2710.657227,444.495972 2701.196777,444.094788 
	C2691.222412,443.671844 2681.216553,444.004303 2671.224365,443.998749 
	C2662.578857,443.993927 2660.008301,441.471069 2660.001953,432.976105 
	C2659.994141,422.817413 2660.000000,412.658691 2660.000000,402.000000 
z"/>
<path fill="#76A4F8" opacity="1.000000" stroke="none" 
	d="
M288.333313,549.058350 
	C288.098267,546.654419 288.628448,544.093018 288.132019,541.749023 
	C283.319580,519.025085 278.433228,496.315063 273.253693,473.673004 
	C272.711365,471.302307 270.146515,469.394257 268.404480,466.834351 
	C280.097473,459.536743 291.876740,452.625275 303.724945,445.834106 
	C311.419403,441.423798 319.214294,437.188751 326.970978,433.333496 
	C327.383820,437.738922 327.450989,441.756439 328.255249,445.620575 
	C331.533173,461.369659 334.881927,477.107758 338.522186,492.776093 
	C340.347748,500.633698 342.855652,508.332794 345.054962,516.103577 
	C327.973938,526.056763 310.892914,536.009949 293.172516,545.905029 
	C291.702789,546.603516 290.872467,547.360046 290.042145,548.116577 
	C289.568848,548.411682 289.095551,548.706726 288.333313,549.058350 
z"/>
<path fill="#6BA8F9" opacity="1.000000" stroke="none" 
	d="
M345.366089,515.942505 
	C342.855652,508.332794 340.347748,500.633698 338.522186,492.776093 
	C334.881927,477.107758 331.533173,461.369659 328.255249,445.620575 
	C327.450989,441.756439 327.383820,437.738922 327.138092,433.038147 
	C341.188049,424.148071 355.077728,416.011719 369.152588,408.190613 
	C370.194946,410.641724 371.361938,412.708069 371.859161,414.924652 
	C375.158600,429.633514 378.509827,444.335663 381.452301,459.118011 
	C383.610748,469.961456 385.171875,480.923737 386.999207,491.833069 
	C373.225189,499.815857 359.451172,507.798676 345.366089,515.942505 
z"/>
<path fill="#FFFFFF" opacity="1.000000" stroke="none" 
	d="
M2653.221436,146.494110 
	C2650.161133,132.582001 2651.478271,119.695877 2661.336914,109.371498 
	C2673.229980,96.916977 2693.689453,95.311020 2708.054443,105.427376 
	C2724.073486,116.708679 2726.823486,138.611649 2718.910400,153.172272 
	C2712.738037,164.529480 2702.890869,170.213486 2689.958008,171.060699 
	C2678.805420,171.791336 2668.983154,168.754028 2661.440918,160.641891 
	C2657.908691,156.842712 2656.020264,151.514908 2653.221436,146.494110 
z"/>
<path fill="#63ABF9" opacity="1.000000" stroke="none" 
	d="
M387.328613,491.751160 
	C385.171875,480.923737 383.610748,469.961456 381.452301,459.118011 
	C378.509827,444.335663 375.158600,429.633514 371.859161,414.924652 
	C371.361938,412.708069 370.194946,410.641724 369.356934,407.916565 
	C381.209747,400.539154 393.043427,393.751038 404.877136,386.962921 
	C406.176056,388.993805 408.170380,390.868622 408.666626,393.079651 
	C413.833862,416.102234 418.792969,439.171875 423.701843,462.251434 
	C424.178436,464.492188 423.931549,466.886871 424.027161,469.668396 
	C411.908569,477.307556 399.783295,484.488403 387.328613,491.751160 
z"/>
<path fill="#82A1F7" opacity="1.000000" stroke="none" 
	d="
M290.360016,548.054749 
	C290.872467,547.360046 291.702789,546.603516 292.817841,545.951233 
	C292.294342,546.701294 291.486115,547.347107 290.360016,548.054749 
z"/>
<path fill="#9D98F6" opacity="1.000000" stroke="none" 
	d="
M63.999451,343.164520 
	C62.569180,341.839630 61.265713,340.330536 59.676487,339.236542 
	C57.696537,337.873596 55.480850,336.853058 53.167305,335.406433 
	C50.073681,321.821320 47.169422,308.516724 44.287624,295.207245 
	C34.853851,251.637772 25.401505,208.072281 16.021961,164.491150 
	C14.133059,155.714539 12.532273,146.875916 10.745249,137.578552 
	C16.272160,128.459229 24.899937,123.504539 33.684357,118.645645 
	C37.700558,136.234100 41.332325,153.508026 45.050602,170.763321 
	C55.260326,218.143295 65.496277,265.517609 75.740868,312.890076 
	C85.844658,359.611450 95.663536,406.397705 106.239159,453.012207 
	C110.513260,471.851227 111.598579,491.600555 120.964523,509.123932 
	C112.427101,504.307281 103.889679,499.490631 95.086777,494.032349 
	C93.611130,490.133453 91.990181,486.966248 91.253433,483.605194 
	C82.554413,443.920685 73.870193,404.231934 65.497276,364.477875 
	C64.037033,357.544769 60.398609,350.540833 63.999451,343.164520 
z"/>
<path fill="#9899F6" opacity="1.000000" stroke="none" 
	d="
M121.049530,509.332886 
	C111.598579,491.600555 110.513260,471.851227 106.239159,453.012207 
	C95.663536,406.397705 85.844658,359.611450 75.740868,312.890076 
	C65.496277,265.517609 55.260326,218.143295 45.050602,170.763321 
	C41.332325,153.508026 37.700558,136.234100 34.014626,118.567841 
	C38.932312,115.361336 43.864693,112.555664 49.432598,109.879875 
	C51.305504,112.089813 53.051994,114.028412 53.677147,116.278557 
	C55.096722,121.388115 55.940914,126.656044 57.060883,131.850555 
	C64.586060,166.753036 72.090332,201.660126 79.727989,236.537994 
	C80.225586,238.810303 81.774094,240.852448 82.891182,243.464249 
	C82.965233,247.086151 82.608971,250.307327 83.119431,253.384720 
	C83.510132,255.740036 84.996201,257.913666 86.000427,260.575500 
	C86.093857,261.976685 86.075729,262.993439 86.285370,263.960876 
	C93.547607,297.472504 100.953552,330.953552 108.054024,364.499329 
	C111.045990,378.634735 113.399864,392.905182 115.859024,407.380798 
	C115.551605,409.406372 110.037727,407.063812 113.037521,411.530762 
	C114.043282,414.703552 115.298798,417.449188 115.928032,420.331512 
	C122.581017,450.807281 129.154678,481.300476 135.668930,511.806213 
	C136.102371,513.836060 135.875534,516.006897 135.955795,518.112122 
	C131.834549,515.792603 127.713310,513.473022 123.104813,510.844208 
	C122.382858,510.346222 122.134087,510.178345 121.871231,510.031311 
	C121.559441,509.967865 121.313881,509.804718 121.049530,509.332886 
z"/>
<path fill="#79A3F8" opacity="1.000000" stroke="none" 
	d="
M221.608917,8.953131 
	C227.957443,36.360615 233.955826,63.837086 239.827530,92.012909 
	C223.508316,102.153564 207.315781,111.594864 190.830399,120.828186 
	C189.567810,118.570023 188.175949,116.614014 187.694229,114.454933 
	C183.329468,94.892433 178.965179,75.326736 174.966217,55.687546 
	C173.733002,49.631023 173.623322,43.345715 172.999207,37.165154 
	C189.085739,27.784142 205.172272,18.403128 221.608917,8.953131 
z"/>
<path fill="#82A1F7" opacity="1.000000" stroke="none" 
	d="
M172.670349,37.246552 
	C173.623322,43.345715 173.733002,49.631023 174.966217,55.687546 
	C178.965179,75.326736 183.329468,94.892433 187.694229,114.454933 
	C188.175949,116.614014 189.567810,118.570023 190.624664,121.110466 
	C178.819031,128.442215 166.926285,135.283722 155.027115,141.663071 
	C154.862473,138.220810 155.081528,135.162369 154.481781,132.273941 
	C151.644974,118.611809 148.477280,105.018417 145.636719,91.357033 
	C143.273483,79.991417 141.200897,68.565376 138.999573,57.166107 
	C149.151093,51.169628 159.304337,45.176060 169.451385,39.172043 
	C170.434357,38.590431 171.379044,37.944187 172.670349,37.246552 
z"/>
<path fill="#959AF6" opacity="1.000000" stroke="none" 
	d="
M82.833755,243.001663 
	C81.774094,240.852448 80.225586,238.810303 79.727989,236.537994 
	C72.090332,201.660126 64.586060,166.753036 57.060883,131.850555 
	C55.940914,126.656044 55.096722,121.388115 53.677147,116.278557 
	C53.051994,114.028412 51.305504,112.089813 49.753468,109.742462 
	C58.712570,103.988800 67.986328,98.502441 77.631882,93.366020 
	C83.493378,119.390297 88.939308,145.074249 94.569939,170.717636 
	C94.950821,172.452286 96.722961,173.881454 97.546188,175.661011 
	C93.867157,177.900650 90.643723,180.279572 87.067642,181.861099 
	C83.786407,183.312241 82.914825,185.343582 82.931892,188.739563 
	C83.022850,206.826294 82.889488,224.914185 82.833755,243.001663 
z"/>
<path fill="#8E9CF7" opacity="1.000000" stroke="none" 
	d="
M97.848045,175.452698 
	C96.722961,173.881454 94.950821,172.452286 94.569939,170.717636 
	C88.939308,145.074249 83.493378,119.390297 77.984428,93.299149 
	C85.710518,88.268112 93.455856,83.653893 101.799759,79.257996 
	C103.865959,84.701866 105.633621,89.864273 106.748962,95.163963 
	C111.422455,117.370605 115.900497,139.618378 120.242096,162.096313 
	C112.638725,166.711914 105.243385,171.082306 97.848045,175.452698 
z"/>
<path fill="#879FF7" opacity="1.000000" stroke="none" 
	d="
M138.664368,57.238800 
	C141.200897,68.565376 143.273483,79.991417 145.636719,91.357033 
	C148.477280,105.018417 151.644974,118.611809 154.481781,132.273941 
	C155.081528,135.162369 154.862473,138.220810 154.825043,141.936905 
	C149.431473,145.489456 144.233582,148.306030 138.949463,150.750534 
	C137.700897,146.406662 136.313095,142.484985 135.417480,138.453934 
	C132.434113,125.026344 129.547668,111.575874 126.779091,98.102325 
	C124.714561,88.055161 122.889893,77.958710 120.958405,67.884209 
	C126.748657,64.359978 132.538910,60.835739 138.664368,57.238800 
z"/>
<path fill="#8A9EF7" opacity="1.000000" stroke="none" 
	d="
M120.604294,67.949844 
	C122.889893,77.958710 124.714561,88.055161 126.779091,98.102325 
	C129.547668,111.575874 132.434113,125.026344 135.417480,138.453934 
	C136.313095,142.484985 137.700897,146.406662 138.782227,151.047745 
	C132.617523,155.095047 126.533829,158.473068 120.450127,161.851089 
	C115.900497,139.618378 111.422455,117.370605 106.748962,95.163963 
	C105.633621,89.864273 103.865959,84.701866 102.150574,79.208740 
	C108.018616,75.299271 114.134392,71.657372 120.604294,67.949844 
z"/>
<path fill="#A096F5" opacity="1.000000" stroke="none" 
	d="
M63.661491,343.235413 
	C60.398609,350.540833 64.037033,357.544769 65.497276,364.477875 
	C73.870193,404.231934 82.554413,443.920685 91.253433,483.605194 
	C91.990181,486.966248 93.611130,490.133453 94.890213,493.754578 
	C85.843193,488.805359 76.727272,483.492249 67.390274,477.650116 
	C67.073082,474.669830 67.334679,472.141815 66.827232,469.778900 
	C59.117798,433.880371 51.328735,397.998871 43.460026,362.134918 
	C43.058819,360.306244 41.770481,358.672272 40.895195,356.947632 
	C48.371304,352.400513 55.847416,347.853394 63.661491,343.235413 
z"/>
<path fill="#939BF6" opacity="1.000000" stroke="none" 
	d="
M161.036865,438.876312 
	C163.848633,452.545380 166.594406,466.228455 169.488068,479.880188 
	C173.555923,499.071381 177.782791,518.229065 181.788437,537.432983 
	C182.190628,539.361145 181.536697,541.509521 181.136627,543.806519 
	C173.884796,540.140564 166.855255,536.248474 159.860931,532.294067 
	C157.294327,530.843018 154.811081,529.244568 152.205658,527.037781 
	C152.053452,523.906006 152.357224,521.371338 151.858383,519.006042 
	C147.943787,500.443817 143.827560,481.924225 139.870132,463.370880 
	C136.852173,449.221954 133.975464,435.042938 131.344269,421.048889 
	C141.447357,427.105743 151.242111,432.991028 161.036865,438.876312 
z"/>
<path fill="#A495F5" opacity="1.000000" stroke="none" 
	d="
M40.540237,356.991608 
	C41.770481,358.672272 43.058819,360.306244 43.460026,362.134918 
	C51.328735,397.998871 59.117798,433.880371 66.827232,469.778900 
	C67.334679,472.141815 67.073082,474.669830 67.086220,477.477386 
	C60.450737,474.112885 53.898232,470.392029 47.150665,466.391998 
	C47.082512,463.847809 47.714462,461.475739 47.260429,459.333893 
	C40.638023,428.093018 33.870502,396.882874 27.050753,365.271698 
	C31.371035,362.263855 35.778156,359.649719 40.540237,356.991608 
z"/>
<path fill="#969AF6" opacity="1.000000" stroke="none" 
	d="
M131.035919,420.877289 
	C133.975464,435.042938 136.852173,449.221954 139.870132,463.370880 
	C143.827560,481.924225 147.943787,500.443817 151.858383,519.006042 
	C152.357224,521.371338 152.053452,523.906006 152.039398,526.738159 
	C146.756332,524.298706 141.555374,521.483154 136.155106,518.389893 
	C135.875534,516.006897 136.102371,513.836060 135.668930,511.806213 
	C129.154678,481.300476 122.581017,450.807281 115.928032,420.331512 
	C115.298798,417.449188 114.043282,414.703552 113.397110,411.496429 
	C119.489105,414.358032 125.262512,417.617645 131.035919,420.877289 
z"/>
<path fill="#9D98F6" opacity="1.000000" stroke="none" 
	d="
M121.984917,510.248352 
	C122.134087,510.178345 122.382858,510.346222 122.786171,510.684204 
	C122.589783,510.895935 122.304382,510.773224 121.984917,510.248352 
z"/>
<path fill="#82bc0000" opacity="1.000000" stroke="none" 
	d="
M120.242096,162.096313 
	C126.533829,158.473068 132.617523,155.095047 138.868469,151.419830 
	C144.233582,148.306030 149.431473,145.489456 154.831451,142.399048 
	C166.926285,135.283722 178.819031,128.442215 190.917511,121.318443 
	C207.315781,111.594864 223.508316,102.153564 239.868240,92.416946 
	C240.362274,92.056244 240.790268,92.101845 241.000931,91.909454 
	C248.860550,84.731789 255.408096,89.685188 262.409546,93.829674 
	C285.270996,107.362450 308.294983,120.620659 331.610352,134.052307 
	C346.617645,142.894012 361.271057,151.667877 376.765045,160.945053 
	C368.144012,166.028198 360.251923,170.681534 351.807434,175.677094 
	C335.789551,184.875031 320.289642,193.671478 304.873444,202.612183 
	C297.483185,206.898193 290.251282,211.457275 282.592468,215.956268 
	C265.492737,225.735229 248.748245,235.450577 231.670288,245.236984 
	C219.186569,252.524796 207.036346,259.741547 194.536469,267.002899 
	C184.278244,272.855133 174.369644,278.662781 164.140289,284.605530 
	C159.399002,287.229919 154.649643,289.288452 150.656342,292.337311 
	C147.112549,295.042938 144.694122,294.030975 141.491226,292.100647 
	C135.474747,288.474609 129.205887,285.267303 122.844467,281.611084 
	C110.429657,274.280212 98.212357,267.224182 85.995064,260.168121 
	C84.996201,257.913666 83.510132,255.740036 83.119431,253.384720 
	C82.608971,250.307327 82.965233,247.086151 82.891174,243.464249 
	C82.889488,224.914185 83.022850,206.826294 82.931892,188.739563 
	C82.914825,185.343582 83.786407,183.312241 87.067642,181.861099 
	C90.643723,180.279572 93.867157,177.900650 97.546188,175.661011 
	C105.243385,171.082306 112.638725,166.711914 120.242096,162.096313 
z"/>
<path fill="#82bc0000" opacity="1.000000" stroke="none" 
	d="
M131.344269,421.048889 
	C125.262512,417.617645 119.489105,414.358032 113.356102,411.132751 
	C110.037727,407.063812 115.551605,409.406372 116.170738,407.220673 
	C119.660736,405.100677 122.701317,403.484802 125.638290,401.698517 
	C132.469223,397.543854 139.250244,393.307098 146.407654,389.042908 
	C159.542755,381.673157 172.321686,374.364075 185.450195,367.007874 
	C195.532333,361.251434 205.264877,355.542114 215.327560,349.752258 
	C217.051865,348.798279 218.432739,347.902740 219.842377,347.054993 
	C229.236328,341.405884 238.636429,335.766998 248.390564,330.056488 
	C260.282532,323.367767 271.853851,316.807953 283.340790,310.103607 
	C289.977264,306.230225 296.477570,302.123596 303.393250,298.054230 
	C315.409515,291.258362 327.128479,284.625519 338.692841,277.733246 
	C341.495361,276.062927 343.548279,276.096832 346.336609,277.755249 
	C355.779694,283.371735 365.402557,288.685944 374.956696,294.115692 
	C383.438110,299.122192 391.853241,304.246307 400.431854,309.080322 
	C404.128998,311.163574 406.245636,313.257507 406.157715,318.157837 
	C405.785522,338.902283 406.019165,359.657288 405.968750,380.408264 
	C405.964050,382.345764 405.519104,384.282227 405.077881,386.591034 
	C393.043427,393.751038 381.209747,400.539154 369.171722,407.601349 
	C355.077728,416.011719 341.188049,424.148071 327.131287,432.579773 
	C319.214294,437.188751 311.419403,441.423798 303.724945,445.834106 
	C291.876740,452.625275 280.097473,459.536743 268.083893,466.679596 
	C259.147522,471.919067 250.489227,477.014038 241.619415,481.709442 
	C239.967331,482.584015 237.054260,482.612793 235.425949,481.732239 
	C228.058929,477.748352 220.944122,473.298035 213.387787,468.947021 
	C195.941162,458.922363 178.845245,448.966370 161.393097,438.943329 
	C151.242111,432.991028 141.447357,427.105743 131.344269,421.048889 
z"/>
<path fill="#68A9F9" opacity="1.000000" stroke="none" 
	d="
M374.964111,293.677429 
	C365.402557,288.685944 355.779694,283.371735 346.336609,277.755249 
	C343.548279,276.096832 341.495361,276.062927 338.692841,277.733246 
	C327.128479,284.625519 315.409515,291.258362 303.292908,297.687195 
	C302.215271,295.682159 301.385071,294.021667 301.001068,292.263702 
	C297.247437,275.078613 293.726837,257.840942 289.799835,240.696106 
	C287.886627,232.343353 285.254395,224.155304 282.947662,215.892700 
	C290.251282,211.457275 297.483185,206.898193 304.873444,202.612183 
	C320.289642,193.671478 335.789551,184.875031 351.606140,175.950684 
	C353.217468,184.218643 354.087982,192.636551 355.808319,200.877060 
	C361.863251,229.880600 368.220947,258.820892 374.419586,287.794617 
	C374.798920,289.567688 374.796417,291.422424 374.964111,293.677429 
z"/>
<path fill="#82bc0000" opacity="1.000000" stroke="none" 
	d="
M1986.706909,362.296631 
	C1980.871094,351.049011 1978.347534,339.502319 1977.805054,327.146667 
	C1977.168091,312.637238 1979.597412,298.899200 1986.110718,286.178558 
	C1995.074707,268.672455 2009.175415,256.764374 2028.185303,250.913147 
	C2048.594238,244.631271 2068.482666,245.757431 2087.775391,254.981201 
	C2109.151855,265.201385 2120.979004,283.005310 2125.821777,305.454529 
	C2129.802002,323.905609 2128.295410,342.251221 2120.035889,359.523926 
	C2109.599365,381.350006 2092.377197,394.508881 2068.515137,399.045105 
	C2044.340942,403.640594 2022.412720,398.648804 2003.151367,383.437500 
	C1996.194702,377.943390 1990.411621,371.047211 1986.706909,362.296631 
z"/>
<path fill="#82bc0000" opacity="1.000000" stroke="none" 
	d="
M1198.847656,400.998962 
	C1176.755859,400.244934 1157.084473,394.492889 1141.765137,378.208588 
	C1131.916992,367.740204 1125.531616,355.170074 1123.227539,341.124603 
	C1119.599731,319.008484 1121.864624,297.638672 1134.889893,278.449982 
	C1145.929443,262.186554 1161.253662,252.813248 1180.468018,248.873734 
	C1198.654663,245.144882 1215.975220,247.147690 1232.459961,255.240616 
	C1253.280518,265.462006 1264.884766,283.124084 1269.839844,305.165222 
	C1274.440430,325.629639 1272.078491,345.661987 1261.857544,364.092896 
	C1251.389893,382.968475 1235.166748,394.689636 1213.860840,398.952271 
	C1209.066284,399.911499 1204.163574,400.330475 1198.847656,400.998962 
z"/>
<path fill="#949AF6" opacity="1.000000" stroke="none" 
	d="
M146.051483,389.103607 
	C139.250244,393.307098 132.469223,397.543854 125.638290,401.698517 
	C122.701317,403.484802 119.660736,405.100677 116.355515,406.954102 
	C113.399864,392.905182 111.045990,378.634735 108.054024,364.499329 
	C100.953552,330.953552 93.547607,297.472504 86.285370,263.960876 
	C86.075729,262.993439 86.093857,261.976685 86.000427,260.575500 
	C98.212357,267.224182 110.429657,274.280212 122.871231,282.019470 
	C127.416809,302.888794 131.716705,323.079498 136.066437,343.259521 
	C139.361832,358.547974 142.720795,373.822754 146.051483,389.103607 
z"/>
<path fill="#76A4F8" opacity="1.000000" stroke="none" 
	d="
M282.592468,215.956284 
	C285.254395,224.155304 287.886627,232.343353 289.799835,240.696106 
	C293.726837,257.840942 297.247437,275.078613 301.001068,292.263702 
	C301.385071,294.021667 302.215271,295.682159 302.938782,297.754883 
	C296.477570,302.123596 289.977264,306.230225 283.340790,310.103607 
	C271.853851,316.807953 260.282532,323.367767 248.464874,329.655609 
	C248.322968,327.034912 248.977982,324.638733 248.524048,322.475189 
	C243.112854,296.685394 237.536697,270.930206 232.003754,245.165924 
	C248.748245,235.450577 265.492737,225.735229 282.592468,215.956284 
z"/>
<path fill="#8C9DF7" opacity="1.000000" stroke="none" 
	d="
M146.407654,389.042908 
	C142.720795,373.822754 139.361832,358.547974 136.066437,343.259521 
	C131.716705,323.079498 127.416809,302.888794 123.068741,282.294281 
	C129.205887,285.267303 135.474747,288.474609 141.491226,292.100647 
	C144.694122,294.030975 147.112549,295.042938 150.656342,292.337311 
	C154.649643,289.288452 159.399002,287.229919 164.444275,284.886902 
	C166.170242,287.206024 167.765671,289.266144 168.291306,291.570251 
	C171.363983,305.039734 174.127197,318.579437 177.110855,332.069733 
	C179.694016,343.749207 182.431412,355.394562 185.100616,367.054993 
	C172.321686,374.364075 159.542755,381.673157 146.407654,389.042908 
z"/>
<path fill="#7FA2F8" opacity="1.000000" stroke="none" 
	d="
M231.670288,245.237000 
	C237.536697,270.930206 243.112854,296.685394 248.524048,322.475189 
	C248.977982,324.638733 248.322968,327.034912 248.108856,329.723907 
	C238.636429,335.766998 229.236328,341.405884 219.842377,347.054993 
	C218.432739,347.902740 217.051865,348.798279 215.341095,349.363892 
	C215.068466,346.602570 215.577744,344.050964 215.084427,341.710724 
	C210.161255,318.356537 205.031586,295.045898 200.081207,271.697327 
	C199.433044,268.640259 198.180862,266.830261 194.886108,266.958313 
	C207.036346,259.741547 219.186569,252.524796 231.670288,245.237000 
z"/>
<path fill="#84A0F7" opacity="1.000000" stroke="none" 
	d="
M194.536469,267.002899 
	C198.180862,266.830261 199.433044,268.640259 200.081207,271.697327 
	C205.031586,295.045898 210.161255,318.356537 215.084427,341.710724 
	C215.577744,344.050964 215.068466,346.602570 215.010956,349.444427 
	C205.264877,355.542114 195.532333,361.251434 185.450195,367.007874 
	C182.431412,355.394562 179.694016,343.749207 177.110855,332.069733 
	C174.127197,318.579437 171.363983,305.039734 168.291306,291.570251 
	C167.765671,289.266144 166.170242,287.206024 164.765045,284.751831 
	C174.369644,278.662781 184.278244,272.855133 194.536469,267.002899 
z"/>
</svg>