<svg width="1011" height="210" viewBox="0 0 1011 210" fill="none" xmlns="http://www.w3.org/2000/svg">
<path d="M317.26 157.12C309.793 157.12 302.653 156 295.84 153.76C289.027 151.427 283.66 148.44 279.74 144.8L284.92 133.88C288.653 137.147 293.413 139.853 299.2 142C304.987 144.147 311.007 145.22 317.26 145.22C322.953 145.22 327.573 144.567 331.12 143.26C334.667 141.953 337.28 140.18 338.96 137.94C340.64 135.607 341.48 132.993 341.48 130.1C341.48 126.74 340.36 124.033 338.12 121.98C335.973 119.927 333.127 118.293 329.58 117.08C326.127 115.773 322.3 114.653 318.1 113.72C313.9 112.787 309.653 111.713 305.36 110.5C301.16 109.193 297.287 107.56 293.74 105.6C290.287 103.64 287.487 101.027 285.34 97.76C283.193 94.4 282.12 90.1067 282.12 84.88C282.12 79.84 283.427 75.22 286.04 71.02C288.747 66.7267 292.853 63.32 298.36 60.8C303.96 58.1867 311.053 56.88 319.64 56.88C325.333 56.88 330.98 57.6267 336.58 59.12C342.18 60.6133 347.033 62.76 351.14 65.56L346.52 76.76C342.32 73.96 337.887 71.9533 333.22 70.74C328.553 69.4333 324.027 68.78 319.64 68.78C314.133 68.78 309.607 69.48 306.06 70.88C302.513 72.28 299.9 74.1467 298.22 76.48C296.633 78.8133 295.84 81.4267 295.84 84.32C295.84 87.7733 296.913 90.5267 299.06 92.58C301.3 94.6333 304.147 96.2667 307.6 97.48C311.147 98.6933 315.02 99.8133 319.22 100.84C323.42 101.773 327.62 102.847 331.82 104.06C336.113 105.273 339.987 106.86 343.44 108.82C346.987 110.78 349.833 113.393 351.98 116.66C354.127 119.927 355.2 124.127 355.2 129.26C355.2 134.207 353.847 138.827 351.14 143.12C348.433 147.32 344.233 150.727 338.54 153.34C332.94 155.86 325.847 157.12 317.26 157.12ZM399.173 156.84C391.706 156.84 385.92 154.833 381.813 150.82C377.706 146.807 375.653 141.067 375.653 133.6V65.56H389.093V133.04C389.093 137.053 390.073 140.133 392.033 142.28C394.086 144.427 396.98 145.5 400.713 145.5C404.913 145.5 408.413 144.333 411.213 142L415.413 151.66C413.36 153.433 410.886 154.74 407.993 155.58C405.193 156.42 402.253 156.84 399.173 156.84ZM363.053 92.86V81.8H410.373V92.86H363.053ZM460.981 156.84C453.514 156.84 446.888 155.207 441.101 151.94C435.314 148.673 430.741 144.193 427.381 138.5C424.021 132.713 422.341 126.18 422.341 118.9C422.341 111.527 424.021 104.993 427.381 99.3C430.741 93.6067 435.314 89.1733 441.101 86C446.888 82.7333 453.514 81.1 460.981 81.1C468.354 81.1 474.934 82.7333 480.721 86C486.601 89.1733 491.174 93.6067 494.441 99.3C497.801 104.9 499.481 111.433 499.481 118.9C499.481 126.273 497.801 132.807 494.441 138.5C491.174 144.193 486.601 148.673 480.721 151.94C474.934 155.207 468.354 156.84 460.981 156.84ZM460.981 145.08C465.741 145.08 469.988 144.007 473.721 141.86C477.548 139.713 480.534 136.68 482.681 132.76C484.828 128.747 485.901 124.127 485.901 118.9C485.901 113.58 484.828 109.007 482.681 105.18C480.534 101.26 477.548 98.2267 473.721 96.08C469.988 93.9333 465.741 92.86 460.981 92.86C456.221 92.86 451.974 93.9333 448.241 96.08C444.508 98.2267 441.521 101.26 439.281 105.18C437.041 109.007 435.921 113.58 435.921 118.9C435.921 124.127 437.041 128.747 439.281 132.76C441.521 136.68 444.508 139.713 448.241 141.86C451.974 144.007 456.221 145.08 460.981 145.08ZM550.408 156.84C542.848 156.84 536.081 155.207 530.108 151.94C524.228 148.673 519.608 144.193 516.248 138.5C512.888 132.807 511.208 126.273 511.208 118.9C511.208 111.527 512.888 104.993 516.248 99.3C519.608 93.6067 524.228 89.1733 530.108 86C536.081 82.7333 542.848 81.1 550.408 81.1C557.128 81.1 563.101 82.4533 568.328 85.16C573.648 87.7733 577.755 91.6933 580.648 96.92L570.428 103.5C568.001 99.86 565.015 97.2 561.468 95.52C558.015 93.7467 554.281 92.86 550.268 92.86C545.415 92.86 541.075 93.9333 537.248 96.08C533.421 98.2267 530.388 101.26 528.148 105.18C525.908 109.007 524.788 113.58 524.788 118.9C524.788 124.22 525.908 128.84 528.148 132.76C530.388 136.68 533.421 139.713 537.248 141.86C541.075 144.007 545.415 145.08 550.268 145.08C554.281 145.08 558.015 144.24 561.468 142.56C565.015 140.787 568.001 138.08 570.428 134.44L580.648 140.88C577.755 146.013 573.648 149.98 568.328 152.78C563.101 155.487 557.128 156.84 550.408 156.84ZM636.712 81.1C642.778 81.1 648.098 82.2667 652.672 84.6C657.338 86.9333 660.978 90.48 663.592 95.24C666.205 100 667.512 106.02 667.512 113.3V156H654.072V114.84C654.072 107.653 652.298 102.24 648.752 98.6C645.298 94.96 640.398 93.14 634.052 93.14C629.292 93.14 625.138 94.0733 621.592 95.94C618.045 97.8067 615.292 100.56 613.332 104.2C611.465 107.84 610.532 112.367 610.532 117.78V156H597.092V52.12H610.532V101.82L607.872 96.5C610.298 91.6467 614.032 87.8667 619.072 85.16C624.112 82.4533 629.992 81.1 636.712 81.1ZM738.445 156V140.32L737.745 137.38V110.64C737.745 104.947 736.065 100.56 732.705 97.48C729.438 94.3067 724.491 92.72 717.865 92.72C713.478 92.72 709.185 93.4667 704.985 94.96C700.785 96.36 697.238 98.2733 694.345 100.7L688.745 90.62C692.571 87.54 697.145 85.2067 702.465 83.62C707.878 81.94 713.525 81.1 719.405 81.1C729.578 81.1 737.418 83.5733 742.925 88.52C748.431 93.4667 751.185 101.027 751.185 111.2V156H738.445ZM714.085 156.84C708.578 156.84 703.725 155.907 699.525 154.04C695.418 152.173 692.245 149.607 690.005 146.34C687.765 142.98 686.645 139.2 686.645 135C686.645 130.987 687.578 127.347 689.445 124.08C691.405 120.813 694.531 118.2 698.825 116.24C703.211 114.28 709.091 113.3 716.465 113.3H739.985V122.96H717.025C710.305 122.96 705.778 124.08 703.445 126.32C701.111 128.56 699.945 131.267 699.945 134.44C699.945 138.08 701.391 141.02 704.285 143.26C707.178 145.407 711.191 146.48 716.325 146.48C721.365 146.48 725.751 145.36 729.485 143.12C733.311 140.88 736.065 137.613 737.745 133.32L740.405 142.56C738.631 146.947 735.505 150.447 731.025 153.06C726.545 155.58 720.898 156.84 714.085 156.84ZM797.336 156.84C791.176 156.84 785.296 156 779.696 154.32C774.19 152.64 769.85 150.587 766.676 148.16L772.276 137.52C775.45 139.667 779.37 141.487 784.036 142.98C788.703 144.473 793.463 145.22 798.316 145.22C804.57 145.22 809.05 144.333 811.756 142.56C814.556 140.787 815.956 138.313 815.956 135.14C815.956 132.807 815.116 130.987 813.436 129.68C811.756 128.373 809.516 127.393 806.716 126.74C804.01 126.087 800.976 125.527 797.616 125.06C794.256 124.5 790.896 123.847 787.536 123.1C784.176 122.26 781.096 121.14 778.296 119.74C775.496 118.247 773.256 116.24 771.576 113.72C769.896 111.107 769.056 107.653 769.056 103.36C769.056 98.88 770.316 94.96 772.836 91.6C775.356 88.24 778.903 85.6733 783.476 83.9C788.143 82.0333 793.65 81.1 799.996 81.1C804.85 81.1 809.75 81.7067 814.696 82.92C819.736 84.04 823.843 85.6733 827.016 87.82L821.276 98.46C817.916 96.22 814.416 94.68 810.776 93.84C807.136 93 803.496 92.58 799.856 92.58C793.976 92.58 789.59 93.56 786.696 95.52C783.803 97.3867 782.356 99.8133 782.356 102.8C782.356 105.32 783.196 107.28 784.876 108.68C786.65 109.987 788.89 111.013 791.596 111.76C794.396 112.507 797.476 113.16 800.836 113.72C804.196 114.187 807.556 114.84 810.916 115.68C814.276 116.427 817.31 117.5 820.016 118.9C822.816 120.3 825.056 122.26 826.736 124.78C828.51 127.3 829.396 130.66 829.396 134.86C829.396 139.34 828.09 143.213 825.476 146.48C822.863 149.747 819.176 152.313 814.416 154.18C809.656 155.953 803.963 156.84 797.336 156.84ZM871.673 156.84C864.206 156.84 858.42 154.833 854.313 150.82C850.206 146.807 848.153 141.067 848.153 133.6V65.56H861.593V133.04C861.593 137.053 862.573 140.133 864.533 142.28C866.586 144.427 869.48 145.5 873.213 145.5C877.413 145.5 880.913 144.333 883.713 142L887.913 151.66C885.86 153.433 883.386 154.74 880.493 155.58C877.693 156.42 874.753 156.84 871.673 156.84ZM835.553 92.86V81.8H882.873V92.86H835.553ZM904.162 156V81.8H917.602V156H904.162ZM910.882 67.52C908.269 67.52 906.075 66.68 904.302 65C902.622 63.32 901.782 61.2667 901.782 58.84C901.782 56.32 902.622 54.22 904.302 52.54C906.075 50.86 908.269 50.02 910.882 50.02C913.495 50.02 915.642 50.86 917.322 52.54C919.095 54.1267 919.982 56.1333 919.982 58.56C919.982 61.08 919.142 63.2267 917.462 65C915.782 66.68 913.589 67.52 910.882 67.52ZM975.603 156.84C968.043 156.84 961.277 155.207 955.303 151.94C949.423 148.673 944.803 144.193 941.443 138.5C938.083 132.807 936.403 126.273 936.403 118.9C936.403 111.527 938.083 104.993 941.443 99.3C944.803 93.6067 949.423 89.1733 955.303 86C961.277 82.7333 968.043 81.1 975.603 81.1C982.323 81.1 988.297 82.4533 993.523 85.16C998.843 87.7733 1002.95 91.6933 1005.84 96.92L995.623 103.5C993.197 99.86 990.21 97.2 986.663 95.52C983.21 93.7467 979.477 92.86 975.463 92.86C970.61 92.86 966.27 93.9333 962.443 96.08C958.617 98.2267 955.583 101.26 953.343 105.18C951.103 109.007 949.983 113.58 949.983 118.9C949.983 124.22 951.103 128.84 953.343 132.76C955.583 136.68 958.617 139.713 962.443 141.86C966.27 144.007 970.61 145.08 975.463 145.08C979.477 145.08 983.21 144.24 986.663 142.56C990.21 140.787 993.197 138.08 995.623 134.44L1005.84 140.88C1002.95 146.013 998.843 149.98 993.523 152.78C988.297 155.487 982.323 156.84 975.603 156.84Z" fill="#121213"/>
<path d="M50.8333 42.5V124.444C50.8333 124.444 22.899 124.444 5 124.444M45.2778 170.278H95.2778V35.5556H205M148.056 78.6111H205M205 129.083L148.056 128.611V205M5 5H205V205H5C5 205 5 144.052 5 105C5 65.9476 5 5 5 5ZM61.9444 33.4722C61.9444 39.9922 56.6589 45.2778 50.1389 45.2778C43.6189 45.2778 38.3333 39.9922 38.3333 33.4722C38.3333 26.9522 43.6189 21.6667 50.1389 21.6667C56.6589 21.6667 61.9444 26.9522 61.9444 33.4722ZM48.0556 169.583C48.0556 176.103 42.77 181.389 36.25 181.389C29.73 181.389 24.4444 176.103 24.4444 169.583C24.4444 163.063 29.73 157.778 36.25 157.778C42.77 157.778 48.0556 163.063 48.0556 169.583ZM152.222 77.9167C152.222 84.4367 146.937 89.7222 140.417 89.7222C133.897 89.7222 128.611 84.4367 128.611 77.9167C128.611 71.3966 133.897 66.1111 140.417 66.1111C146.937 66.1111 152.222 71.3966 152.222 77.9167Z" stroke="url(#paint0_linear_99_2782)" stroke-width="10" stroke-miterlimit="10"/>
<defs>
<linearGradient id="paint0_linear_99_2782" x1="-32" y1="244" x2="304" y2="-71" gradientUnits="userSpaceOnUse">
<stop stop-color="#9097F7"/>
<stop offset="0.411458" stop-color="#6A9AF8" stop-opacity="0.5381"/>
<stop offset="0.723476" stop-color="#46C6FD"/>
<stop offset="1" stop-color="#64A2F9"/>
</linearGradient>
</defs>
</svg>
