<svg version="1.1" id="Layer_1" xmlns="http://www.w3.org/2000/svg" xmlns:xlink="http://www.w3.org/1999/xlink" x="0px" y="0px"
	 width="100%" viewBox="0 0 502 569" enable-background="new 0 0 502 569" xml:space="preserve">
<path fill="#82bc0000" opacity="1.000000" stroke="none" 
	d="
M265.000000,1.000000 
	C344.300812,1.000000 423.601593,1.000000 502.951202,1.000000 
	C502.951202,190.556351 502.951202,380.112701 502.951202,570.000000 
	C419.311615,570.000000 335.622772,570.000000 251.132111,569.699585 
	C250.972824,568.942505 251.552917,568.260437 252.267151,568.062561 
	C265.590179,564.371948 276.551910,556.241699 288.409302,549.058777 
	C299.181519,542.948242 309.589996,536.890869 320.348938,530.807007 
	C329.134125,525.799561 337.568878,520.818604 346.303864,515.850830 
	C346.832001,515.534119 347.059906,515.204224 347.442200,514.881470 
	C347.596588,514.888489 347.745270,514.617493 348.018250,514.402954 
	C357.874146,508.498138 367.457062,502.807831 377.285217,497.056061 
	C377.690338,496.941193 377.850189,496.887756 378.276184,496.868713 
	C378.735565,496.614227 378.928833,496.325317 379.483276,496.013916 
	C388.566956,490.939056 397.289459,485.886627 406.274963,480.870361 
	C406.727631,480.620514 406.917328,480.334534 407.077271,480.037598 
	C407.047485,480.026642 407.070129,480.085846 407.395966,479.942566 
	C417.161102,474.239014 426.600433,468.678741 436.400269,463.062317 
	C440.535492,460.817841 444.367493,458.721802 448.072876,456.421753 
	C455.369690,451.892426 463.161591,447.934784 469.733063,442.510284 
	C483.103302,431.473663 488.110107,416.471130 488.039673,399.389160 
	C487.905701,366.897003 488.039703,334.403778 487.956635,301.911285 
	C487.944916,297.322876 487.549255,292.709106 486.968811,288.153290 
	C485.038361,273.001099 478.117188,260.717560 465.001923,252.575333 
	C451.599152,244.254608 437.909058,236.396606 424.102753,228.192230 
	C435.161530,221.736786 445.911926,215.083008 457.010803,209.072784 
	C472.941772,200.445877 483.773438,188.287476 487.110931,169.961212 
	C490.879761,149.266144 483.007202,130.330048 467.249176,119.377434 
	C451.592712,108.495392 434.496216,99.681137 418.002472,90.009132 
	C404.859161,82.301849 391.706024,74.610123 378.494354,67.021049 
	C368.393250,61.218750 358.193756,55.587742 347.898743,49.561676 
	C336.839264,42.884251 325.919098,36.525696 314.674683,30.014978 
	C309.264130,26.773617 304.235107,23.584755 299.077423,20.619606 
	C292.117249,16.618179 285.058167,12.788859 277.882874,8.569769 
	C273.930756,6.501150 270.112030,4.799464 266.368683,2.945558 
	C265.744415,2.636379 265.447937,1.665249 265.000000,1.000000 
z"/>
<path fill="#82bc0000" opacity="1.000000" stroke="none" 
	d="
M1.000002,156.000000 
	C1.000000,104.391335 1.000000,52.782669 1.000000,1.000000 
	C79.020805,1.000000 157.041748,1.000000 235.865784,1.294626 
	C230.098495,5.021799 223.528137,8.454346 216.595505,11.939949 
	C206.141464,17.956959 196.049698,23.920916 185.597275,29.939919 
	C174.453384,36.315075 163.670151,42.635181 152.564636,49.094833 
	C148.889343,51.147518 145.492462,52.988426 142.193726,54.990971 
	C137.411377,57.894146 132.699936,60.914143 127.628036,63.938694 
	C126.528831,64.383698 125.759827,64.774315 124.724197,65.128799 
	C124.264259,65.382492 124.070938,65.672340 123.555130,66.102943 
	C116.140167,70.458542 109.047707,74.673378 101.593460,78.942154 
	C99.143852,80.171394 97.016769,81.282715 94.975967,82.534668 
	C89.947075,85.619659 84.957794,88.769226 79.588776,91.945198 
	C68.470207,98.292580 57.715450,104.587593 46.599937,110.939018 
	C44.579224,111.985405 42.907127,112.955666 41.261444,113.968842 
	C34.823135,117.932602 28.393175,121.909927 21.643780,126.020981 
	C11.802440,133.474106 5.506546,142.856537 2.909313,154.666351 
	C2.786698,155.223907 1.659409,155.560501 1.000002,156.000000 
z"/>
<path fill="#82bc0000" opacity="1.000000" stroke="none" 
	d="
M226.000000,570.000000 
	C151.088287,570.000000 76.176582,570.000000 1.000000,570.000000 
	C1.000000,521.312744 1.000000,472.625031 1.288177,423.133423 
	C2.383941,424.033203 3.252310,425.711090 3.988884,427.444916 
	C7.717399,436.221680 12.000181,444.727844 20.357075,449.983276 
	C32.395676,457.554016 44.696198,464.708313 56.974220,472.290985 
	C57.369602,472.638153 57.675705,472.734680 58.221100,472.911438 
	C58.624157,473.030334 58.787914,473.069031 59.104946,473.423553 
	C72.135368,481.174927 85.012527,488.610443 98.050125,496.368774 
	C100.349350,497.835754 102.508583,498.943420 104.623352,500.130402 
	C114.052002,505.422394 123.467941,510.737091 133.034027,516.369019 
	C144.497452,523.265808 155.815323,529.837158 167.456848,536.674438 
	C181.149536,544.642334 194.518539,552.344360 208.046631,560.368164 
	C213.869797,563.149292 219.547958,565.577454 225.171997,568.125061 
	C225.635925,568.335266 225.732651,569.355896 226.000000,570.000000 
z"/>
<path fill="#A196F5" opacity="1.000000" stroke="none" 
	d="
M97.889679,496.045990 
	C85.012527,488.610443 72.135368,481.174927 59.264877,473.055023 
	C59.349892,470.255524 59.848839,468.054443 59.437141,466.039459 
	C57.074238,454.474609 54.495052,442.953949 51.989754,431.418213 
	C47.332031,409.971558 42.753361,388.506989 37.900280,367.104645 
	C37.392857,364.866913 35.263397,362.997009 34.031601,360.630981 
	C44.346497,354.336670 54.516308,348.367859 64.988663,342.221497 
	C61.831352,340.386597 58.899143,338.726410 56.009758,336.994781 
	C48.315945,332.383911 40.640533,327.742340 32.967049,322.674225 
	C32.797955,320.423401 32.793251,318.574219 32.415245,316.804749 
	C26.791706,290.480988 21.120451,264.167450 15.456849,237.852249 
	C12.275382,223.070007 9.165995,208.271378 5.830104,193.524017 
	C5.224466,190.846619 5.287233,187.170639 1.000000,187.000000 
	C1.000000,176.979111 1.000000,166.958206 1.000002,156.468658 
	C1.659409,155.560501 2.786698,155.223907 2.909313,154.666351 
	C5.506546,142.856537 11.802440,133.474106 21.633900,126.417313 
	C21.443291,129.723618 20.006113,132.967865 20.593298,135.791092 
	C27.096115,167.057083 33.906464,198.259155 40.646297,229.475784 
	C49.217922,269.176636 57.784531,308.878540 66.383965,348.573364 
	C75.716934,391.654114 85.104050,434.723175 94.416351,477.808380 
	C95.723320,483.855316 96.739105,489.965240 97.889679,496.045990 
z"/>
<path fill="#889EF7" opacity="1.000000" stroke="none" 
	d="
M226.468628,570.000000 
	C225.732651,569.355896 225.635925,568.335266 225.171997,568.125061 
	C219.547958,565.577454 213.869797,563.149292 208.255463,560.105469 
	C208.319656,558.875244 208.463287,558.201538 208.330002,557.587952 
	C202.470291,530.614868 196.476837,503.670074 190.776260,476.663452 
	C189.211136,469.248627 188.513550,461.650665 187.803284,454.099152 
	C202.139282,462.335205 216.089874,470.608887 230.097855,479.279907 
	C234.752670,500.806580 239.424438,521.920105 243.912292,543.072571 
	C245.807678,552.006042 247.315826,561.021729 249.000000,570.000000 
	C241.645752,570.000000 234.291504,570.000000 226.468628,570.000000 
z"/>
<path fill="#A694F5" opacity="1.000000" stroke="none" 
	d="
M33.886505,360.956451 
	C35.263397,362.997009 37.392857,364.866913 37.900280,367.104645 
	C42.753361,388.506989 47.332031,409.971558 51.989754,431.418213 
	C54.495052,442.953949 57.074238,454.474609 59.437141,466.039459 
	C59.848839,468.054443 59.349892,470.255524 59.111610,472.739166 
	C58.787914,473.069031 58.624157,473.030334 58.062950,472.747345 
	C57.433647,472.301025 57.173458,472.146790 56.884945,472.040314 
	C44.696198,464.708313 32.395676,457.554016 20.357075,449.983276 
	C12.000181,444.727844 7.717399,436.221680 3.988884,427.444916 
	C3.252310,425.711090 2.383941,424.033203 1.288177,422.664764 
	C1.000000,414.645782 1.000000,406.291534 1.300116,397.804291 
	C2.064769,396.869263 2.727084,396.121613 2.964607,395.257263 
	C7.531988,378.636627 18.383472,367.705566 33.886505,360.956451 
z"/>
<path fill="#80A1F8" opacity="1.000000" stroke="none" 
	d="
M249.333328,570.000000 
	C247.315826,561.021729 245.807678,552.006042 243.912292,543.072571 
	C239.424438,521.920105 234.752670,500.806580 230.462814,479.335510 
	C232.265869,479.919861 233.657211,481.243835 235.283676,481.669647 
	C237.238708,482.181427 239.813019,482.716980 241.393097,481.876770 
	C250.369537,477.103424 259.129089,471.922241 268.138428,467.192444 
	C269.337616,469.548096 270.794739,471.487823 271.309845,473.651825 
	C273.696960,483.679901 275.819855,493.770905 278.042572,503.838196 
	C281.374634,518.929993 284.710999,534.020752 288.045563,549.111938 
	C276.551910,556.241699 265.590179,564.371948 252.267151,568.062561 
	C251.552917,568.260437 250.972824,568.942505 250.665131,569.699585 
	C250.555557,570.000000 250.111099,570.000000 249.333328,570.000000 
z"/>
<path fill="#6DA8F9" opacity="1.000000" stroke="none" 
	d="
M264.531738,1.000000 
	C265.447937,1.665249 265.744415,2.636379 266.368683,2.945558 
	C270.112030,4.799464 273.930756,6.501150 277.818359,8.936108 
	C277.942291,11.403235 277.680756,13.250215 278.046021,14.963568 
	C282.812042,37.319992 287.738220,59.642391 292.468811,82.006203 
	C294.795929,93.007599 296.802216,104.076851 298.627869,114.967476 
	C287.187714,108.251572 276.073395,101.683601 265.104858,94.776360 
	C265.381897,93.469383 265.800812,92.437721 265.601959,91.543404 
	C261.709137,74.034950 257.650269,56.563011 253.825943,39.039837 
	C251.065826,26.392946 248.598114,13.682244 246.000000,1.000000 
	C252.021149,1.000000 258.042297,1.000000 264.531738,1.000000 
z"/>
<path fill="#73A6F8" opacity="1.000000" stroke="none" 
	d="
M245.545898,1.000000 
	C248.598114,13.682244 251.065826,26.392946 253.825943,39.039837 
	C257.650269,56.563011 261.709137,74.034950 265.601959,91.543404 
	C265.800812,92.437721 265.381897,93.469383 264.743286,94.720947 
	C260.609192,92.924690 256.884979,90.994057 253.388489,88.714180 
	C250.879684,87.078331 248.991058,87.183540 246.458527,88.887100 
	C242.875504,91.297325 238.865189,93.072319 234.964203,94.728043 
	C228.913193,66.853798 222.935486,39.370346 216.957794,11.886894 
	C223.528137,8.454346 230.098495,5.021799 236.334442,1.294626 
	C239.030594,1.000000 242.061188,1.000000 245.545898,1.000000 
z"/>
<path fill="#82bc0000" opacity="1.000000" stroke="none" 
	d="
M34.031593,360.630981 
	C18.383472,367.705566 7.531988,378.636627 2.964607,395.257263 
	C2.727084,396.121613 2.064769,396.869263 1.300116,397.335632 
	C1.000000,360.645782 1.000000,324.291534 1.300044,287.133057 
	C2.067689,287.300903 2.664652,288.232483 2.983519,289.251160 
	C7.919981,305.021484 17.625418,316.553253 32.957813,323.112946 
	C40.640533,327.742340 48.315945,332.383911 56.009758,336.994781 
	C58.899143,338.726410 61.831352,340.386597 64.988663,342.221497 
	C54.516308,348.367859 44.346497,354.336670 34.031593,360.630981 
z"/>
<path fill="#A694F5" opacity="1.000000" stroke="none" 
	d="
M32.967049,322.674225 
	C17.625418,316.553253 7.919981,305.021484 2.983519,289.251160 
	C2.664652,288.232483 2.067689,287.300903 1.300044,286.664398 
	C1.000000,253.979111 1.000000,220.958206 1.000000,187.468658 
	C5.287233,187.170639 5.224466,190.846619 5.830104,193.524017 
	C9.165995,208.271378 12.275382,223.070007 15.456849,237.852249 
	C21.120451,264.167450 26.791706,290.480988 32.415245,316.804749 
	C32.793251,318.574219 32.797955,320.423401 32.967049,322.674225 
z"/>
<path fill="#5AAEFA" opacity="1.000000" stroke="none" 
	d="
M348.038025,49.880547 
	C358.193756,55.587742 368.393250,61.218750 378.494354,67.021049 
	C391.706024,74.610123 404.859161,82.301849 418.002472,90.009132 
	C434.496216,99.681137 451.592712,108.495392 467.249176,119.377434 
	C483.007202,130.330048 490.879761,149.266144 487.110931,169.961212 
	C483.773438,188.287476 472.941772,200.445877 457.010803,209.072784 
	C445.911926,215.083008 435.161530,221.736786 424.102753,228.192230 
	C437.909058,236.396606 451.599152,244.254608 465.001923,252.575333 
	C478.117188,260.717560 485.038361,273.001099 486.968811,288.153290 
	C487.549255,292.709106 487.944916,297.322876 487.956635,301.911285 
	C488.039703,334.403778 487.905701,366.897003 488.039673,399.389160 
	C488.110107,416.471130 483.103302,431.473663 469.733063,442.510284 
	C463.161591,447.934784 455.369690,451.892426 448.072876,456.421753 
	C444.367493,458.721802 440.535492,460.817841 436.370178,462.651154 
	C433.661530,451.434265 431.351562,440.570587 429.023743,429.710754 
	C423.186615,402.478943 417.330536,375.251221 411.514832,348.014832 
	C410.878113,345.032867 410.271942,342.247864 406.092102,343.536682 
	C406.012421,334.163147 406.051727,325.252808 405.954437,316.343903 
	C405.937988,314.837341 405.333313,313.337219 404.985138,311.540710 
	C404.299072,310.870178 403.628235,310.492981 402.653839,310.062958 
	C401.883942,309.709625 401.417664,309.409149 401.133484,308.788330 
	C401.654663,306.458984 402.635162,304.312683 402.238708,302.461212 
	C392.979767,259.221863 383.529449,216.023529 374.273468,172.783569 
	C373.549377,169.400909 372.613068,166.739395 369.388123,165.342346 
	C371.826447,163.823425 374.001343,162.572556 376.700867,161.019958 
	C373.370575,158.762115 370.628204,156.902893 368.203796,154.832596 
	C368.905426,152.617615 369.946808,150.479324 369.569153,148.631012 
	C366.445251,133.342682 363.086395,118.101936 359.744263,102.858719 
	C355.870972,85.193016 351.942535,67.539406 348.038025,49.880547 
z"/>
<path fill="#66AAF9" opacity="1.000000" stroke="none" 
	d="
M298.953674,115.115402 
	C296.802216,104.076851 294.795929,93.007599 292.468811,82.006203 
	C287.738220,59.642391 282.812042,37.319992 278.046021,14.963568 
	C277.680756,13.250215 277.942291,11.403235 277.976990,9.252026 
	C285.058167,12.788859 292.117249,16.618179 299.077423,20.619606 
	C304.235107,23.584755 309.264130,26.773617 314.675110,30.436092 
	C315.206696,32.815777 315.264648,34.654011 315.642761,36.423851 
	C322.229492,67.255455 328.903412,98.068657 335.353943,128.928589 
	C335.741699,130.783493 334.415283,132.996719 333.523193,135.017487 
	C321.757812,128.366333 310.355743,121.740860 298.953674,115.115402 
z"/>
<path fill="#60ACFA" opacity="1.000000" stroke="none" 
	d="
M333.886475,135.043198 
	C334.415283,132.996719 335.741699,130.783493 335.353943,128.928589 
	C328.903412,98.068657 322.229492,67.255455 315.642761,36.423851 
	C315.264648,34.654011 315.206696,32.815777 314.999329,30.588253 
	C325.919098,36.525696 336.839264,42.884251 347.898743,49.561680 
	C351.942535,67.539406 355.870972,85.193016 359.744263,102.858719 
	C363.086395,118.101936 366.445251,133.342682 369.569153,148.631012 
	C369.946808,150.479324 368.905426,152.617615 367.842529,154.807175 
	C362.585236,152.352905 357.965424,149.782166 353.438873,147.056580 
	C346.886017,143.110901 340.400635,139.053146 333.886475,135.043198 
z"/>
<path fill="#60ACFA" opacity="1.000000" stroke="none" 
	d="
M406.165161,344.000336 
	C410.271942,342.247864 410.878113,345.032867 411.514832,348.014832 
	C417.330536,375.251221 423.186615,402.478943 429.023743,429.710754 
	C431.351562,440.570587 433.661530,451.434265 436.009705,462.707336 
	C426.600433,468.678741 417.161102,474.239014 407.379822,479.487091 
	C406.786438,476.209839 406.848541,473.178040 406.233643,470.290405 
	C401.568726,448.383179 396.883087,426.478455 391.860901,404.651855 
	C391.289764,402.169769 388.596222,400.175995 387.032135,397.632385 
	C392.170593,394.332886 397.055511,391.149780 402.199066,388.461426 
	C405.101318,386.944519 406.089600,385.077850 406.063843,381.881439 
	C405.962189,369.255493 406.109924,356.627533 406.165161,344.000336 
z"/>
<path fill="#66AAF9" opacity="1.000000" stroke="none" 
	d="
M386.886810,397.955811 
	C388.596222,400.175995 391.289764,402.169769 391.860901,404.651855 
	C396.883087,426.478455 401.568726,448.383179 406.233643,470.290405 
	C406.848541,473.178040 406.786438,476.209839 407.054016,479.630371 
	C407.070129,480.085846 407.047485,480.026642 406.872162,480.135254 
	C406.433258,480.399750 406.204987,480.596527 406.011963,480.834198 
	C397.289459,485.886627 388.566956,490.939056 379.276062,496.114655 
	C378.439972,496.395569 378.207428,496.594391 378.010071,496.834290 
	C377.850189,496.887756 377.690338,496.941193 377.211884,496.667389 
	C376.591888,495.214600 376.244141,494.099152 375.995972,492.961945 
	C370.960663,469.887787 366.011688,446.794281 360.820831,423.755249 
	C360.128693,420.683228 358.222076,417.884827 357.039246,414.636505 
	C359.340363,413.169464 361.494690,412.052002 363.617279,410.877106 
	C371.379517,406.580353 379.131165,402.264465 386.886810,397.955811 
z"/>
<path fill="#79A4F8" opacity="1.000000" stroke="none" 
	d="
M288.409302,549.058777 
	C284.710999,534.020752 281.374634,518.929993 278.042572,503.838196 
	C275.819855,493.770905 273.696960,483.679901 271.309845,473.651825 
	C270.794739,471.487823 269.337616,469.548096 268.295074,466.877441 
	C272.055573,464.128265 275.834717,462.005493 279.615265,459.885284 
	C286.591980,455.972656 293.569519,452.061646 300.636108,448.616577 
	C304.943298,468.923309 308.998871,488.800049 313.461578,508.584900 
	C315.158875,516.109741 317.791901,523.423523 319.998474,530.833496 
	C309.589996,536.890869 299.181519,542.948242 288.409302,549.058777 
z"/>
<path fill="#6DA8F9" opacity="1.000000" stroke="none" 
	d="
M356.877869,414.959717 
	C358.222076,417.884827 360.128693,420.683228 360.820831,423.755249 
	C366.011688,446.794281 370.960663,469.887787 375.995972,492.961945 
	C376.244141,494.099152 376.591888,495.214600 376.966614,496.728851 
	C367.457062,502.807831 357.874146,508.498138 347.707886,514.104614 
	C346.387177,512.196716 345.381317,510.433197 344.955017,508.539215 
	C341.569244,493.496796 338.164429,478.456421 335.028015,463.360870 
	C332.807404,452.673248 330.995544,441.900696 329.326050,431.013428 
	C338.726532,425.560394 347.802185,420.260040 356.877869,414.959717 
z"/>
<path fill="#73A6F8" opacity="1.000000" stroke="none" 
	d="
M329.001221,431.166077 
	C330.995544,441.900696 332.807404,452.673248 335.028015,463.360870 
	C338.164429,478.456421 341.569244,493.496796 344.955017,508.539215 
	C345.381317,510.433197 346.387177,512.196716 347.434906,514.319092 
	C347.745270,514.617493 347.596588,514.888489 347.204590,515.016846 
	C346.542969,515.375977 346.273285,515.606750 346.003601,515.837585 
	C337.568878,520.818604 329.134125,525.799561 320.348938,530.807007 
	C317.791901,523.423523 315.158875,516.109741 313.461578,508.584900 
	C308.998871,488.800049 304.943298,468.923309 300.833923,448.352051 
	C310.295288,442.135986 319.648254,436.651031 329.001221,431.166077 
z"/>
<path fill="#60ACFA" opacity="1.000000" stroke="none" 
	d="
M406.274963,480.870361 
	C406.204987,480.596527 406.433258,480.399750 406.901917,480.146210 
	C406.917328,480.334534 406.727631,480.620514 406.274963,480.870361 
z"/>
<path fill="#6DA8F9" opacity="1.000000" stroke="none" 
	d="
M378.276184,496.868713 
	C378.207428,496.594391 378.439972,496.395569 378.914886,496.137085 
	C378.928833,496.325317 378.735565,496.614227 378.276184,496.868713 
z"/>
<path fill="#6DA8F9" opacity="1.000000" stroke="none" 
	d="
M346.303833,515.850830 
	C346.273285,515.606750 346.542969,515.375977 347.050232,515.009766 
	C347.059906,515.204224 346.832001,515.534119 346.303833,515.850830 
z"/>
<path fill="#9B98F6" opacity="1.000000" stroke="none" 
	d="
M98.050125,496.368774 
	C96.739105,489.965240 95.723320,483.855316 94.416351,477.808380 
	C85.104050,434.723175 75.716934,391.654114 66.383965,348.573364 
	C57.784531,308.878540 49.217922,269.176636 40.646297,229.475784 
	C33.906464,198.259155 27.096115,167.057083 20.593298,135.791092 
	C20.006113,132.967865 21.443291,129.723618 21.950237,126.278549 
	C28.393175,121.909927 34.823135,117.932602 41.261444,113.968842 
	C42.907127,112.955666 44.579224,111.985405 46.629791,111.348999 
	C48.758766,119.831154 50.476669,127.964195 52.239105,136.087570 
	C59.465385,169.394867 66.726707,202.694595 73.934799,236.005814 
	C83.393250,279.716797 92.833405,323.431763 102.238998,367.154144 
	C105.244308,381.124420 108.114700,395.123749 111.087479,409.366394 
	C111.416664,409.804535 111.705177,409.986084 112.000793,410.561493 
	C112.847672,414.339081 113.773880,417.704041 114.513702,421.109467 
	C121.045242,451.174225 127.572266,481.240082 133.963135,511.334839 
	C134.266617,512.763916 133.276291,514.467712 132.888474,516.043579 
	C123.467941,510.737091 114.052002,505.422394 104.623352,500.130402 
	C102.508583,498.943420 100.349350,497.835754 98.050125,496.368774 
z"/>
<path fill="#959AF6" opacity="1.000000" stroke="none" 
	d="
M111.046829,409.109772 
	C108.114700,395.123749 105.244308,381.124420 102.238998,367.154144 
	C92.833405,323.431763 83.393250,279.716797 73.934799,236.005814 
	C66.726707,202.694595 59.465385,169.394867 52.239105,136.087570 
	C50.476669,127.964195 48.758766,119.831154 46.990540,111.292587 
	C57.715450,104.587593 68.470207,98.292580 79.747467,92.280205 
	C81.064514,94.566162 82.145813,96.505844 82.606804,98.583176 
	C85.481247,111.536133 88.069855,124.553688 91.041092,137.483673 
	C93.856857,149.737106 97.025520,161.909454 99.882736,174.432739 
	C95.228584,177.268860 90.586357,179.573227 86.309059,182.424973 
	C84.757553,183.459381 83.192123,185.778580 83.145538,187.551315 
	C82.857605,198.508484 83.001183,209.476990 83.001251,220.441727 
	C83.001335,233.199326 83.001274,245.956940 83.001274,258.083344 
	C93.373718,264.230133 103.208015,270.058044 113.033875,276.316589 
	C113.111404,277.904449 113.062065,279.090668 113.303055,280.214600 
	C119.982460,311.366364 126.803642,342.488403 133.309479,373.676239 
	C134.775970,380.706421 135.160080,387.962433 135.888153,395.428528 
	C133.273972,397.208405 130.867722,398.774963 128.343277,400.119629 
	C122.608665,403.174316 116.815941,406.119873 111.046829,409.109772 
z"/>
<path fill="#77A4F8" opacity="1.000000" stroke="none" 
	d="
M216.595520,11.939950 
	C222.935486,39.370346 228.913193,66.853798 234.824112,95.048508 
	C232.272064,97.239052 229.819107,98.776131 227.295532,100.186874 
	C219.582672,104.498558 211.842621,108.761642 203.840988,112.794090 
	C202.929901,110.856171 202.074387,109.216072 201.685806,107.471931 
	C198.109344,91.418541 194.468384,75.377098 191.148804,59.269806 
	C189.141922,49.531834 187.670151,39.683575 185.957932,29.884872 
	C196.049698,23.920916 206.141464,17.956959 216.595520,11.939950 
z"/>
<path fill="#7EA2F8" opacity="1.000000" stroke="none" 
	d="
M185.597275,29.939920 
	C187.670151,39.683575 189.141922,49.531834 191.148804,59.269806 
	C194.468384,75.377098 198.109344,91.418541 201.685806,107.471931 
	C202.074387,109.216072 202.929901,110.856171 203.695496,113.117538 
	C193.226654,119.834099 182.631119,125.977638 171.964752,131.736252 
	C167.924652,113.695816 164.007034,96.028481 159.965805,78.389465 
	C157.712357,68.553749 155.253311,58.765133 152.886917,48.955292 
	C163.670151,42.635181 174.453384,36.315075 185.597275,29.939920 
z"/>
<path fill="#84A0F7" opacity="1.000000" stroke="none" 
	d="
M152.564636,49.094837 
	C155.253311,58.765133 157.712357,68.553749 159.965805,78.389465 
	C164.007034,96.028481 167.924652,113.695816 171.807922,132.050476 
	C161.813477,138.444717 151.905029,144.139801 142.004028,149.431885 
	C142.191925,146.418488 142.971664,143.682816 142.456299,141.217926 
	C138.928619,124.346107 134.771759,107.598831 131.564209,90.669968 
	C129.892960,81.849350 125.694740,73.262901 127.958244,63.884308 
	C132.699936,60.914143 137.411377,57.894146 142.193726,54.990971 
	C145.492462,52.988426 148.889343,51.147518 152.564636,49.094837 
z"/>
<path fill="#8A9EF7" opacity="1.000000" stroke="none" 
	d="
M127.628036,63.938690 
	C125.694740,73.262901 129.892960,81.849350 131.564209,90.669968 
	C134.771759,107.598831 138.928619,124.346107 142.456299,141.217926 
	C142.971664,143.682816 142.191925,146.418488 141.679077,149.583984 
	C134.243927,154.132416 127.141190,158.125732 119.884537,161.767258 
	C116.477928,147.036987 113.114822,132.682358 110.005165,118.273010 
	C107.178642,105.175652 104.627686,92.018829 101.955254,78.888214 
	C109.047707,74.673378 116.140167,70.458542 123.763252,66.003632 
	C124.560707,65.604218 124.793022,65.404678 124.990822,65.164940 
	C125.759827,64.774315 126.528831,64.383698 127.628036,63.938690 
z"/>
<path fill="#8F9CF7" opacity="1.000000" stroke="none" 
	d="
M101.593460,78.942154 
	C104.627686,92.018829 107.178642,105.175652 110.005165,118.273010 
	C113.114822,132.682358 116.477928,147.036987 119.740845,162.091095 
	C118.249176,163.597488 116.732780,164.403244 115.247986,165.263550 
	C110.172333,168.204514 105.107780,171.164642 100.038994,174.117462 
	C97.025520,161.909454 93.856857,149.737106 91.041092,137.483673 
	C88.069855,124.553688 85.481247,111.536133 82.606804,98.583176 
	C82.145813,96.505844 81.064514,94.566162 80.111282,92.227844 
	C84.957794,88.769226 89.947075,85.619659 94.975967,82.534668 
	C97.016769,81.282715 99.143852,80.171394 101.593460,78.942154 
z"/>
<path fill="#84A0F7" opacity="1.000000" stroke="none" 
	d="
M124.724197,65.128799 
	C124.793022,65.404678 124.560707,65.604218 124.085754,65.862885 
	C124.070938,65.672340 124.264259,65.382492 124.724197,65.128799 
z"/>
<path fill="#8F9CF7" opacity="1.000000" stroke="none" 
	d="
M187.417877,454.136749 
	C188.513550,461.650665 189.211136,469.248627 190.776260,476.663452 
	C196.476837,503.670074 202.470291,530.614868 208.330002,557.587952 
	C208.463287,558.201538 208.319656,558.875244 208.096375,559.783630 
	C194.518539,552.344360 181.149536,544.642334 167.919312,536.590942 
	C172.179031,535.296875 170.263794,532.413208 169.801910,530.263000 
	C163.381653,500.375153 156.829315,470.515503 150.498734,440.608856 
	C149.990768,438.209198 150.875504,435.514709 151.472046,432.981598 
	C153.334366,433.918854 154.829224,434.846039 156.342346,435.742401 
	C166.698715,441.877441 177.058914,448.006073 187.417877,454.136749 
z"/>
<path fill="#959AF6" opacity="1.000000" stroke="none" 
	d="
M151.113052,432.957245 
	C150.875504,435.514709 149.990768,438.209198 150.498734,440.608856 
	C156.829315,470.515503 163.381653,500.375153 169.801910,530.263000 
	C170.263794,532.413208 172.179031,535.296875 167.595642,536.325073 
	C155.815323,529.837158 144.497452,523.265808 133.034042,516.369019 
	C133.276291,514.467712 134.266617,512.763916 133.963135,511.334839 
	C127.572266,481.240082 121.045242,451.174225 114.513702,421.109467 
	C113.773880,417.704041 112.847672,414.339081 112.353767,410.587158 
	C125.504112,417.798401 138.308578,425.377838 151.113052,432.957245 
z"/>
<path fill="#A196F5" opacity="1.000000" stroke="none" 
	d="
M56.974220,472.290985 
	C57.173458,472.146790 57.433647,472.301025 57.823654,472.667114 
	C57.675705,472.734680 57.369602,472.638153 56.974220,472.290985 
z"/>
<path fill="#82bc0000" opacity="1.000000" stroke="none" 
	d="
M151.472046,432.981598 
	C138.308578,425.377838 125.504112,417.798401 112.346664,410.193298 
	C111.705177,409.986084 111.416664,409.804535 111.087486,409.366394 
	C116.815941,406.119873 122.608665,403.174316 128.343277,400.119629 
	C130.867722,398.774963 133.273972,397.208405 136.251801,395.374207 
	C144.846207,390.282013 152.922684,385.558167 161.350281,380.808044 
	C171.470490,375.133209 181.239548,369.484680 191.303192,363.852539 
	C191.820908,363.546722 192.043991,363.224487 192.441132,362.888763 
	C192.615189,362.875275 192.783646,362.569458 193.059875,362.361450 
	C203.890305,356.046967 214.444504,349.940460 225.349548,343.807434 
	C230.729431,340.863953 235.800858,338.017181 240.777039,335.012665 
	C247.240021,331.110474 253.627258,327.082886 260.412598,323.056946 
	C266.122894,320.013123 271.533264,317.131866 276.795746,314.001953 
	C283.275696,310.147949 289.632416,306.086700 296.407837,302.060150 
	C307.846924,295.614380 318.920654,289.223419 330.342743,282.806885 
	C334.111664,280.696472 337.450073,278.451477 341.005280,276.629517 
	C342.006287,276.116547 343.862366,276.453827 344.953033,277.066010 
	C352.358154,281.222412 359.663330,285.556854 367.327087,289.987427 
	C369.316162,291.138458 370.958313,292.172302 372.645111,293.127167 
	C382.074554,298.464874 391.514801,303.783508 400.951355,309.108673 
	C401.417664,309.409149 401.883942,309.709625 402.751923,310.337708 
	C403.769196,311.054901 404.384796,311.444489 405.000397,311.834106 
	C405.333313,313.337219 405.937988,314.837341 405.954437,316.343903 
	C406.051727,325.252808 406.012421,334.163147 406.092102,343.536682 
	C406.109924,356.627533 405.962189,369.255493 406.063843,381.881439 
	C406.089600,385.077850 405.101318,386.944519 402.199066,388.461426 
	C397.055511,391.149780 392.170593,394.332886 387.032135,397.632385 
	C379.131165,402.264465 371.379517,406.580353 363.617279,410.877106 
	C361.494690,412.052002 359.340363,413.169464 357.039215,414.636475 
	C347.802185,420.260040 338.726532,425.560394 329.326050,431.013428 
	C319.648254,436.651031 310.295288,442.135986 300.744507,447.885437 
	C293.569519,452.061646 286.591980,455.972656 279.615265,459.885284 
	C275.834717,462.005493 272.055573,464.128265 268.119080,466.564819 
	C259.129089,471.922241 250.369537,477.103424 241.393097,481.876770 
	C239.813019,482.716980 237.238708,482.181427 235.283676,481.669647 
	C233.657211,481.243835 232.265869,479.919861 230.405411,478.938110 
	C216.089874,470.608887 202.139282,462.335205 187.803284,454.099152 
	C177.058914,448.006073 166.698715,441.877441 156.342346,435.742401 
	C154.829224,434.846039 153.334366,433.918854 151.472046,432.981598 
z"/>
<path fill="#82bc0000" opacity="1.000000" stroke="none" 
	d="
M99.882736,174.432739 
	C105.107780,171.164642 110.172333,168.204514 115.247986,165.263550 
	C116.732780,164.403244 118.249176,163.597488 119.894768,162.442902 
	C127.141190,158.125732 134.243927,154.132416 141.671616,149.987000 
	C151.905029,144.139801 161.813477,138.444717 171.878754,132.435410 
	C182.631119,125.977638 193.226654,119.834099 203.967682,113.367096 
	C211.842621,108.761642 219.582672,104.498558 227.295532,100.186874 
	C229.819107,98.776131 232.272064,97.239052 234.897415,95.439301 
	C238.865189,93.072319 242.875504,91.297325 246.458527,88.887100 
	C248.991058,87.183540 250.879684,87.078331 253.388489,88.714180 
	C256.884979,90.994057 260.609192,92.924690 264.597534,95.060211 
	C276.073395,101.683601 287.187714,108.251572 298.627869,114.967476 
	C310.355743,121.740860 321.757812,128.366333 333.523193,135.017487 
	C340.400635,139.053146 346.886017,143.110901 353.438873,147.056580 
	C357.965424,149.782166 362.585236,152.352905 367.524597,155.018250 
	C370.628204,156.902893 373.370575,158.762115 376.700867,161.019958 
	C374.001343,162.572556 371.826447,163.823425 369.099518,165.503296 
	C364.215485,168.330704 359.809509,170.606415 355.571320,173.160522 
	C350.929749,175.957764 346.443024,179.012024 341.525330,181.980927 
	C331.774994,187.393890 322.388153,192.780212 312.648804,198.195892 
	C301.184296,204.777252 290.072357,211.329239 278.599945,217.937897 
	C276.721161,218.905945 275.209595,219.828888 273.683350,220.726822 
	C261.827209,227.702164 249.968216,234.672699 237.817398,241.796814 
	C226.667770,248.261719 215.810867,254.574539 204.628113,261.032898 
	C201.371017,262.831451 198.398087,264.415283 195.516663,266.151031 
	C187.975769,270.693573 180.474823,275.302490 172.594177,279.940308 
	C166.941727,283.040985 161.829514,286.471588 156.304962,289.001923 
	C152.336014,290.819855 149.417023,295.584991 143.888214,293.570679 
	C143.149658,292.984863 142.542618,292.753113 141.985016,292.434814 
	C132.333847,286.924835 122.688744,281.404236 113.042313,275.885956 
	C103.208015,270.058044 93.373718,264.230133 83.001274,258.083344 
	C83.001274,245.956940 83.001335,233.199326 83.001251,220.441727 
	C83.001183,209.476990 82.857605,198.508484 83.145538,187.551315 
	C83.192123,185.778580 84.757553,183.459381 86.309059,182.424973 
	C90.586357,179.573227 95.228584,177.268860 99.882736,174.432739 
z"/>
<path fill="#60ACFA" opacity="1.000000" stroke="none" 
	d="
M341.888794,181.954285 
	C346.443024,179.012024 350.929749,175.957764 355.571320,173.160522 
	C359.809509,170.606415 364.215485,168.330704 368.836121,165.771362 
	C372.613068,166.739395 373.549377,169.400909 374.273468,172.783569 
	C383.529449,216.023529 392.979767,259.221863 402.238708,302.461212 
	C402.635162,304.312683 401.654663,306.458984 401.133484,308.788330 
	C391.514801,303.783508 382.074554,298.464874 372.645111,293.127167 
	C370.958313,292.172302 369.316162,291.138458 367.393616,289.639832 
	C367.176666,287.841980 367.487762,286.487762 367.223236,285.257233 
	C360.223511,252.693680 353.217072,220.131180 345.992310,187.617294 
	C345.528229,185.528793 343.297607,183.832840 341.888794,181.954285 
z"/>
<path fill="#60ACFA" opacity="1.000000" stroke="none" 
	d="
M404.985138,311.540710 
	C404.384796,311.444489 403.769196,311.054901 403.055511,310.390564 
	C403.628235,310.492981 404.299072,310.870178 404.985138,311.540710 
z"/>
<path fill="#8F9CF7" opacity="1.000000" stroke="none" 
	d="
M113.033875,276.316589 
	C122.688744,281.404236 132.333847,286.924835 141.985016,292.434814 
	C142.542618,292.753113 143.149658,292.984863 143.897522,293.966919 
	C144.683167,296.735931 145.445847,298.764038 145.904785,300.858704 
	C150.209229,320.504761 154.694931,340.116028 158.602219,359.841522 
	C159.962875,366.710510 163.315598,373.496460 160.999146,380.834320 
	C152.922684,385.558167 144.846207,390.282013 136.406097,395.060181 
	C135.160080,387.962433 134.775970,380.706421 133.309479,373.676239 
	C126.803642,342.488403 119.982460,311.366364 113.303055,280.214600 
	C113.062065,279.090668 113.111404,277.904449 113.033875,276.316589 
z"/>
<path fill="#75A5F8" opacity="1.000000" stroke="none" 
	d="
M238.110138,241.644714 
	C249.968216,234.672699 261.827209,227.702164 273.683350,220.726822 
	C275.209595,219.828888 276.721161,218.905945 278.608826,218.382721 
	C279.327240,221.559494 279.477173,224.390213 280.056458,227.130157 
	C285.342590,252.134109 290.703400,277.122253 296.042419,302.114990 
	C289.632416,306.086700 283.275696,310.147949 276.795746,314.001953 
	C271.533264,317.131866 266.122894,320.013123 260.233154,322.739868 
	C258.467682,318.892578 256.900879,315.387115 256.083740,311.714844 
	C251.363373,290.501617 246.899841,269.230927 242.102692,248.035507 
	C241.579193,245.722519 239.479004,243.766388 238.110138,241.644714 
z"/>
<path fill="#66AAF9" opacity="1.000000" stroke="none" 
	d="
M341.525330,181.980927 
	C343.297607,183.832840 345.528229,185.528793 345.992310,187.617294 
	C353.217072,220.131180 360.223511,252.693680 367.223236,285.257233 
	C367.487762,286.487762 367.176666,287.841980 367.067322,289.486176 
	C359.663330,285.556854 352.358154,281.222412 344.953033,277.066010 
	C343.862366,276.453827 342.006287,276.116547 341.005280,276.629517 
	C337.450073,278.451477 334.111664,280.696472 330.319214,282.419067 
	C326.369354,265.671783 322.629700,249.319794 319.268738,232.890335 
	C316.912109,221.370453 315.072083,209.744904 313.001343,198.166534 
	C322.388153,192.780212 331.774994,187.393890 341.525330,181.980927 
z"/>
<path fill="#7CA2F8" opacity="1.000000" stroke="none" 
	d="
M237.817413,241.796814 
	C239.479004,243.766388 241.579193,245.722519 242.102692,248.035507 
	C246.899841,269.230927 251.363373,290.501617 256.083740,311.714844 
	C256.900879,315.387115 258.467682,318.892578 259.867645,322.792175 
	C253.627258,327.082886 247.240021,331.110474 240.777039,335.012665 
	C235.800858,338.017181 230.729431,340.863953 225.270172,343.463348 
	C223.928253,341.214111 222.621353,339.370270 222.169159,337.336395 
	C219.297562,324.420563 216.730850,311.436737 213.836609,298.526215 
	C211.016937,285.948273 207.925873,273.431152 204.953949,260.887329 
	C215.810867,254.574539 226.667770,248.261719 237.817413,241.796814 
z"/>
<path fill="#6DA8F9" opacity="1.000000" stroke="none" 
	d="
M312.648804,198.195908 
	C315.072083,209.744904 316.912109,221.370453 319.268738,232.890335 
	C322.629700,249.319794 326.369354,265.671783 329.970825,282.444672 
	C318.920654,289.223419 307.846924,295.614380 296.407837,302.060181 
	C290.703400,277.122253 285.342590,252.134109 280.056458,227.130157 
	C279.477173,224.390213 279.327240,221.559494 278.969299,218.326050 
	C290.072357,211.329239 301.184296,204.777252 312.648804,198.195908 
z"/>
<path fill="#84A0F7" opacity="1.000000" stroke="none" 
	d="
M204.628098,261.032867 
	C207.925873,273.431152 211.016937,285.948273 213.836609,298.526215 
	C216.730850,311.436737 219.297562,324.420563 222.169159,337.336395 
	C222.621353,339.370270 223.928253,341.214111 224.919327,343.489868 
	C214.444504,349.940460 203.890305,356.046967 192.704758,362.115112 
	C191.046692,359.532684 189.632996,357.073425 189.053452,354.431244 
	C183.606979,329.600311 178.303055,304.738129 172.957947,279.884949 
	C180.474823,275.302490 187.975769,270.693573 195.516663,266.151031 
	C198.398087,264.415283 201.371017,262.831451 204.628098,261.032867 
z"/>
<path fill="#8A9EF7" opacity="1.000000" stroke="none" 
	d="
M172.594193,279.940308 
	C178.303055,304.738129 183.606979,329.600311 189.053452,354.431244 
	C189.632996,357.073425 191.046692,359.532684 192.428528,362.323120 
	C192.783646,362.569458 192.615189,362.875275 192.207458,363.016235 
	C191.536041,363.383514 191.272324,363.609833 191.008606,363.836151 
	C181.239548,369.484680 171.470490,375.133209 161.350296,380.808044 
	C163.315598,373.496460 159.962875,366.710510 158.602219,359.841522 
	C154.694931,340.116028 150.209229,320.504761 145.904785,300.858704 
	C145.445847,298.764038 144.683167,296.735931 144.052063,294.280701 
	C149.417023,295.584991 152.336014,290.819855 156.304962,289.001923 
	C161.829514,286.471588 166.941727,283.040985 172.594193,279.940308 
z"/>
<path fill="#84A0F7" opacity="1.000000" stroke="none" 
	d="
M191.303207,363.852539 
	C191.272324,363.609833 191.536041,363.383514 192.033417,363.029724 
	C192.043991,363.224487 191.820908,363.546722 191.303207,363.852539 
z"/>
</svg>