<svg width="210" height="210" viewBox="0 0 210 210" fill="none" xmlns="http://www.w3.org/2000/svg">
<path d="M50.8333 42.5V124.444C50.8333 124.444 22.899 124.444 5 124.444M45.2778 170.278H95.2778V35.5556H205M148.056 78.6111H205M205 129.083L148.056 128.611V205M5 5H205V205H5C5 205 5 144.052 5 105C5 65.9476 5 5 5 5ZM61.9444 33.4722C61.9444 39.9922 56.6589 45.2778 50.1389 45.2778C43.6189 45.2778 38.3333 39.9922 38.3333 33.4722C38.3333 26.9522 43.6189 21.6667 50.1389 21.6667C56.6589 21.6667 61.9444 26.9522 61.9444 33.4722ZM48.0556 169.583C48.0556 176.103 42.77 181.389 36.25 181.389C29.73 181.389 24.4444 176.103 24.4444 169.583C24.4444 163.063 29.73 157.778 36.25 157.778C42.77 157.778 48.0556 163.063 48.0556 169.583ZM152.222 77.9167C152.222 84.4367 146.937 89.7222 140.417 89.7222C133.897 89.7222 128.611 84.4367 128.611 77.9167C128.611 71.3966 133.897 66.1111 140.417 66.1111C146.937 66.1111 152.222 71.3966 152.222 77.9167Z" stroke="url(#paint0_linear_99_2782)" stroke-width="10" stroke-miterlimit="10"/>
<defs>
<linearGradient id="paint0_linear_99_2782" x1="-32" y1="244" x2="304" y2="-71" gradientUnits="userSpaceOnUse">
<stop stop-color="#9097F7"/>
<stop offset="0.411458" stop-color="#6A9AF8" stop-opacity="0.5381"/>
<stop offset="0.723476" stop-color="#46C6FD"/>
<stop offset="1" stop-color="#64A2F9"/>
</linearGradient>
</defs>
</svg>
